<svg width="10" height="12" viewBox="0 0 10 12" fill="none" xmlns="http://www.w3.org/2000/svg">
<path fill-rule="evenodd" clip-rule="evenodd" d="M0.395752 5.49508C0.395752 3.00348 2.47785 0.989624 4.99637 0.989624C7.52198 0.989624 9.60409 3.00348 9.60409 5.49508C9.60409 6.75062 9.14746 7.91626 8.3959 8.90423C7.56677 9.99403 6.54484 10.9435 5.39455 11.6889C5.13128 11.8611 4.89368 11.8741 4.60475 11.6889C3.4479 10.9435 2.42597 9.99403 1.60394 8.90423C0.851826 7.91626 0.395752 6.75062 0.395752 5.49508ZM3.48013 5.63536C3.48013 6.47005 4.16123 7.12653 4.99637 7.12653C5.83205 7.12653 6.51971 6.47005 6.51971 5.63536C6.51971 4.80718 5.83205 4.11874 4.99637 4.11874C4.16123 4.11874 3.48013 4.80718 3.48013 5.63536Z" fill="white"/>
</svg>
