<svg width="12" height="10" viewBox="0 0 12 10" fill="none" xmlns="http://www.w3.org/2000/svg">
<path fill-rule="evenodd" clip-rule="evenodd" d="M8.67545 0.125C9.40183 0.125 10.1006 0.412083 10.6146 0.927208C11.1292 1.44125 11.4168 2.13458 11.4168 2.86042V7.13958C11.4168 8.65083 10.1872 9.875 8.67545 9.875H3.32433C1.81254 9.875 0.583496 8.65083 0.583496 7.13958V2.86042C0.583496 1.34917 1.80712 0.125 3.32433 0.125H8.67545ZM9.53725 3.6675L9.58058 3.62417C9.71004 3.46708 9.71004 3.23958 9.57462 3.0825C9.49933 3.00179 9.39587 2.9525 9.28808 2.94167C9.17433 2.93571 9.066 2.97417 8.9842 3.05L6.54183 5C6.22766 5.26054 5.77754 5.26054 5.4585 5L3.021 3.05C2.85254 2.92542 2.61962 2.94167 2.47933 3.08792C2.33308 3.23417 2.31683 3.46708 2.44087 3.62958L2.51183 3.7L4.97641 5.62292C5.27975 5.86125 5.64754 5.99125 6.03266 5.99125C6.4167 5.99125 6.791 5.86125 7.09379 5.62292L9.53725 3.6675Z" fill="white"/>
</svg>
