<svg width="26" height="26" viewBox="0 0 26 26" fill="none" xmlns="http://www.w3.org/2000/svg">
<rect width="26" height="26" fill="#D24A43"/>
<path d="M18.091 15.5427C17.7903 15.235 16.4888 14.2004 16.1659 14.1327C15.8067 14.0569 15.5222 14.2221 15.2708 14.3667C15.0124 14.5157 14.7897 14.6446 14.509 14.5428C13.0705 13.9556 12.0432 12.9286 11.4581 11.4959C11.3546 11.211 11.483 10.9873 11.632 10.729C11.7766 10.4782 11.9397 10.1933 11.8655 9.83414C11.7983 9.51131 10.764 8.21025 10.4557 7.90963C10.252 7.71138 10.0439 7.60197 9.83099 7.58409C9.02747 7.55051 8.03487 8.70749 7.8772 8.96153C7.48276 9.50481 7.48547 10.2258 7.88424 11.1011C8.84434 13.4519 12.5146 17.1221 14.8932 18.1112C15.3315 18.3149 15.733 18.4167 16.0933 18.4167C16.4466 18.4167 16.7603 18.3187 17.0301 18.1248C17.2333 18.0088 18.4453 16.9808 18.4161 16.1623C18.3987 15.9532 18.2893 15.7452 18.091 15.5427Z" fill="white"/>
</svg>
