<svg width="12" height="12" viewBox="0 0 12 12" fill="none" xmlns="http://www.w3.org/2000/svg">
<path d="M11.091 8.54267C10.7903 8.23501 9.48882 7.20044 9.1659 7.13273C8.80668 7.0569 8.52222 7.22211 8.27082 7.36673C8.01237 7.51569 7.78969 7.6446 7.50903 7.54277C6.07051 6.95561 5.04322 5.92863 4.45806 4.49594C4.35457 4.21103 4.48298 3.98733 4.63198 3.72896C4.77665 3.47817 4.93974 3.19326 4.86551 2.83414C4.79832 2.51131 3.76399 1.21025 3.4557 0.909627C3.25198 0.71138 3.04392 0.601965 2.83099 0.58409C2.02747 0.550508 1.03487 1.70749 0.877198 1.96153C0.482756 2.50481 0.485465 3.22576 0.884242 4.10108C1.84434 6.45187 5.5146 10.1221 7.89318 11.1112C8.3315 11.3149 8.73299 11.4167 9.0933 11.4167C9.44656 11.4167 9.76027 11.3187 10.0301 11.1248C10.2333 11.0088 11.4453 9.98077 11.4161 9.16233C11.3987 8.95325 11.2893 8.74525 11.091 8.54267Z" fill="white"/>
</svg>
