<svg width="167" height="27" viewBox="0 0 167 27" fill="none" xmlns="http://www.w3.org/2000/svg">
<path d="M30.78 7.62V23.02H28V7.62H30.78Z" fill="#14141A"/>
<path d="M33.3683 23V11.2H35.7483L35.9283 12.4C36.5883 11.54 37.6483 11.1 38.7083 11.14C39.8683 11.14 41.0483 11.52 41.6083 12.64C42.2283 11.72 43.4683 11.12 44.9683 11.12C47.4083 11.12 48.8683 12.54 48.8683 15.74V23H46.1283V15.74C46.1283 14.22 45.5083 13.6 44.3683 13.6C43.3283 13.6 42.5483 14.04 42.5083 15.72V23H39.7683V15.74C39.7683 14.22 39.1483 13.6 38.0083 13.6C36.9483 13.6 36.1083 14.12 36.1083 15.64V23H33.3683Z" fill="#14141A"/>
<path d="M51.4653 11.2H53.7253L53.9253 12.48C54.3853 11.64 55.3653 11.12 56.7053 11.12C59.0253 11.12 60.5853 12.4 60.5853 15.68V18.72C60.5853 21.5 59.2453 23.12 56.6253 23.12C55.6653 23.12 54.6653 22.86 54.2053 22.08V26.58H51.4653V11.2ZM55.9853 20.58C57.1653 20.58 57.8453 20.02 57.8453 18.6V15.82C57.8453 14.12 57.1453 13.56 56.0653 13.56C54.7053 13.56 54.2053 14.56 54.2053 15.92V18.62C54.2053 20.04 54.8853 20.58 55.9853 20.58Z" fill="#14141A"/>
<path d="M72.1255 11.18V22.98H69.6855L69.5455 21.78C68.8055 22.66 67.7655 23.06 66.7655 23.06C64.8255 23.08 62.9255 22.06 62.9255 18.46V11.18H65.6455V18.44C65.6455 19.96 66.2855 20.58 67.4255 20.58C68.4855 20.58 69.3255 20.06 69.3255 18.54V11.18H72.1255Z" fill="#14141A"/>
<path d="M74.7195 18.68V7.58H77.4595V18.64C77.4595 19.94 77.6995 20.36 78.8395 20.36V23C75.6595 23 74.7195 22.06 74.7195 18.68Z" fill="#14141A"/>
<path d="M88.8928 14.9H86.2128C86.2128 14 85.5128 13.6 84.6328 13.6C83.5728 13.6 82.9328 14.02 82.9328 14.84C82.9328 16.14 84.2928 15.96 85.8728 16.14C87.4528 16.32 89.0328 17.26 89.0328 19.36C89.0328 21.94 87.0128 23.06 84.4728 23.06C81.6728 23.06 79.9928 21.64 79.9928 19.36H82.7728C82.8328 20.18 83.2728 20.66 84.5928 20.66C85.6928 20.66 86.2528 20.04 86.2528 19.46C86.2528 18.46 84.9528 18.44 83.5328 18.26C81.8128 18.04 80.1528 17.3 80.1528 14.98C80.1528 12.32 82.0528 11.14 84.6128 11.14C87.5128 11.14 88.8928 12.78 88.8928 14.9Z" fill="#14141A"/>
<path d="M97.1387 19.38H99.8388C99.8388 21.86 98.3588 23.04 95.2588 23.04C92.1588 23.04 90.6787 21.62 90.6787 18.44V15.76C90.6787 12.8 92.1588 11.16 95.2588 11.16C98.3588 11.16 99.8388 12.58 99.8388 15.76V18.1H93.4388V18.4C93.4388 20.3 94.1788 20.66 95.2988 20.66C96.5988 20.66 97.1387 20.2 97.1387 19.38ZM95.3388 13.54C93.7188 13.54 93.4388 14.42 93.4388 15.84H97.1787C97.1787 14.36 96.8988 13.54 95.3388 13.54Z" fill="#14141A"/>
<path d="M104 7.6H109.06C112.78 7.6 114.32 8.94 114.32 12.2V18.48C114.32 21.66 112.72 23 109.06 23H104V7.6ZM106.74 20.5H109.06C111.06 20.5 111.56 19.8 111.56 18.34V12.34C111.56 10.88 111.24 10.12 109.1 10.12H106.74V20.5Z" fill="#14141A"/>
<path d="M116.573 7.6H125.433V10H119.333V13.96H124.533V16.44H119.333V20.5H125.713V23.02H116.573V7.6Z" fill="#14141A"/>
<path d="M134.185 11.62C134.105 10.32 133.425 9.94 132.085 9.94C130.565 9.94 129.945 10.42 129.945 11.88C129.945 13.82 131.485 13.66 133.825 14.02C135.605 14.3 137.305 15.02 137.305 18.1C137.305 21.66 135.765 23.16 132.065 23.16C128.225 23.16 127.005 21.3 127.005 18.82H129.785C129.845 20 130.365 20.64 132.125 20.64C133.785 20.64 134.545 19.94 134.545 18.2C134.545 16.38 132.385 16.38 130.745 16.16C129.005 15.94 127.165 15.08 127.165 11.9C127.165 9.02 128.925 7.52 132.085 7.52C134.865 7.52 136.705 8.54 136.965 11.62H134.185Z" fill="#14141A"/>
<path d="M142.176 7.62V23.02H139.396V7.62H142.176Z" fill="#14141A"/>
<path d="M149.742 16.74V14.24H154.922V18.24C154.922 21.62 153.322 23.08 149.662 23.08C146.002 23.08 144.522 21.62 144.522 18.3V12.12C144.522 8.98 145.942 7.52 149.662 7.52C153.382 7.52 154.922 8.82 154.922 12.12H152.162C152.162 10.68 151.802 9.96 149.662 9.96C147.662 9.96 147.282 10.86 147.282 12.26V18.3C147.282 19.76 147.662 20.6 149.662 20.6C151.662 20.6 152.362 19.76 152.362 18.24V16.74H149.742Z" fill="#14141A"/>
<path d="M166.879 7.62V23H164.199L159.679 13.24L159.919 19.08V23H157.179V7.62H159.919L164.439 17.76L164.139 11.26V7.62H166.879Z" fill="#14141A"/>
<path fill-rule="evenodd" clip-rule="evenodd" d="M20 6C20 2.96243 22.4624 0.5 25.5 0.5C28.5376 0.5 31 2.96243 31 6H28C28 4.61929 26.8807 3.5 25.5 3.5C24.1193 3.5 23 4.61929 23 6L23 10L23 14V18.5C23 21.2614 20.7614 23.5 18 23.5C15.2386 23.5 13 21.2614 13 18.5L13 15.5714V13.4286V10C13 9.17157 12.3284 8.5 11.5 8.5C10.6716 8.5 10 9.17157 10 10V18.5V19H9.97531C9.72445 21.5267 7.59267 23.5 5 23.5C2.23858 23.5 0 21.2614 0 18.5V15.4286H3L3 18.5C3 19.6046 3.89543 20.5 5 20.5C6.1041 20.5 6.99925 19.6053 7 18.5014L7 18.5L7 10C7 7.51472 9.01472 5.5 11.5 5.5C13.9853 5.5 16 7.51472 16 10V13.4286V15.5714L16 18.5C16 19.6046 16.8954 20.5 18 20.5C19.1046 20.5 20 19.6046 20 18.5V14L20 10L20 6ZM1 10C0.447715 10 0 10.4477 0 11V12C0 12.5523 0.447715 13 1 13H2C2.55228 13 3 12.5523 3 12V11C3 10.4477 2.55228 10 2 10H1Z" fill="url(#paint0_linear_1401_309)"/>
<defs>
<linearGradient id="paint0_linear_1401_309" x1="-2.30968e-07" y1="23.5" x2="33.6889" y2="18.4548" gradientUnits="userSpaceOnUse">
<stop stop-color="#BFA660"/>
<stop offset="1" stop-color="#BFAB73"/>
</linearGradient>
</defs>
</svg>
