<svg width="38" height="38" viewBox="0 0 38 38" fill="none" xmlns="http://www.w3.org/2000/svg">
<g clip-path="url(#clip0_1068_1177)">
<path opacity="0.999" fill-rule="evenodd" clip-rule="evenodd" d="M8.86987 -0.0371094C14.6094 -0.0371094 20.3491 -0.0371094 26.0886 -0.0371094C26.0762 2.51119 26.0886 5.05937 26.1257 7.60742C26.514 8.77585 27.3181 9.39431 28.5378 9.46289C30.8633 11.8379 33.2136 14.1882 35.5886 16.5137C35.601 23.0697 35.5886 29.6257 35.5515 36.1816C35.4482 36.6057 35.2503 36.9768 34.9578 37.2949C34.6164 37.6011 34.2329 37.8238 33.8074 37.9629C25.4949 37.9629 17.1824 37.9629 8.86987 37.9629C8.17081 37.7218 7.63888 37.2765 7.27417 36.627C7.22469 36.4785 7.17522 36.3301 7.12573 36.1816C7.08863 35.1924 7.07626 34.2027 7.08862 33.2129C14.7084 33.2253 22.3283 33.2129 29.948 33.1758C30.2957 33.0756 30.5555 32.8653 30.7273 32.5449C30.8295 32.0569 30.8666 31.562 30.8386 31.0605C30.851 26.9289 30.8386 22.7975 30.8015 18.666C30.7013 18.3183 30.4911 18.0585 30.1707 17.8867C22.4808 17.7759 14.7868 17.7388 7.08862 17.7754C7.07625 12.4316 7.08862 7.08783 7.12573 1.74414C7.22907 1.32008 7.42699 0.948983 7.71948 0.630859C8.06089 0.324617 8.4443 0.101961 8.86987 -0.0371094Z" fill="#E1E4E6"/>
<path fill-rule="evenodd" clip-rule="evenodd" d="M26.0886 -0.0371094C26.1133 -0.0371094 26.1381 -0.0371094 26.1629 -0.0371094C29.28 3.10482 32.3972 6.24675 35.5144 9.38867C33.2016 9.46274 30.876 9.48753 28.5379 9.46289C27.3181 9.39431 26.514 8.77585 26.1257 7.60742C26.0886 5.05937 26.0762 2.51119 26.0886 -0.0371094Z" fill="#B0B7BD"/>
<path fill-rule="evenodd" clip-rule="evenodd" d="M35.5137 9.38867C35.5877 11.751 35.6125 14.126 35.5879 16.5137C33.2129 14.1882 30.8626 11.8379 28.5371 9.46289C30.8753 9.48753 33.2009 9.46274 35.5137 9.38867Z" fill="#C9D0D7"/>
<path fill-rule="evenodd" clip-rule="evenodd" d="M7.08789 17.7753C14.7861 17.7388 22.4801 17.7759 30.1699 17.8867C30.4903 18.0585 30.7006 18.3183 30.8008 18.666C30.8379 22.7974 30.8503 26.9289 30.8379 31.0605C30.7028 31.5541 30.3812 31.8634 29.873 31.9882C22.278 32.0253 14.683 32.0377 7.08789 32.0253C5.75172 32.0377 4.41579 32.0253 3.08008 31.9882C2.7461 31.8522 2.51107 31.6171 2.375 31.2832C2.32552 27.028 2.32552 22.7727 2.375 18.5175C2.51107 18.1835 2.7461 17.9485 3.08008 17.8125C4.41579 17.7753 5.75172 17.7629 7.08789 17.7753Z" fill="#D24A43"/>
<path fill-rule="evenodd" clip-rule="evenodd" d="M7.97853 21.7832C8.84474 21.7708 9.71065 21.7832 10.5762 21.8203C12.217 22.1526 12.8974 23.1546 12.6172 24.8262C12.3991 25.7618 11.8177 26.3184 10.8731 26.4961C10.1808 26.5332 9.48807 26.5455 8.79494 26.5332C8.82077 27.0829 8.78366 27.6271 8.68361 28.166C8.2858 28.5758 7.91471 28.5511 7.57033 28.0918C7.52083 26.1374 7.52083 24.1829 7.57033 22.2285C7.67127 22.0413 7.80731 21.8928 7.97853 21.7832Z" fill="#FFFCFC"/>
<path fill-rule="evenodd" clip-rule="evenodd" d="M14.4356 21.8574C15.4784 21.8271 16.5175 21.8642 17.5528 21.9687C19.4011 22.6087 20.1804 23.9075 19.8906 25.8652C19.5709 27.2983 18.6926 28.1518 17.2559 28.4258C16.2663 28.4753 15.2767 28.4753 14.2871 28.4258C14.1546 28.3675 14.0432 28.281 13.9531 28.166C13.9036 26.1868 13.9036 24.2077 13.9531 22.2285C14.099 22.0764 14.2598 21.9526 14.4356 21.8574Z" fill="#FFFBFB"/>
<path fill-rule="evenodd" clip-rule="evenodd" d="M21.7832 21.8574C22.9709 21.845 24.1584 21.8574 25.3457 21.8945C25.8319 21.9846 26.0174 22.2691 25.9024 22.7481C25.7809 22.9195 25.62 23.0308 25.4199 23.082C24.4554 23.1192 23.4905 23.1315 22.5254 23.1192C22.5254 23.614 22.5254 24.1087 22.5254 24.6035C23.3669 24.5911 24.2081 24.6035 25.0488 24.6406C25.5004 24.8142 25.6612 25.1234 25.5313 25.5684C25.4412 25.6833 25.3298 25.7699 25.1973 25.8281C24.307 25.8652 23.4164 25.8776 22.5254 25.8652C22.559 26.6646 22.5219 27.4563 22.4141 28.2402C21.99 28.5719 21.6189 28.5225 21.3008 28.0918C21.2513 26.1374 21.2513 24.1829 21.3008 22.2285C21.4466 22.0764 21.6075 21.9527 21.7832 21.8574Z" fill="#FFFBFA"/>
<path fill-rule="evenodd" clip-rule="evenodd" d="M10.5755 23.0449C9.9817 23.0449 9.38795 23.0449 8.7942 23.0449C8.7942 23.8118 8.7942 24.5787 8.7942 25.3456C8.72043 24.5673 8.69564 23.7756 8.71999 22.9706C9.35211 22.9465 9.97057 22.9712 10.5755 23.0449Z" fill="#F9B8AF"/>
<path fill-rule="evenodd" clip-rule="evenodd" d="M10.5762 23.0449C11.3 23.2798 11.5845 23.7746 11.4297 24.5293C11.3184 24.9375 11.0586 25.1973 10.6504 25.3086C10.0324 25.3457 9.41391 25.358 8.79492 25.3457C8.79492 24.5788 8.79492 23.8118 8.79492 23.0449C9.38867 23.0449 9.98242 23.0449 10.5762 23.0449Z" fill="#D24A43"/>
<path fill-rule="evenodd" clip-rule="evenodd" d="M15.1777 23.0449C15.772 23.0326 16.3658 23.0449 16.959 23.082C18.0621 23.2945 18.6311 23.9625 18.666 25.0859C18.7207 26.1903 18.226 26.9078 17.1816 27.2383C16.5141 27.2754 15.8461 27.2877 15.1777 27.2754C15.1777 25.8652 15.1777 24.4551 15.1777 23.0449Z" fill="#D24A43"/>
<path fill-rule="evenodd" clip-rule="evenodd" d="M30.8379 31.0605C30.8659 31.562 30.8288 32.0569 30.7266 32.5449C30.5547 32.8653 30.295 33.0756 29.9473 33.1758C22.3275 33.2129 14.7077 33.2253 7.08789 33.2129C7.08789 32.8171 7.08789 32.4212 7.08789 32.0254C14.683 32.0378 22.278 32.0254 29.873 31.9883C30.3812 31.8634 30.7028 31.5542 30.8379 31.0605Z" fill="#CAD0D7"/>
</g>
<defs>
<clipPath id="clip0_1068_1177">
<rect width="38" height="38" fill="white"/>
</clipPath>
</defs>
</svg>
