<svg width="22" height="22" viewBox="0 0 22 22" fill="none" xmlns="http://www.w3.org/2000/svg">
<rect width="22" height="22" rx="11" fill="#419FD9"/>
<rect width="22" height="22" rx="11" fill="url(#paint0_linear_972_82)"/>
<path d="M4.94421 10.7575C8.14306 9.3345 10.2761 8.39638 11.3434 7.94313C14.3907 6.649 15.0239 6.4242 15.4366 6.4167C15.5274 6.41514 15.7304 6.43811 15.8618 6.54703C15.9729 6.639 16.0034 6.76324 16.018 6.85044C16.0326 6.93764 16.0508 7.13628 16.0364 7.29149C15.8712 9.06305 15.1567 13.3622 14.7932 15.3463C14.6394 16.1859 14.3365 16.4674 14.0433 16.495C13.4061 16.5548 12.9222 16.065 12.305 15.6519C11.3392 15.0055 10.7936 14.6032 9.85619 13.9724C8.77282 13.2435 9.47512 12.8429 10.0925 12.1881C10.2541 12.0167 13.0617 9.40933 13.1161 9.1728C13.1229 9.14321 13.1292 9.03295 13.065 8.97472C13.0009 8.91649 12.9062 8.9364 12.8378 8.95224C12.741 8.97469 11.1981 10.0159 8.20936 12.0758C7.77143 12.3828 7.37477 12.5324 7.01938 12.5246C6.62759 12.5159 5.87394 12.2984 5.31367 12.1125C4.62649 11.8844 4.08033 11.7638 4.12789 11.3765C4.15266 11.1747 4.42477 10.9684 4.94421 10.7575Z" fill="white"/>
<defs>
<linearGradient id="paint0_linear_972_82" x1="11" y1="0" x2="11" y2="21.8368" gradientUnits="userSpaceOnUse">
<stop stop-color="#2AABEE"/>
<stop offset="1" stop-color="#229ED9"/>
</linearGradient>
</defs>
</svg>
