<svg width="22" height="22" viewBox="0 0 22 22" fill="none" xmlns="http://www.w3.org/2000/svg">
<rect width="22" height="22" rx="11" fill="#675DA9"/>
<path d="M16.3871 5.58462C16.0232 5.2501 14.5501 4.17904 11.2665 4.16437C11.2665 4.16437 7.39606 3.92962 5.50924 5.66092C4.45872 6.71144 4.08898 8.24613 4.05084 10.1535C4.01269 12.0579 3.9628 15.6291 7.40486 16.5975H7.4078L7.40486 18.0735C7.40486 18.0735 7.38432 18.6721 7.77753 18.7924C8.25291 18.9391 8.53461 18.4843 8.98944 17.9942C9.23887 17.7243 9.58219 17.3311 9.84336 17.0288C12.1967 17.2254 14.0073 16.7735 14.2127 16.706C14.6881 16.5505 17.3789 16.2072 17.8161 12.636C18.268 8.96213 17.5961 6.63514 16.3871 5.58462ZM16.7862 12.3778C16.4164 15.3591 14.2362 15.5469 13.8341 15.676C13.664 15.7318 12.0735 16.1279 10.0722 15.9959C10.0722 15.9959 8.58156 17.7947 8.11792 18.2613C8.04456 18.3346 7.95947 18.364 7.90371 18.3493C7.82448 18.3288 7.80101 18.2349 7.80394 18.0969C7.80394 17.8974 7.81568 15.6408 7.81568 15.6408C7.81275 15.6408 7.81275 15.6408 7.81568 15.6408C4.90181 14.8339 5.07201 11.7938 5.10429 10.2034C5.13657 8.61293 5.43588 7.30712 6.325 6.42973C7.91839 4.986 11.2079 5.20022 11.2079 5.20022C13.9838 5.21195 15.3131 6.04826 15.6212 6.32703C16.6453 7.20735 17.1676 9.30545 16.7862 12.3778Z" fill="white"/>
<path d="M12.6193 10.2591C12.5225 10.2591 12.4403 10.1828 12.4345 10.083C12.4022 9.45214 12.1058 9.14402 11.5013 9.11175C11.3986 9.10588 11.3194 9.01784 11.3253 8.91514C11.3311 8.81244 11.4192 8.73321 11.5219 8.73908C12.32 8.78309 12.7661 9.24086 12.8071 10.0625C12.813 10.1652 12.7338 10.2532 12.6311 10.2562C12.6252 10.2591 12.6223 10.2591 12.6193 10.2591Z" fill="white"/>
<path d="M13.5699 10.5762H13.567C13.4643 10.5732 13.3821 10.4881 13.3851 10.3854C13.3997 9.7516 13.2178 9.23808 12.8305 8.81552C12.4461 8.39297 11.9149 8.16409 11.2136 8.1142C11.1109 8.1054 11.0346 8.01737 11.0434 7.91466C11.0522 7.81196 11.1403 7.73566 11.243 7.74447C12.0352 7.80315 12.6603 8.07899 13.1063 8.5661C13.5553 9.05615 13.7724 9.66944 13.7577 10.3942C13.7548 10.4969 13.6697 10.5762 13.5699 10.5762Z" fill="white"/>
<path d="M14.5442 10.9575C14.4415 10.9575 14.3594 10.8754 14.3594 10.7727C14.3506 9.63705 14.0249 8.7714 13.3617 8.12289C12.7073 7.48319 11.8769 7.15747 10.8997 7.14867C10.797 7.14867 10.7148 7.06357 10.7148 6.96087C10.7148 6.85816 10.7999 6.776 10.8997 6.776C11.9766 6.7848 12.8922 7.14574 13.617 7.85586C14.3447 8.56599 14.7174 9.54608 14.7291 10.7668C14.732 10.8724 14.6499 10.9575 14.5442 10.9575C14.5472 10.9575 14.5472 10.9575 14.5442 10.9575Z" fill="white"/>
<path d="M11.5452 12.5567C11.5452 12.5567 11.8064 12.5802 11.9472 12.4071L12.2201 12.0638C12.3522 11.8936 12.672 11.785 12.9831 11.9581C13.1562 12.055 13.4702 12.2486 13.6639 12.3924C13.8722 12.545 14.2948 12.8971 14.2977 12.9001C14.5002 13.0703 14.5471 13.3197 14.4092 13.5867C14.4092 13.5867 14.4092 13.5896 14.4092 13.5926C14.2684 13.842 14.0776 14.0768 13.8399 14.2939C13.837 14.2939 13.837 14.2968 13.8341 14.2968C13.6375 14.4612 13.4438 14.5551 13.256 14.5756C13.2325 14.5815 13.2061 14.5815 13.1709 14.5815C13.0887 14.5815 13.0066 14.5697 12.9244 14.5433L12.9185 14.5345C12.6251 14.4524 12.138 14.247 11.3281 13.798C10.7999 13.5075 10.3627 13.2111 9.98999 12.9147C9.79339 12.7592 9.59385 12.5861 9.38844 12.3807C9.38257 12.3748 9.37377 12.366 9.3679 12.3601C9.36203 12.3543 9.35322 12.3455 9.34736 12.3396C9.34149 12.3337 9.33268 12.3249 9.32681 12.319C9.32095 12.3132 9.31214 12.3044 9.30627 12.2985C9.1038 12.0931 8.92774 11.8936 8.77221 11.697C8.47584 11.3272 8.17946 10.8871 7.88896 10.3589C7.43999 9.54603 7.23458 9.05892 7.15242 8.76842L7.14362 8.76255C7.11721 8.68038 7.10547 8.59822 7.10547 8.51606C7.10547 8.48084 7.10547 8.45443 7.11134 8.43096C7.13481 8.24022 7.22871 8.04949 7.39011 7.85288C7.39011 7.84995 7.39304 7.84995 7.39304 7.84701C7.61019 7.60639 7.84494 7.41859 8.09436 7.27774C8.09436 7.27774 8.0973 7.27774 8.10023 7.27774C8.36433 7.13982 8.61375 7.18677 8.78688 7.38924C8.78688 7.38924 9.14195 7.81473 9.29454 8.02308C9.43832 8.21968 9.63199 8.53073 9.72883 8.70386C9.90196 9.01491 9.79339 9.33476 9.62319 9.4668L9.27986 9.7397C9.10673 9.88056 9.13021 10.1417 9.13021 10.1417C9.13021 10.1417 9.63786 12.0726 11.5452 12.5567Z" fill="white"/>
</svg>
