<svg width="56" height="56" viewBox="0 0 56 56" fill="none" xmlns="http://www.w3.org/2000/svg">
<g clip-path="url(#clip0_972_130)">
<path opacity="0.95" fill-rule="evenodd" clip-rule="evenodd" d="M11.6484 -0.0546875C13.7995 -0.0546875 15.9505 -0.0546875 18.1016 -0.0546875C18.3176 0.0706979 18.4816 0.25299 18.5938 0.492188C18.6156 0.957396 18.6703 1.41313 18.7578 1.85938C27.1061 2.73066 35.455 3.58742 43.8047 4.42969C44.1061 2.1412 45.3822 0.737555 47.6328 0.21875C50.0508 -0.0948559 51.7825 0.834832 52.8281 3.00781C53.5698 5.182 53.0958 7.04138 51.4062 8.58594C51.3516 13.7629 51.3333 18.9399 51.3516 24.1172C52.7437 24.0713 54.129 24.1259 55.5078 24.2812C55.6396 24.4317 55.7854 24.5593 55.9453 24.6641C55.9453 34.9453 55.9453 45.2266 55.9453 55.5078C55.763 55.6172 55.6172 55.763 55.5078 55.9453C48.362 55.9453 41.2161 55.9453 34.0703 55.9453C33.8543 55.82 33.6902 55.6376 33.5781 55.3984C33.5052 49.8203 33.5052 44.2422 33.5781 38.6641C33.7708 38.3613 34.0443 38.1973 34.3984 38.1719C35.0172 38.1173 35.637 38.099 36.2578 38.1172C36.2395 33.7421 36.2578 29.3671 36.3125 24.9922C36.3672 24.5 36.6406 24.2266 37.1328 24.1719C39.9763 24.1172 42.8201 24.0989 45.6641 24.1172C45.6823 18.9399 45.6641 13.7629 45.6094 8.58594C44.8923 8.03342 44.3636 7.34071 44.0234 6.50781C35.5727 5.57695 27.1144 4.70195 18.6484 3.88281C18.6666 4.57648 18.6484 5.26918 18.5938 5.96094C18.4661 6.16145 18.302 6.32552 18.1016 6.45312C17.3733 6.50777 16.6441 6.526 15.9141 6.50781C15.9141 7.12761 15.9141 7.74739 15.9141 8.36719C18.2358 8.83035 19.4753 10.2522 19.6328 12.6328C19.4905 14.0878 18.8343 15.2545 17.6641 16.1328C20.8359 17.8645 24.0078 19.5964 27.1797 21.3281C27.8724 21.3645 28.5651 21.4011 29.2578 21.4375C29.4532 21.5234 29.6172 21.6509 29.75 21.8203C29.8752 24.1665 29.9299 26.5181 29.9141 28.875C29.9299 31.2319 29.8752 33.5835 29.75 35.9297C29.6172 36.0991 29.4532 36.2266 29.2578 36.3125C19.6692 36.3855 10.0807 36.3855 0.492188 36.3125C0.25299 36.2004 0.0706979 36.0363 -0.0546875 35.8203C-0.0546875 31.1901 -0.0546875 26.5599 -0.0546875 21.9297C0.0706979 21.7137 0.25299 21.5496 0.492188 21.4375C0.85677 21.4011 1.22136 21.3645 1.58594 21.3281C5.19531 19.5234 8.80469 17.7188 12.4141 15.9141C12.5257 15.8592 12.544 15.7863 12.4688 15.6953C11.5938 14.8202 11.1381 13.763 11.1016 12.5234C11.7578 12.5234 12.4141 12.5234 13.0703 12.5234C13.3292 14.3321 14.35 15.043 16.1328 14.6562C17.4515 13.9814 17.8708 12.9423 17.3906 11.5391C16.707 10.5196 15.7409 10.0639 14.4922 10.1719C14.2968 10.0861 14.1328 9.95846 14 9.78906C13.9453 8.69592 13.9272 7.60217 13.9453 6.50781C13.1788 6.526 12.4132 6.50777 11.6484 6.45312C11.448 6.32552 11.2839 6.16145 11.1562 5.96094C11.0833 4.13802 11.0833 2.31511 11.1562 0.492188C11.2684 0.25299 11.4324 0.0706979 11.6484 -0.0546875ZM13.0703 1.91406C14.2734 1.91406 15.4766 1.91406 16.6797 1.91406C16.6797 2.78906 16.6797 3.66406 16.6797 4.53906C15.4766 4.53906 14.2734 4.53906 13.0703 4.53906C13.0703 3.66406 13.0703 2.78906 13.0703 1.91406ZM47.8516 2.13281C50.0209 2.02089 51.1329 3.04172 51.1875 5.19531C50.7106 7.06526 49.5258 7.81266 47.6328 7.4375C45.7567 6.51208 45.3009 5.10843 46.2656 3.22656C46.7006 2.70967 47.2293 2.34509 47.8516 2.13281ZM48.2891 4.42969C48.7786 4.46253 48.9245 4.6995 48.7266 5.14062C48.0901 5.19818 47.9443 4.9612 48.2891 4.42969ZM47.6328 9.46094C48.2161 9.60677 48.7995 9.60677 49.3828 9.46094C49.3828 14.3464 49.3828 19.2317 49.3828 24.1172C48.7995 24.1172 48.2161 24.1172 47.6328 24.1172C47.6328 19.2317 47.6328 14.3464 47.6328 9.46094ZM14.8203 16.8984C17.5517 18.3737 20.2861 19.8503 23.0234 21.3281C17.3724 21.4011 11.7214 21.4011 6.07031 21.3281C9.01067 19.8763 11.9273 18.3997 14.8203 16.8984ZM1.91406 23.3516C10.5911 23.3516 19.2683 23.3516 27.9453 23.3516C27.9453 27.0339 27.9453 30.7161 27.9453 34.3984C19.2683 34.3984 10.5911 34.3984 1.91406 34.3984C1.91406 30.7161 1.91406 27.0339 1.91406 23.3516ZM38.2266 26.0859C41.6172 26.0859 45.0078 26.0859 48.3984 26.0859C48.3984 30.0964 48.3984 34.1067 48.3984 38.1172C45.0078 38.1172 41.6172 38.1172 38.2266 38.1172C38.2266 34.1067 38.2266 30.0964 38.2266 26.0859ZM50.3672 26.0859C51.5703 26.0859 52.7734 26.0859 53.9766 26.0859C54.0129 27.5097 53.9765 28.9315 53.8672 30.3516C52.7347 29.383 51.5863 28.4351 50.4219 27.5078C50.3673 27.0352 50.349 26.5613 50.3672 26.0859ZM50.3672 30.1328C51.3848 30.8622 52.3692 31.646 53.3203 32.4844C52.3542 33.1589 51.388 33.8333 50.4219 34.5078C50.3672 33.05 50.3489 31.5915 50.3672 30.1328ZM53.8672 34.5078C53.9941 35.9108 54.0123 37.3326 53.9219 38.7734C52.982 38.0026 52.0523 37.2187 51.1328 36.4219C52.0639 35.7989 52.9753 35.1608 53.8672 34.5078ZM50.3672 38.4453C51.3655 39.2425 52.3498 40.0629 53.3203 40.9062C52.3873 41.5657 51.4394 42.2038 50.4766 42.8203C50.3673 41.3638 50.3308 39.9055 50.3672 38.4453ZM35.4922 40.0859C39.7942 40.0859 44.0964 40.0859 48.3984 40.0859C48.3984 44.7161 48.3984 49.3464 48.3984 53.9766C44.0964 53.9766 39.7942 53.9766 35.4922 53.9766C35.4922 49.3464 35.4922 44.7161 35.4922 40.0859ZM53.8672 42.9297C53.9941 44.3326 54.0123 45.7545 53.9219 47.1953C52.9922 46.4114 52.0625 45.6276 51.1328 44.8438C52.0516 44.2033 52.963 43.5653 53.8672 42.9297ZM50.3672 46.8672C51.3655 47.6644 52.3498 48.4847 53.3203 49.3281C52.3873 49.9875 51.4394 50.6256 50.4766 51.2422C50.3673 49.7856 50.3308 48.3273 50.3672 46.8672ZM53.8672 51.3516C53.9757 52.2064 54.0122 53.0814 53.9766 53.9766C52.7734 53.9766 51.5703 53.9766 50.3672 53.9766C50.3739 53.7477 50.4832 53.5837 50.6953 53.4844C51.772 52.7884 52.8292 52.0775 53.8672 51.3516Z" fill="#193A6D"/>
<path opacity="0.878" fill-rule="evenodd" clip-rule="evenodd" d="M47.8516 3.44534C49.435 3.29627 50.073 3.98897 49.7657 5.52346C49.268 6.28195 48.5935 6.48248 47.7422 6.12502C46.7587 5.19063 46.7953 4.29741 47.8516 3.44534ZM48.2891 4.42971C47.9444 4.96122 48.0902 5.1982 48.7266 5.14065C48.9246 4.69953 48.7787 4.46256 48.2891 4.42971Z" fill="#D24A43"/>
<path opacity="0.938" fill-rule="evenodd" clip-rule="evenodd" d="M4.53906 25.1016C5.19531 25.1016 5.85156 25.1016 6.50781 25.1016C6.50781 27.6172 6.50781 30.1328 6.50781 32.6484C5.85156 32.6484 5.19531 32.6484 4.53906 32.6484C4.53906 30.1328 4.53906 27.6172 4.53906 25.1016Z" fill="#193A6D"/>
<path opacity="0.938" fill-rule="evenodd" clip-rule="evenodd" d="M9.24219 25.1016C9.89844 25.1016 10.5547 25.1016 11.2109 25.1016C11.2109 27.6172 11.2109 30.1328 11.2109 32.6484C10.5547 32.6484 9.89844 32.6484 9.24219 32.6484C9.24219 30.1328 9.24219 27.6172 9.24219 25.1016Z" fill="#193A6D"/>
<path opacity="0.938" fill-rule="evenodd" clip-rule="evenodd" d="M13.9453 25.1016C14.6016 25.1016 15.2578 25.1016 15.9141 25.1016C15.9141 27.6172 15.9141 30.1328 15.9141 32.6484C15.2578 32.6484 14.6016 32.6484 13.9453 32.6484C13.9453 30.1328 13.9453 27.6172 13.9453 25.1016Z" fill="#193A6D"/>
<path opacity="0.938" fill-rule="evenodd" clip-rule="evenodd" d="M18.5391 25.1016C19.1953 25.1016 19.8516 25.1016 20.5078 25.1016C20.5078 27.6172 20.5078 30.1328 20.5078 32.6484C19.8516 32.6484 19.1953 32.6484 18.5391 32.6484C18.5391 30.1328 18.5391 27.6172 18.5391 25.1016Z" fill="#193A6D"/>
<path opacity="0.938" fill-rule="evenodd" clip-rule="evenodd" d="M23.2422 25.1016C23.8984 25.1016 24.5547 25.1016 25.2109 25.1016C25.2109 27.6172 25.2109 30.1328 25.2109 32.6484C24.5547 32.6484 23.8984 32.6484 23.2422 32.6484C23.2422 30.1328 23.2422 27.6172 23.2422 25.1016Z" fill="#193A6D"/>
<path opacity="0.949" fill-rule="evenodd" clip-rule="evenodd" d="M29.3672 55.9453C19.7058 55.9453 10.0443 55.9453 0.382812 55.9453C0.273438 55.763 0.127605 55.6172 -0.0546875 55.5078C-0.0546875 50.8411 -0.0546875 46.1745 -0.0546875 41.5078C0.0934154 41.2677 0.312165 41.1036 0.601562 41.0157C10.1536 40.9427 19.7058 40.9427 29.2578 41.0157C29.6038 41.1775 29.8043 41.451 29.8594 41.836C29.9323 46.2474 29.9323 50.6589 29.8594 55.0703C29.81 55.4289 29.646 55.7205 29.3672 55.9453ZM1.91406 42.9297C10.5911 42.9297 19.2683 42.9297 27.9453 42.9297C27.9453 46.612 27.9453 50.2943 27.9453 53.9766C19.2683 53.9766 10.5911 53.9766 1.91406 53.9766C1.91406 50.2943 1.91406 46.612 1.91406 42.9297Z" fill="#193A6D"/>
<path opacity="0.938" fill-rule="evenodd" clip-rule="evenodd" d="M4.53906 44.6797C5.19531 44.6797 5.85156 44.6797 6.50781 44.6797C6.50781 47.1953 6.50781 49.7109 6.50781 52.2266C5.85156 52.2266 5.19531 52.2266 4.53906 52.2266C4.53906 49.7109 4.53906 47.1953 4.53906 44.6797Z" fill="#D24A43"/>
<path opacity="0.938" fill-rule="evenodd" clip-rule="evenodd" d="M9.24219 44.6797C9.89844 44.6797 10.5547 44.6797 11.2109 44.6797C11.2109 47.1953 11.2109 49.7109 11.2109 52.2266C10.5547 52.2266 9.89844 52.2266 9.24219 52.2266C9.24219 49.7109 9.24219 47.1953 9.24219 44.6797Z" fill="#D24A43"/>
<path opacity="0.938" fill-rule="evenodd" clip-rule="evenodd" d="M13.9453 44.6797C14.6016 44.6797 15.2578 44.6797 15.9141 44.6797C15.9141 47.1953 15.9141 49.7109 15.9141 52.2266C15.2578 52.2266 14.6016 52.2266 13.9453 52.2266C13.9453 49.7109 13.9453 47.1953 13.9453 44.6797Z" fill="#D24A43"/>
<path opacity="0.938" fill-rule="evenodd" clip-rule="evenodd" d="M18.5391 44.6797C19.1953 44.6797 19.8516 44.6797 20.5078 44.6797C20.5078 47.1953 20.5078 49.7109 20.5078 52.2266C19.8516 52.2266 19.1953 52.2266 18.5391 52.2266C18.5391 49.7109 18.5391 47.1953 18.5391 44.6797Z" fill="#D24A43"/>
<path opacity="0.938" fill-rule="evenodd" clip-rule="evenodd" d="M23.2422 44.6797C23.8984 44.6797 24.5547 44.6797 25.2109 44.6797C25.2109 47.1953 25.2109 49.7109 25.2109 52.2266C24.5547 52.2266 23.8984 52.2266 23.2422 52.2266C23.2422 49.7109 23.2422 47.1953 23.2422 44.6797Z" fill="#D24A43"/>
</g>
<defs>
<clipPath id="clip0_972_130">
<rect width="56" height="56" fill="white"/>
</clipPath>
</defs>
</svg>
