<svg width="56" height="56" viewBox="0 0 56 56" fill="none" xmlns="http://www.w3.org/2000/svg">
<g clip-path="url(#clip0_972_180)">
<path opacity="0.924" fill-rule="evenodd" clip-rule="evenodd" d="M6.39844 -0.0546875C7.16406 -0.0546875 7.92969 -0.0546875 8.69531 -0.0546875C12.8464 0.925096 14.9975 3.55009 15.1484 7.82031C15.0808 10.5336 14.4793 13.122 13.3438 15.5859C12.9876 15.7969 12.6048 15.8516 12.1953 15.75C11.936 15.5594 11.7901 15.3041 11.7578 14.9844C12.4043 13.3726 12.8965 11.7138 13.2344 10.0078C13.9816 6.9994 13.1613 4.53846 10.7734 2.625C7.77226 1.02322 5.12904 1.47895 2.84375 3.99219C1.98629 5.16083 1.60348 6.47333 1.69531 7.92969C1.77574 10.2931 2.30438 12.5535 3.28125 14.7109C4.4004 17.1755 5.82227 19.4358 7.54688 21.4922C8.59766 20.2227 9.5638 18.8919 10.4453 17.5C11.2028 17.2184 11.6769 17.4735 11.8672 18.2656C10.8481 20.2688 9.53562 22.0554 7.92969 23.625C7.63802 23.698 7.34636 23.698 7.05469 23.625C3.27372 19.6178 0.903932 14.8964 -0.0546875 9.46094C-0.0546875 8.40364 -0.0546875 7.34636 -0.0546875 6.28906C0.795115 2.85072 2.94616 0.736134 6.39844 -0.0546875Z" fill="#D24A43"/>
<path opacity="0.925" fill-rule="evenodd" clip-rule="evenodd" d="M47.0859 -0.0546875C47.9609 -0.0546875 48.8359 -0.0546875 49.7109 -0.0546875C53.0651 0.747396 55.1433 2.82552 55.9453 6.17969C55.9453 7.27344 55.9453 8.36719 55.9453 9.46094C54.9963 14.8409 52.6629 19.5257 48.9453 23.5156C48.449 23.7675 47.9932 23.7128 47.5781 23.3516C46.1893 21.7941 45.0044 20.0987 44.0234 18.2656C44.2121 17.4605 44.686 17.2053 45.4453 17.5C46.3713 18.8598 47.3375 20.1905 48.3437 21.4922C50.9382 18.4552 52.7611 14.9916 53.8125 11.1016C54.2145 9.40086 54.2874 7.68731 54.0312 5.96094C52.7348 2.58757 50.3103 1.22038 46.7578 1.85938C44.5137 2.64528 43.11 4.19476 42.5469 6.50781C42.3659 8.48537 42.5846 10.4177 43.2031 12.3047C43.4987 13.2051 43.8085 14.0982 44.1328 14.9844C43.9696 15.6863 43.5321 15.9415 42.8203 15.75C42.6927 15.6224 42.5651 15.4948 42.4375 15.3672C41.1304 12.4772 40.5835 9.45115 40.7969 6.28906C41.5275 2.80585 43.6239 0.691273 47.0859 -0.0546875Z" fill="#193A6D"/>
<path opacity="0.925" fill-rule="evenodd" clip-rule="evenodd" d="M47.9609 4.10156C50.2931 4.15502 51.6056 5.33992 51.8984 7.65625C51.5425 10.2044 50.0841 11.3346 47.5234 11.0469C45.4514 10.3504 44.5946 8.91031 44.9531 6.72656C45.4386 5.2373 46.4411 4.3623 47.9609 4.10156ZM48.0703 5.85156C47.6325 6.00785 47.2497 6.26306 46.9218 6.61719C46.4017 7.65735 46.6022 8.51412 47.5234 9.1875C48.9369 9.59637 49.8119 9.08595 50.1484 7.65625C49.9466 6.48826 49.2539 5.88669 48.0703 5.85156Z" fill="#193A6D"/>
<path opacity="0.93" fill-rule="evenodd" clip-rule="evenodd" d="M6.61719 4.21096C9.73194 4.02618 11.172 5.48451 10.9375 8.58596C10.1701 10.583 8.73001 11.4033 6.61719 11.0469C4.96273 10.5224 4.08773 9.39218 3.99219 7.65627C4.14594 5.94006 5.02094 4.79162 6.61719 4.21096ZM7.49219 5.85158C5.95033 6.27391 5.4946 7.22182 6.125 8.69533C7.07292 9.71616 8.02083 9.71616 8.96875 8.69533C9.59789 7.15701 9.1057 6.2091 7.49219 5.85158Z" fill="#D24A43"/>
<path opacity="0.9" fill-rule="evenodd" clip-rule="evenodd" d="M18.3203 7.05466C19.0503 7.03648 19.7795 7.05471 20.5078 7.10935C21.0075 7.38732 21.1716 7.80658 20.9999 8.36716C20.8723 8.49477 20.7448 8.62237 20.6171 8.74998C19.8151 8.8229 19.0129 8.8229 18.2109 8.74998C17.4649 8.14031 17.5014 7.57521 18.3203 7.05466Z" fill="#193A6D"/>
<path opacity="0.912" fill-rule="evenodd" clip-rule="evenodd" d="M23.0235 7.05468C24.2272 7.03647 25.4303 7.0547 26.6329 7.10936C27.1626 7.30991 27.3632 7.69273 27.2345 8.2578C27.1433 8.49478 26.9793 8.65885 26.7423 8.74999C25.4662 8.82291 24.1902 8.82291 22.9141 8.74999C22.5843 8.5828 22.4385 8.30936 22.4766 7.92968C22.4817 7.52428 22.664 7.23261 23.0235 7.05468Z" fill="#193A6D"/>
<path opacity="0.914" fill-rule="evenodd" clip-rule="evenodd" d="M29.2577 7.05468C30.4614 7.03647 31.6645 7.0547 32.8671 7.10936C33.3838 7.37573 33.5479 7.79499 33.3593 8.36718C33.3046 8.56769 33.177 8.6953 32.9765 8.74999C31.7004 8.82291 30.4244 8.82291 29.1484 8.74999C28.5739 8.41244 28.4646 7.9567 28.8202 7.3828C28.9735 7.27116 29.1194 7.16179 29.2577 7.05468Z" fill="#193A6D"/>
<path opacity="0.9" fill-rule="evenodd" clip-rule="evenodd" d="M35.3828 7.05466C36.1129 7.03648 36.8421 7.05471 37.5703 7.10935C38.3979 7.61028 38.4345 8.15715 37.6797 8.74998C36.8776 8.8229 36.0755 8.8229 35.2734 8.74998C34.6756 8.1412 34.7121 7.57609 35.3828 7.05466Z" fill="#193A6D"/>
<path opacity="0.91" fill-rule="evenodd" clip-rule="evenodd" d="M7.16407 25.4297C7.57497 25.3828 7.95778 25.4556 8.3125 25.6484C8.46437 26.1813 8.51906 26.7282 8.47657 27.2891C9.64064 27.0152 10.1693 27.4527 10.0625 28.6016C9.92972 28.771 9.76566 28.8985 9.57032 28.9844C8.84114 29.0573 8.11199 29.0573 7.38282 28.9844C7.05013 28.9237 6.84961 28.7232 6.78125 28.3828C6.70833 27.5808 6.70833 26.7786 6.78125 25.9766C6.89033 25.7772 7.01793 25.5948 7.16407 25.4297Z" fill="#193A6D"/>
<path opacity="0.914" fill-rule="evenodd" clip-rule="evenodd" d="M12.3047 27.2891C13.6906 27.2708 15.0761 27.2891 16.461 27.3438C16.8741 27.667 17.0016 28.0862 16.8438 28.6016C16.711 28.771 16.5469 28.8985 16.3516 28.9844C15.0391 29.0573 13.7266 29.0573 12.4141 28.9844C11.5775 28.4656 11.5411 27.9005 12.3047 27.2891Z" fill="#193A6D"/>
<path opacity="0.916" fill-rule="evenodd" clip-rule="evenodd" d="M19.086 27.2891C20.4719 27.2708 21.8574 27.2891 23.2423 27.3438C23.6554 27.6622 23.783 28.0814 23.6251 28.6016C23.4923 28.771 23.3282 28.8985 23.1329 28.9844C21.8204 29.0573 20.5079 29.0573 19.1954 28.9844C18.3636 28.4697 18.3272 27.9046 19.086 27.2891Z" fill="#193A6D"/>
<path opacity="0.918" fill-rule="evenodd" clip-rule="evenodd" d="M25.8671 27.2891C27.253 27.2708 28.6385 27.2891 30.0234 27.3438C30.7694 27.9337 30.7329 28.4806 29.914 28.9844C28.6015 29.0573 27.289 29.0573 25.9765 28.9844C25.4598 28.7181 25.2958 28.2987 25.4843 27.7266C25.6048 27.5681 25.7325 27.4223 25.8671 27.2891Z" fill="#193A6D"/>
<path opacity="0.915" fill-rule="evenodd" clip-rule="evenodd" d="M32.6484 27.2891C34.0343 27.2708 35.4197 27.2891 36.8046 27.3438C37.5577 27.9415 37.5213 28.4884 36.6953 28.9844C35.3828 29.0573 34.0703 29.0573 32.7578 28.9844C32.2411 28.7181 32.077 28.2987 32.2656 27.7266C32.4161 27.5948 32.5436 27.449 32.6484 27.2891Z" fill="#193A6D"/>
<path opacity="0.912" fill-rule="evenodd" clip-rule="evenodd" d="M39.4296 27.2891C40.8155 27.2708 42.201 27.2891 43.5859 27.3438C44.171 27.7355 44.2623 28.2277 43.8593 28.8203C43.7426 28.8959 43.615 28.9506 43.4765 28.9844C42.164 29.0573 40.8515 29.0573 39.539 28.9844C39.0223 28.7181 38.8583 28.2987 39.0468 27.7266C39.1973 27.5948 39.3248 27.449 39.4296 27.2891Z" fill="#193A6D"/>
<path opacity="0.91" fill-rule="evenodd" clip-rule="evenodd" d="M46.2109 27.289C47.0138 27.2709 47.8158 27.289 48.6171 27.3437C48.7736 27.3946 48.9012 27.4858 48.9999 27.6172C49.1714 28.4835 49.2079 29.3585 49.1093 30.2422C49.0016 30.6978 48.7099 30.9166 48.2343 30.8984C47.987 30.9051 47.7683 30.8321 47.5781 30.6797C47.4263 30.1468 47.3716 29.5999 47.414 29.039C47.0476 29.0571 46.683 29.0388 46.3203 28.9843C45.8036 28.718 45.6395 28.2987 45.8281 27.7265C45.9786 27.5947 46.1061 27.4489 46.2109 27.289Z" fill="#193A6D"/>
<path opacity="0.924" fill-rule="evenodd" clip-rule="evenodd" d="M8.03906 55.9453C7.71094 55.9453 7.38281 55.9453 7.05469 55.9453C3.28865 51.9132 0.918865 47.1736 -0.0546875 41.7266C-0.0546875 40.6692 -0.0546875 39.612 -0.0546875 38.5547C0.505647 35.9256 2.00044 34.0116 4.42969 32.8125C7.98435 31.5273 11.0286 32.2748 13.5625 35.0547C14.9903 37.0147 15.5007 39.2022 15.0938 41.6172C14.8399 43.8181 14.2383 45.9145 13.2891 47.9062C12.4955 48.2936 11.9852 48.0749 11.7578 47.25C12.4043 45.6382 12.8965 43.9795 13.2344 42.2734C13.942 39.5055 13.2676 37.1539 11.2109 35.2187C8.1352 33.2529 5.34614 33.5993 2.84375 36.2578C1.74589 37.8813 1.38131 39.6677 1.75 41.6172C2.6003 46.1974 4.5326 50.2442 7.54688 53.7578C8.59766 52.4883 9.5638 51.1575 10.4453 49.7656C11.1925 49.4893 11.6664 49.7445 11.8672 50.5312C10.827 52.5013 9.551 54.306 8.03906 55.9453Z" fill="#193A6D"/>
<path opacity="0.924" fill-rule="evenodd" clip-rule="evenodd" d="M55.9453 38.4453C55.9453 39.5391 55.9453 40.6328 55.9453 41.7266C54.9853 47.2198 52.5791 51.9594 48.7266 55.9453C48.4714 55.9453 48.2161 55.9453 47.9609 55.9453C46.3784 54.3434 45.0659 52.5387 44.0234 50.5312C44.2121 49.7261 44.686 49.471 45.4453 49.7656C46.3713 51.1254 47.3375 52.4561 48.3437 53.7578C51.1966 50.4218 53.0924 46.5936 54.0312 42.2734C54.8458 39.0632 53.9161 36.5294 51.2422 34.6719C47.9418 33.2317 45.2621 33.9792 43.2031 36.9141C42.8915 37.501 42.6728 38.1207 42.5469 38.7734C42.3697 40.6322 42.552 42.4551 43.0937 44.2422C43.419 45.2545 43.7653 46.2571 44.1328 47.25C43.9696 47.952 43.5321 48.2071 42.8203 48.0156C42.6927 47.888 42.5651 47.7605 42.4375 47.6328C41.1304 44.7428 40.5835 41.7168 40.7969 38.5547C41.5078 35.073 43.6042 32.9766 47.0859 32.2656C50.4322 31.8703 53.0389 33.0553 54.9062 35.8203C55.3742 36.661 55.7204 37.536 55.9453 38.4453Z" fill="#D24A43"/>
<path opacity="0.926" fill-rule="evenodd" clip-rule="evenodd" d="M47.9609 36.3672C50.2951 36.4228 51.6076 37.6077 51.8984 39.9219C51.541 42.4705 50.0827 43.6008 47.5234 43.3125C45.4514 42.6159 44.5946 41.1759 44.9531 38.9922C45.4386 37.5029 46.4412 36.6279 47.9609 36.3672ZM48.0703 38.1172C47.6326 38.2735 47.2498 38.5287 46.9219 38.8828C46.4018 39.923 46.6023 40.7797 47.5234 41.4531C48.9351 41.8646 49.8101 41.3541 50.1484 39.9219C49.9466 38.7539 49.2539 38.1523 48.0703 38.1172Z" fill="#D24A43"/>
<path opacity="0.928" fill-rule="evenodd" clip-rule="evenodd" d="M6.72651 36.4765C9.78671 36.3466 11.1903 37.8049 10.9375 40.8515C10.384 42.4602 9.25378 43.3352 7.54683 43.4765C4.91681 43.1077 3.7866 41.613 4.1562 38.9922C4.57045 37.6845 5.42723 36.846 6.72651 36.4765ZM6.94526 38.2265C5.59211 39.0992 5.44628 40.1383 6.50776 41.3437C7.66407 41.9432 8.5573 41.6698 9.18745 40.5234C9.38621 38.8445 8.63882 38.0789 6.94526 38.2265Z" fill="#193A6D"/>
<path opacity="0.894" fill-rule="evenodd" clip-rule="evenodd" d="M18.2109 47.0859C18.9774 47.0678 19.743 47.0859 20.5078 47.1406C21.0245 47.4069 21.1885 47.8263 21 48.3984C20.8672 48.5678 20.7031 48.6954 20.5078 48.7812C19.7422 48.8542 18.9765 48.8542 18.2109 48.7812C17.4906 48.2168 17.4906 47.6517 18.2109 47.0859Z" fill="#193A6D"/>
<path opacity="0.911" fill-rule="evenodd" clip-rule="evenodd" d="M23.0234 47.086C24.2635 47.0677 25.5032 47.086 26.7422 47.1406C27.2191 47.3841 27.3832 47.7669 27.2343 48.2891C27.1432 48.5261 26.9792 48.6902 26.7422 48.7813C25.4661 48.8542 24.1901 48.8542 22.914 48.7813C22.3058 48.1636 22.3422 47.5985 23.0234 47.086Z" fill="#193A6D"/>
<path opacity="0.912" fill-rule="evenodd" clip-rule="evenodd" d="M29.1485 47.086C30.3886 47.0677 31.6282 47.086 32.8672 47.1406C33.3839 47.407 33.548 47.8263 33.3594 48.3985C33.2318 48.5261 33.1042 48.6536 32.9766 48.7813C31.7005 48.8542 30.4245 48.8542 29.1485 48.7813C28.5942 48.455 28.4665 47.9993 28.7657 47.4141C28.8909 47.2898 29.0185 47.1805 29.1485 47.086Z" fill="#193A6D"/>
<path opacity="0.894" fill-rule="evenodd" clip-rule="evenodd" d="M35.3828 47.0859C36.2336 47.0387 37.0722 47.0934 37.8984 47.25C38.3697 47.8428 38.2968 48.3532 37.6797 48.7813C36.8296 48.8831 35.9911 48.8467 35.1641 48.6719C34.6778 48.0591 34.7507 47.5304 35.3828 47.0859Z" fill="#193A6D"/>
</g>
<defs>
<clipPath id="clip0_972_180">
<rect width="56" height="56" fill="white"/>
</clipPath>
</defs>
</svg>
