<svg width="18" height="19" viewBox="0 0 18 19" fill="none" xmlns="http://www.w3.org/2000/svg">
<path fill-rule="evenodd" clip-rule="evenodd" d="M2.78037 8.88286C2.48085 8.9241 2.25 9.18465 2.25 9.49992C2.25 9.84385 2.52473 10.1227 2.86364 10.1227H13.65L9.75352 14.061L9.69396 14.1307C9.51522 14.3741 9.53432 14.7201 9.75172 14.9417C9.99087 15.1854 10.3794 15.1862 10.6195 14.9435L15.5608 9.94966C15.5902 9.92105 15.6169 9.8895 15.6402 9.85546C15.8075 9.61228 15.7839 9.27494 15.5695 9.05829L10.6195 4.05645L10.5505 3.9963C10.3099 3.81594 9.96907 3.83678 9.75169 4.05835C9.51256 4.30206 9.5134 4.69636 9.75356 4.93903L13.6509 8.87718H2.86364L2.78037 8.88286Z" fill="white"/>
</svg>
