<svg width="56" height="56" viewBox="0 0 56 56" fill="none" xmlns="http://www.w3.org/2000/svg">
<g clip-path="url(#clip0_972_111)">
<path opacity="0.936" fill-rule="evenodd" clip-rule="evenodd" d="M27.5078 -0.0546875C27.7995 -0.0546875 28.0911 -0.0546875 28.3828 -0.0546875C32.8081 1.92036 37.2559 3.87088 41.7265 5.79688C42.0997 5.95596 42.4461 6.15649 42.7656 6.39844C42.9468 11.8217 42.9833 17.2539 42.875 22.6953C42.56 25.4948 41.3387 27.8099 39.2109 29.6406C35.7839 32.1198 32.3567 34.5989 28.9297 37.0781C28.2734 37.4427 27.6172 37.4427 26.9609 37.0781C23.5339 34.5989 20.1067 32.1198 16.6797 29.6406C14.5519 27.8099 13.3306 25.4948 13.0156 22.6953C12.9073 17.2539 12.9437 11.8217 13.125 6.39844C13.3712 6.19311 13.6446 6.02905 13.9453 5.90625C18.4887 3.9438 23.0096 1.95682 27.5078 -0.0546875ZM27.7265 2.02344C27.992 2.02595 28.2472 2.08064 28.4922 2.1875C32.6074 4.00282 36.7272 5.80751 40.8515 7.60156C40.9792 12.5595 40.9973 17.5178 40.9062 22.4766C40.6354 24.7502 39.6328 26.6278 37.8984 28.1094C34.5807 30.4974 31.263 32.8855 27.9453 35.2734C24.6276 32.8855 21.3098 30.4974 17.9922 28.1094C16.2578 26.6278 15.2552 24.7502 14.9843 22.4766C14.9297 17.5184 14.9114 12.5601 14.9297 7.60156C19.2295 5.80431 23.4951 3.94494 27.7265 2.02344Z" fill="#193A6D"/>
<path opacity="0.937" fill-rule="evenodd" clip-rule="evenodd" d="M27.5079 3.99221C27.8018 3.97426 28.0935 3.9925 28.3829 4.0469C31.8099 5.5417 35.2371 7.03648 38.6641 8.53127C38.8695 8.70003 39.0336 8.90055 39.1563 9.13284C39.2293 13.5808 39.2293 18.0286 39.1563 22.4766C38.9297 24.2243 38.1459 25.6644 36.8048 26.7969C34.1798 28.6927 31.5548 30.5886 28.9298 32.4844C28.2735 32.9949 27.6173 32.9949 26.961 32.4844C24.336 30.5886 21.711 28.6927 19.086 26.7969C17.7448 25.6644 16.9611 24.2243 16.7344 22.4766C16.6264 17.9466 16.6628 13.4257 16.8438 8.91409C17.1808 8.60859 17.5636 8.37162 17.9923 8.20315C21.1979 6.85004 24.3698 5.44639 27.5079 3.99221ZM27.7266 6.07034C24.7335 7.42977 21.7257 8.77873 18.7032 10.1172C18.6302 14.1277 18.6302 18.138 18.7032 22.1485C18.8536 23.4157 19.4187 24.4547 20.3985 25.2656C22.9293 27.0491 25.445 28.8538 27.9454 30.6797C30.4458 28.8538 32.9614 27.0491 35.4923 25.2656C36.472 24.4547 37.0372 23.4157 37.1876 22.1485C37.2605 18.138 37.2605 14.1277 37.1876 10.1172C34.0748 8.66074 30.921 7.31178 27.7266 6.07034Z" fill="#D24A43"/>
<path opacity="0.92" fill-rule="evenodd" clip-rule="evenodd" d="M33.1954 11.1016C34.2516 11.0095 34.6708 11.4834 34.4532 12.5234C31.9236 16.3981 29.3532 20.2444 26.7422 24.0625C26.3047 24.2813 25.8672 24.2813 25.4297 24.0625C24.1355 23.0599 22.8412 22.0573 21.5469 21.0547C21.1745 19.8956 21.5937 19.4035 22.8047 19.5781C23.7975 20.3388 24.8002 21.0862 25.8126 21.8203C28.1001 18.4485 30.3605 15.0579 32.5938 11.6484C32.783 11.4404 32.9835 11.2581 33.1954 11.1016Z" fill="#D24A43"/>
<path opacity="0.939" fill-rule="evenodd" clip-rule="evenodd" d="M23.8984 55.9453C20.0339 55.9453 16.1692 55.9453 12.3047 55.9453C11.7538 55.6671 11.371 55.2296 11.1562 54.6328C11.0833 51.7891 11.0833 48.9453 11.1562 46.1016C11.2261 45.8159 11.3538 45.5606 11.5391 45.336C9.27705 43.0557 7.03486 40.7588 4.8125 38.4453C4.31943 37.6783 3.88193 36.8761 3.5 36.0391C2.30199 33.4075 1.1171 30.7825 -0.0546875 28.1641C-0.0546875 27.6536 -0.0546875 27.1433 -0.0546875 26.6328C0.979977 24.4469 2.58415 23.8817 4.75781 24.9375C5.07194 25.215 5.34538 25.5249 5.57812 25.8672C6.27912 27.524 7.00828 29.1647 7.76562 30.7891C9.47651 29.8702 11.1354 29.9614 12.7422 31.0625C14.7504 32.8335 17.0108 34.219 19.5234 35.2188C21.5345 36.7047 22.7559 38.6918 23.1875 41.1797C23.3271 42.342 23.3818 43.5086 23.3516 44.6797C24.3084 44.7802 24.9099 45.2907 25.1562 46.211C25.2292 48.9818 25.2292 51.7527 25.1562 54.5235C24.9794 55.2281 24.5602 55.702 23.8984 55.9453ZM2.67969 26.3047C3.15907 26.2881 3.54188 26.4704 3.82812 26.8516C4.5786 28.5562 5.30777 30.2698 6.01562 31.9922C6.44364 32.8855 6.95406 33.7239 7.54688 34.5078C9.31511 36.2761 11.0833 38.0443 12.8516 39.8125C13.9636 40.013 14.4192 39.5574 14.2188 38.4453C12.5449 36.662 10.8313 34.912 9.07812 33.1953C8.97181 32.9979 8.8442 32.8156 8.69531 32.6485C9.4275 32.0469 10.2296 31.9558 11.1016 32.375C12.1641 33.2555 13.2579 34.094 14.3828 34.8907C15.9175 35.6943 17.4487 36.4965 18.9766 37.2969C20.3674 38.6585 21.1512 40.3174 21.3281 42.2735C21.3828 43.0747 21.401 43.8768 21.3828 44.6797C18.8304 44.698 16.2784 44.6797 13.7266 44.625C11.1133 42.0848 8.57943 39.4781 6.125 36.8047C4.73958 33.8152 3.35417 30.8255 1.96875 27.836C1.76862 27.1067 2.0056 26.5962 2.67969 26.3047ZM13.0703 46.6485C16.4609 46.6485 19.8516 46.6485 23.2422 46.6485C23.2422 49.0911 23.2422 51.5339 23.2422 53.9766C19.8516 53.9766 16.4609 53.9766 13.0703 53.9766C13.0703 51.5339 13.0703 49.0911 13.0703 46.6485Z" fill="#193A6D"/>
<path opacity="0.939" fill-rule="evenodd" clip-rule="evenodd" d="M55.9453 26.5234C55.9453 27.0703 55.9453 27.6172 55.9453 28.1641C54.7888 30.7005 53.6404 33.2525 52.5 35.8203C52.0817 36.7302 51.6077 37.6052 51.0782 38.4453C48.8558 40.7588 46.6136 43.0557 44.3516 45.3359C44.5369 45.5606 44.6645 45.8159 44.7344 46.1016C44.8074 48.9453 44.8074 51.7891 44.7344 54.6328C44.5227 55.2269 44.1398 55.6644 43.586 55.9453C39.7214 55.9453 35.8568 55.9453 31.9922 55.9453C31.3305 55.7019 30.9113 55.228 30.7344 54.5234C30.6614 51.7526 30.6614 48.9817 30.7344 46.2109C30.9882 45.2821 31.5897 44.7718 32.5391 44.6797C32.1819 41.2117 33.2027 38.2404 35.6016 35.7656C35.8568 35.5833 36.112 35.4011 36.3672 35.2187C38.9356 34.2093 41.2324 32.7874 43.2578 30.9531C44.8494 29.9426 46.4717 29.8879 48.125 30.7891C48.8823 29.1646 49.6115 27.524 50.3125 25.8672C51.5449 24.2332 53.0579 23.9233 54.8516 24.9375C55.3325 25.3977 55.6972 25.9265 55.9453 26.5234ZM52.7735 26.3047C53.7585 26.3603 54.1413 26.8708 53.9219 27.8359C52.8282 30.2422 51.7344 32.6484 50.6407 35.0547C50.2497 35.9464 49.7758 36.785 49.2188 37.5703C46.8672 39.9219 44.5157 42.2734 42.1641 44.625C39.6123 44.6797 37.0602 44.6979 34.5078 44.6797C34.2322 42.1707 34.8338 39.9103 36.3125 37.8984C36.6263 37.548 36.9726 37.2381 37.3516 36.9687C40.1182 35.8743 42.5974 34.3431 44.7891 32.375C45.6593 31.9605 46.4614 32.0517 47.1953 32.6484C47.0465 32.8155 46.9188 32.9979 46.8125 33.1953C45.0594 34.9119 43.3458 36.6619 41.6719 38.4453C41.5326 39.6189 42.0247 40.0382 43.1485 39.7031C45.0293 37.8588 46.8704 35.9813 48.6719 34.0703C49.1005 33.3955 49.5016 32.7028 49.875 31.9922C50.5829 30.2697 51.312 28.5562 52.0625 26.8516C52.2599 26.5971 52.497 26.4149 52.7735 26.3047ZM32.6485 46.6484C36.0391 46.6484 39.4297 46.6484 42.8203 46.6484C42.8203 49.0911 42.8203 51.5339 42.8203 53.9766C39.4297 53.9766 36.0391 53.9766 32.6485 53.9766C32.6485 51.5339 32.6485 49.0911 32.6485 46.6484Z" fill="#193A6D"/>
<path opacity="0.897" fill-rule="evenodd" clip-rule="evenodd" d="M19.0859 49.3828C19.7068 49.3647 20.3266 49.3829 20.9453 49.4375C21.4891 49.8233 21.6167 50.3155 21.3281 50.9141C21.1839 51.1314 20.9834 51.259 20.7266 51.2969C20.1336 51.3887 19.5503 51.3522 18.9766 51.1875C18.3711 50.55 18.4075 49.9484 19.0859 49.3828Z" fill="#D24A43"/>
<path opacity="0.896" fill-rule="evenodd" clip-rule="evenodd" d="M34.9453 49.3828C35.5661 49.3647 36.186 49.3829 36.8047 49.4375C37.3485 49.8233 37.476 50.3155 37.1875 50.9141C37.0432 51.1314 36.8428 51.259 36.5859 51.2969C35.993 51.3887 35.4097 51.3522 34.8359 51.1875C34.2304 50.55 34.2669 49.9484 34.9453 49.3828Z" fill="#D24A43"/>
</g>
<defs>
<clipPath id="clip0_972_111">
<rect width="56" height="56" fill="white"/>
</clipPath>
</defs>
</svg>
