<svg width="56" height="56" viewBox="0 0 56 56" fill="none" xmlns="http://www.w3.org/2000/svg">
<g clip-path="url(#clip0_972_161)">
<path opacity="0.938" fill-rule="evenodd" clip-rule="evenodd" d="M55.9453 39.2109C55.9453 41.0339 55.9453 42.8567 55.9453 44.6797C55.664 45.2054 55.2265 45.5518 54.6328 45.7187C53.3916 45.7371 52.1521 45.7918 50.9141 45.8828C49.5591 47.9648 47.6268 49.0585 45.1172 49.1641C41.3438 48.8536 39.0833 46.8485 38.3359 43.1484C34.9817 43.1484 31.6276 43.1484 28.2734 43.1484C27.8045 46.2973 26.0181 48.2478 22.9141 49C19.7525 49.4664 17.328 48.3543 15.6406 45.6641C13.6691 48.6185 10.953 49.6576 7.49219 48.7812C4.85525 47.8033 3.324 45.9258 2.89844 43.1484C1.49819 43.3059 0.51381 42.7591 -0.0546875 41.5078C-0.0546875 40.0495 -0.0546875 38.5911 -0.0546875 37.1328C0.225298 36.2884 0.808632 35.7598 1.69531 35.5469C2.9365 35.5285 4.17608 35.4738 5.41406 35.3828C6.05208 34.1067 6.69011 32.8308 7.32812 31.5547C7.42684 31.4233 7.55444 31.3321 7.71094 31.2812C8.95052 31.2083 10.1901 31.2083 11.4297 31.2812C12.1589 31.8281 12.1589 32.375 11.4297 32.9219C10.4818 32.9583 9.53386 32.9948 8.58594 33.0312C8.17093 33.8066 7.76989 34.5904 7.38281 35.3828C11.9397 35.5104 16.4969 35.5286 21.0547 35.4375C20.6397 34.6621 20.2386 33.8783 19.8516 33.0859C17.9203 32.9948 15.988 32.9401 14.0547 32.9219C13.538 32.6555 13.3739 32.2362 13.5625 31.6641C13.6953 31.4946 13.8593 31.3671 14.0547 31.2812C15.1484 31.263 16.2422 31.2448 17.3359 31.2266C18.5128 31.2107 19.6795 31.2654 20.8359 31.3906C20.927 31.4817 21.0183 31.5729 21.1094 31.6641C21.7335 32.9304 22.3715 34.1882 23.0234 35.4375C25.32 35.4922 27.6169 35.5104 29.9141 35.4922C29.8599 26.004 29.9146 16.5249 30.0781 7.05468C30.2584 6.92157 30.4589 6.83042 30.6797 6.78124C34.3275 6.68375 37.9733 6.72022 41.6172 6.89061C42.4662 6.97741 43.3046 7.12324 44.1328 7.32811C44.6495 7.59447 44.8136 8.01374 44.625 8.58593C44.4205 8.86138 44.147 9.00722 43.8047 9.02343C42.5423 8.75194 41.2663 8.58787 39.9766 8.53124C37.206 8.47655 34.4352 8.45833 31.6641 8.47655C31.6641 19.4505 31.6641 30.4245 31.6641 41.3984C33.888 41.3984 36.112 41.3984 38.3359 41.3984C39.0697 37.7216 41.3119 35.7528 45.0625 35.4922C47.2404 35.5057 49.0268 36.3442 50.4219 38.0078C50.4271 35.8147 50.5001 33.6272 50.6406 31.4453C51.0624 30.0936 51.9555 29.2551 53.3203 28.9297C53.3635 27.8287 53.3088 26.735 53.1562 25.6484C52.5409 24.8506 51.8847 24.085 51.1875 23.3516C50.7865 19.5236 50.3855 15.6955 49.9844 11.8672C48.9295 11.0751 47.781 10.437 46.5391 9.95311C45.9981 9.48277 45.9617 8.97235 46.4297 8.42186C46.6762 8.29603 46.9314 8.25957 47.1953 8.31249C48.8113 8.94741 50.2879 9.80419 51.625 10.8828C52.0692 14.7414 52.4702 18.606 52.8281 22.4766C53.2619 23.0198 53.7358 23.5303 54.25 24.0078C54.6243 24.5377 54.8795 25.121 55.0156 25.7578C55.0339 29.951 55.0886 34.1437 55.1797 38.3359C55.519 38.5651 55.7741 38.8568 55.9453 39.2109ZM53.2109 30.7891C53.32 33.1764 53.3565 35.5826 53.3203 38.0078C52.9558 38.0078 52.5911 38.0078 52.2266 38.0078C52.2083 36.0387 52.2266 34.07 52.2812 32.1016C52.4594 31.5601 52.7693 31.1226 53.2109 30.7891ZM2.02344 37.2422C3.00849 37.224 3.99287 37.2422 4.97656 37.2969C3.8397 38.3894 3.14699 39.7202 2.89844 41.2891C2.28086 41.5359 1.86158 41.3536 1.64062 40.7422C1.5677 39.7942 1.5677 38.8464 1.64062 37.8984C1.68698 37.6223 1.81459 37.4035 2.02344 37.2422ZM8.91406 37.2422C11.9077 37.1433 13.8217 38.5288 14.6562 41.3984C14.8529 44.9388 13.194 46.944 9.67969 47.4141C6.10783 46.9232 4.44897 44.8816 4.70312 41.2891C5.27954 39.0626 6.6832 37.7137 8.91406 37.2422ZM14.2734 37.3516C15.1291 37.2251 16.0041 37.2068 16.8984 37.2969C16.4134 37.7757 15.9941 38.3044 15.6406 38.8828C15.2808 38.2859 14.825 37.7756 14.2734 37.3516ZM20.8359 37.2422C24.2617 37.2047 26.194 38.8817 26.6328 42.2734C26.3539 45.3778 24.6586 47.0914 21.5469 47.4141C19.1633 47.2438 17.5592 46.0406 16.7344 43.8047C16.1472 41.336 16.8947 39.3855 18.9766 37.9531C19.5803 37.637 20.2 37.4 20.8359 37.2422ZM26.1953 37.3516C27.4153 37.2427 28.6549 37.2063 29.9141 37.2422C29.9141 38.6276 29.9141 40.013 29.9141 41.3984C29.3672 41.3984 28.8203 41.3984 28.2734 41.3984C28.1271 39.7565 27.4344 38.4076 26.1953 37.3516ZM44.3516 37.2422C47.4075 37.1377 49.3216 38.5596 50.0938 41.5078C50.2049 44.9678 48.546 46.9365 45.1172 47.4141C42.0544 47.0492 40.3408 45.3356 39.9766 42.2734C40.2397 39.5326 41.698 37.8554 44.3516 37.2422ZM51.4609 39.7578C52.3999 39.7231 53.3296 39.7597 54.25 39.8672C54.3398 41.2427 54.3216 42.6099 54.1953 43.9687C53.3567 44.0417 52.5183 44.0417 51.6797 43.9687C52.0068 42.5482 51.9339 41.1446 51.4609 39.7578Z" fill="#193A6D"/>
<path opacity="0.942" fill-rule="evenodd" clip-rule="evenodd" d="M34.6171 13.5078C36.0394 13.4896 37.4613 13.5078 38.8827 13.5625C39.1518 13.722 39.3888 13.9225 39.5937 14.1641C39.773 17.0375 39.8095 19.9176 39.703 22.8047C39.3072 23.7227 38.6328 24.0325 37.6796 23.7344C37.3332 23.5339 37.0598 23.2605 36.8593 22.9141C35.8385 20.4349 34.8176 17.9558 33.7968 15.4766C33.5933 14.6078 33.8668 13.9516 34.6171 13.5078ZM35.6015 15.2578C36.3797 17.1075 37.1635 18.9668 37.953 20.836C38.0077 18.9405 38.026 17.0447 38.0077 15.1485C37.1853 15.1129 36.3833 15.1493 35.6015 15.2578Z" fill="#D24A43"/>
<path opacity="0.946" fill-rule="evenodd" clip-rule="evenodd" d="M41.3985 13.5078C43.5498 13.4896 45.7009 13.5078 47.8516 13.5625C48.4123 13.7885 48.7221 14.2078 48.7813 14.8203C49.0183 17.263 49.2552 19.7058 49.4923 22.1485C49.5143 23.129 49.0404 23.694 48.0704 23.8438C45.9923 23.9167 43.9141 23.9167 41.836 23.8438C41.3399 23.7843 40.9571 23.5474 40.6876 23.1328C40.5073 20.2256 40.4708 17.309 40.5782 14.3828C40.763 13.9977 41.0365 13.706 41.3985 13.5078ZM42.2735 15.1485C42.2735 17.4818 42.2735 19.8152 42.2735 22.1485C44.0965 22.1485 45.9193 22.1485 47.7423 22.1485C47.4946 19.8182 47.2759 17.4849 47.086 15.1485C45.4818 15.1485 43.8777 15.1485 42.2735 15.1485Z" fill="#193A6D"/>
<path opacity="0.911" fill-rule="evenodd" clip-rule="evenodd" d="M41.3984 25.2109C42.3834 25.1928 43.3678 25.2109 44.3515 25.2656C45.1704 25.7694 45.207 26.3163 44.4609 26.9062C43.4036 26.9792 42.3464 26.9792 41.289 26.9062C40.6808 26.2886 40.7172 25.7234 41.3984 25.2109Z" fill="#D24A43"/>
<path opacity="0.925" fill-rule="evenodd" clip-rule="evenodd" d="M8.80458 38.6641C11.0467 38.371 12.5232 39.2824 13.2343 41.3985C13.6246 43.5433 12.8043 45.0199 10.7733 45.8282C8.53215 46.2847 6.98266 45.4644 6.12489 43.3672C5.71963 41.0408 6.61287 39.4731 8.80458 38.6641ZM9.1327 40.4141C8.9065 40.5098 8.68775 40.6373 8.47645 40.7969C7.41259 41.9313 7.48551 42.9886 8.6952 43.9688C9.95032 44.498 10.88 44.1517 11.4843 42.9297C11.7192 41.1768 10.9353 40.3382 9.1327 40.4141Z" fill="#D24A43"/>
<path opacity="0.928" fill-rule="evenodd" clip-rule="evenodd" d="M20.7266 38.664C23.8744 38.5123 25.351 40.0072 25.1563 43.1484C24.7138 44.6848 23.7111 45.6145 22.1485 45.9375C19.2319 45.974 17.8283 44.5339 17.9376 41.6172C18.3298 40.1133 19.2595 39.1289 20.7266 38.664ZM20.9454 40.414C19.6334 41.1237 19.3236 42.1446 20.0157 43.4765C21.2281 44.569 22.3219 44.4596 23.2969 43.1484C23.6887 41.2365 22.9049 40.3251 20.9454 40.414Z" fill="#D24A43"/>
<path opacity="0.925" fill-rule="evenodd" clip-rule="evenodd" d="M44.2423 38.664C47.3934 38.5156 48.87 40.0105 48.672 43.1484C48.036 45.1526 46.6688 46.0823 44.5704 45.9375C42.3502 45.4187 41.3112 44.015 41.4532 41.7265C41.7964 40.1625 42.726 39.1416 44.2423 38.664ZM44.5704 40.414C43.1437 41.1396 42.8339 42.197 43.6407 43.5859C44.725 44.5043 45.7458 44.4314 46.7032 43.3672C47.3306 41.4132 46.6197 40.4288 44.5704 40.414Z" fill="#D24A43"/>
</g>
<defs>
<clipPath id="clip0_972_161">
<rect width="56" height="56" fill="white"/>
</clipPath>
</defs>
</svg>
