<svg width="62" height="62" viewBox="0 0 62 62" fill="none" xmlns="http://www.w3.org/2000/svg">
<g clip-path="url(#clip0_1008_1373)">
<path opacity="0.95" fill-rule="evenodd" clip-rule="evenodd" d="M0.423828 -0.0605469C1.99805 -0.0605469 3.57227 -0.0605469 5.14648 -0.0605469C5.44555 0.130983 5.62719 0.413536 5.69141 0.787109C5.75195 8.01225 5.77214 15.2375 5.75195 22.4629C6.59961 22.4629 7.44727 22.4629 8.29492 22.4629C8.29492 19.4759 8.29492 16.489 8.29492 13.502C7.74605 13.5411 7.40296 13.2989 7.26562 12.7754C7.18489 10.6361 7.18489 8.49675 7.26562 6.35742C7.35934 6.06204 7.54098 5.84002 7.81055 5.69141C11.4434 5.61067 15.0762 5.61067 18.709 5.69141C19.4641 6.2495 19.5044 6.85497 18.8301 7.50781C18.6687 7.54817 18.5071 7.58855 18.3457 7.62891C15.3186 7.68945 12.2913 7.70963 9.26367 7.68945C9.26367 8.98112 9.26367 10.2728 9.26367 11.5645C16.8118 11.5645 24.3601 11.5645 31.9082 11.5645C31.9082 10.2728 31.9082 8.98112 31.9082 7.68945C29.3245 7.70963 26.7413 7.68945 24.1582 7.62891C23.2737 7.37861 23.0315 6.83368 23.4316 5.99414C23.5527 5.89323 23.6738 5.79231 23.7949 5.69141C27.0347 5.57252 30.2638 5.61289 33.4824 5.8125C33.7571 6.00113 33.8983 6.2635 33.9062 6.59961C33.987 8.61784 33.987 10.6361 33.9062 12.6543C33.7986 13.3041 33.4151 13.5866 32.7559 13.502C32.7559 16.489 32.7559 19.4759 32.7559 22.4629C33.7246 22.4629 34.6934 22.4629 35.6621 22.4629C35.6419 17.1346 35.6621 11.8065 35.7227 6.47852C35.8895 6.16267 36.1519 5.98103 36.5098 5.93359C41.9187 5.85286 47.3274 5.85286 52.7363 5.93359C53.1448 5.94584 53.4475 6.12748 53.6445 6.47852C53.7051 11.8065 53.7253 17.1346 53.7051 22.4629C54.5124 22.4629 55.3196 22.4629 56.127 22.4629C56.1067 15.2375 56.127 8.01225 56.1875 0.787109C56.2517 0.413536 56.4333 0.130983 56.7324 -0.0605469C58.3066 -0.0605469 59.8809 -0.0605469 61.4551 -0.0605469C61.6569 0.0605469 61.8184 0.222005 61.9395 0.423828C61.9395 20.7676 61.9395 41.1113 61.9395 61.4551C61.8184 61.6569 61.6569 61.8184 61.4551 61.9395C59.8809 61.9395 58.3066 61.9395 56.7324 61.9395C56.4333 61.7479 56.2517 61.4654 56.1875 61.0918C56.127 58.7914 56.1067 56.4906 56.127 54.1895C49.4667 54.2097 42.8065 54.1895 36.1465 54.1289C35.5007 53.5234 35.5007 52.918 36.1465 52.3125C44.0982 52.252 52.05 52.2317 60.002 52.252C60.002 51.3235 60.002 50.3952 60.002 49.4668C40.627 49.4668 21.252 49.4668 1.87695 49.4668C1.87695 50.3952 1.87695 51.3235 1.87695 52.252C11.726 52.2317 21.5749 52.252 31.4238 52.3125C32.0696 52.918 32.0696 53.5234 31.4238 54.1289C22.8666 54.1895 14.3093 54.2097 5.75195 54.1895C5.77213 56.4906 5.75194 58.7914 5.69141 61.0918C5.62719 61.4654 5.44555 61.7479 5.14648 61.9395C3.57227 61.9395 1.99805 61.9395 0.423828 61.9395C0.222005 61.8184 0.0605469 61.6569 -0.0605469 61.4551C-0.0605469 41.1113 -0.0605469 20.7676 -0.0605469 0.423828C0.0605469 0.222005 0.222005 0.0605469 0.423828 -0.0605469ZM1.87695 1.87695C2.48242 1.87695 3.08789 1.87695 3.69336 1.87695C3.69336 8.73894 3.69336 15.6009 3.69336 22.4629C3.08789 22.4629 2.48242 22.4629 1.87695 22.4629C1.87695 15.6009 1.87695 8.73894 1.87695 1.87695ZM58.1855 1.87695C58.791 1.87695 59.3965 1.87695 60.002 1.87695C60.002 8.73894 60.002 15.6009 60.002 22.4629C59.3965 22.4629 58.791 22.4629 58.1855 22.4629C58.1855 15.6009 58.1855 8.73894 58.1855 1.87695ZM39.0527 8.05273C42.7457 7.91179 46.4593 7.89161 50.1934 7.99219C48.3567 9.9095 46.5202 11.8268 44.6836 13.7441C42.7789 11.8597 40.902 9.96258 39.0527 8.05273ZM37.5996 9.50586C39.474 11.4005 41.3307 13.3178 43.1699 15.2578C41.3792 17.2505 39.5427 19.2083 37.6602 21.1309C37.5996 17.2561 37.5794 13.3811 37.5996 9.50586ZM51.5254 9.50586C51.6663 13.3199 51.6866 17.1546 51.5859 21.0098C49.7493 19.0925 47.9128 17.1751 46.0762 15.2578C47.8285 13.3844 49.6247 11.5477 51.4648 9.74805C51.521 9.67607 51.5413 9.59534 51.5254 9.50586ZM10.3535 13.502C17.1751 13.502 23.9968 13.502 30.8184 13.502C30.8184 16.489 30.8184 19.4759 30.8184 22.4629C23.9968 22.4629 17.1751 22.4629 10.3535 22.4629C10.3535 19.4759 10.3535 16.489 10.3535 13.502ZM13.0176 15.9238C13.3809 15.9238 13.7441 15.9238 14.1074 15.9238C14.1074 16.3274 14.1074 16.7312 14.1074 17.1348C13.7441 17.1348 13.3809 17.1348 13.0176 17.1348C13.0176 16.7312 13.0176 16.3274 13.0176 15.9238ZM44.623 16.7715C46.4556 18.6243 48.272 20.5013 50.0723 22.4023C46.4395 22.4831 42.8066 22.4831 39.1738 22.4023C41.0589 20.5781 42.8753 18.7011 44.623 16.7715ZM1.87695 24.4004C21.252 24.4004 40.627 24.4004 60.002 24.4004C60.002 25.3288 60.002 26.2571 60.002 27.1855C40.627 27.1855 21.252 27.1855 1.87695 27.1855C1.87695 26.2571 1.87695 25.3288 1.87695 24.4004ZM1.87695 29.2441C2.48242 29.2441 3.08789 29.2441 3.69336 29.2441C3.69336 35.2988 3.69336 41.3535 3.69336 47.4082C3.08789 47.4082 2.48242 47.4082 1.87695 47.4082C1.87695 41.3535 1.87695 35.2988 1.87695 29.2441ZM5.75195 29.2441C22.5437 29.2441 39.3352 29.2441 56.127 29.2441C56.1068 30.2944 56.127 31.3439 56.1875 32.3926C56.2803 32.9749 56.6233 33.2979 57.2168 33.3613C57.5993 33.282 57.9021 33.0801 58.125 32.7559C58.1855 31.586 58.2057 30.4154 58.1855 29.2441C58.791 29.2441 59.3965 29.2441 60.002 29.2441C60.002 35.2988 60.002 41.3535 60.002 47.4082C59.3965 47.4082 58.791 47.4082 58.1855 47.4082C58.2058 43.8559 58.1855 40.3038 58.125 36.752C57.6692 36.142 57.1243 36.0411 56.4902 36.4492C56.3429 36.6488 56.242 36.8707 56.1875 37.1152C56.127 40.5459 56.1067 43.977 56.127 47.4082C55.9655 47.4082 55.804 47.4082 55.6426 47.4082C55.6628 42.6854 55.6426 37.9628 55.582 33.2402C55.4028 32.8572 55.1001 32.6353 54.6738 32.5742C51.4446 32.4935 48.2155 32.4935 44.9863 32.5742C44.5601 32.6353 44.2573 32.8572 44.0781 33.2402C44.0176 37.9628 43.9974 42.6854 44.0176 47.4082C43.8157 47.4082 43.614 47.4082 43.4121 47.4082C43.4323 42.6854 43.4121 37.9628 43.3516 33.2402C43.1723 32.8572 42.8696 32.6353 42.4434 32.5742C39.1738 32.4935 35.9043 32.4935 32.6348 32.5742C32.2614 32.6694 31.9991 32.8914 31.8477 33.2402C31.7871 37.9628 31.7669 42.6854 31.7871 47.4082C31.222 47.4082 30.6569 47.4082 30.0918 47.4082C30.1509 42.554 30.0903 37.7103 29.9102 32.877C29.7383 32.7607 29.5567 32.6598 29.3652 32.5742C22.0188 32.4935 14.6726 32.4935 7.32617 32.5742C7.04188 32.6161 6.81987 32.7574 6.66016 32.998C6.48065 37.7941 6.4201 42.5974 6.47852 47.4082C6.23633 47.4082 5.99414 47.4082 5.75195 47.4082C5.75195 41.3535 5.75195 35.2988 5.75195 29.2441ZM8.53711 34.5723C15.0762 34.5723 21.6152 34.5723 28.1543 34.5723C28.1543 35.6218 28.1543 36.6712 28.1543 37.7207C21.6152 37.7207 15.0762 37.7207 8.53711 37.7207C8.53711 36.6712 8.53711 35.6218 8.53711 34.5723ZM33.7246 34.5723C36.3079 34.5723 38.8913 34.5723 41.4746 34.5723C41.4746 35.4602 41.4746 36.3483 41.4746 37.2363C38.8913 37.2363 36.3079 37.2363 33.7246 37.2363C33.7246 36.3483 33.7246 35.4602 33.7246 34.5723ZM45.9551 34.5723C48.5384 34.5723 51.1218 34.5723 53.7051 34.5723C53.7051 35.4602 53.7051 36.3483 53.7051 37.2363C51.1218 37.2363 48.5384 37.2363 45.9551 37.2363C45.9551 36.3483 45.9551 35.4602 45.9551 34.5723ZM33.7246 39.2949C36.3079 39.2949 38.8913 39.2949 41.4746 39.2949C41.4746 41.9993 41.4746 44.7038 41.4746 47.4082C38.8913 47.4082 36.3079 47.4082 33.7246 47.4082C33.7246 44.7038 33.7246 41.9993 33.7246 39.2949ZM45.9551 39.2949C48.5384 39.2949 51.1218 39.2949 53.7051 39.2949C53.7051 41.9993 53.7051 44.7038 53.7051 47.4082C51.1218 47.4082 48.5384 47.4082 45.9551 47.4082C45.9551 44.7038 45.9551 41.9993 45.9551 39.2949ZM8.53711 39.7793C15.0762 39.7793 21.6152 39.7793 28.1543 39.7793C28.1543 40.8288 28.1543 41.8782 28.1543 42.9277C21.6152 42.9277 15.0762 42.9277 8.53711 42.9277C8.53711 41.8782 8.53711 40.8288 8.53711 39.7793ZM8.53711 44.9863C15.0762 44.9863 21.6152 44.9863 28.1543 44.9863C28.1543 45.7937 28.1543 46.6009 28.1543 47.4082C21.6152 47.4082 15.0762 47.4082 8.53711 47.4082C8.53711 46.6009 8.53711 45.7937 8.53711 44.9863ZM1.87695 54.1895C2.48242 54.1895 3.08789 54.1895 3.69336 54.1895C3.69336 56.127 3.69336 58.0645 3.69336 60.002C3.08789 60.002 2.48242 60.002 1.87695 60.002C1.87695 58.0645 1.87695 56.127 1.87695 54.1895ZM58.1855 54.1895C58.791 54.1895 59.3965 54.1895 60.002 54.1895C60.002 56.127 60.002 58.0645 60.002 60.002C59.3965 60.002 58.791 60.002 58.1855 60.002C58.1855 58.0645 58.1855 56.127 58.1855 54.1895Z" fill="#193A6D"/>
<path opacity="0.949" fill-rule="evenodd" clip-rule="evenodd" d="M11.5645 13.9863C12.8971 13.9661 14.2291 13.9863 15.5606 14.0469C15.7338 14.1032 15.875 14.2042 15.9844 14.3496C16.1808 15.7102 16.2211 17.0826 16.1055 18.4668C16.0104 18.6831 15.8692 18.8647 15.6816 19.0117C14.3093 19.0925 12.9368 19.0925 11.5645 19.0117C11.2842 18.8774 11.1025 18.6554 11.0195 18.3457C10.9388 17.1751 10.9388 16.0046 11.0195 14.834C11.0838 14.4604 11.2654 14.1779 11.5645 13.9863ZM13.0176 15.9238C13.0176 16.3275 13.0176 16.7312 13.0176 17.1348C13.3809 17.1348 13.7441 17.1348 14.1074 17.1348C14.1074 16.7312 14.1074 16.3275 14.1074 15.9238C13.7441 15.9238 13.3809 15.9238 13.0176 15.9238Z" fill="#D24A43"/>
<path opacity="0.954" fill-rule="evenodd" clip-rule="evenodd" d="M17.8614 13.9863C20.1222 13.9661 22.3826 13.9863 24.6427 14.0469C25.2524 14.4117 25.3937 14.9163 25.0665 15.5606C24.9571 15.706 24.8159 15.807 24.6427 15.8633C22.3822 15.9441 20.1219 15.9441 17.8614 15.8633C17.0618 15.2437 17.0618 14.6181 17.8614 13.9863Z" fill="#D24A43"/>
<path opacity="0.953" fill-rule="evenodd" clip-rule="evenodd" d="M17.8614 17.1348C20.1222 17.1146 22.3826 17.1348 24.6427 17.1953C25.3822 17.7473 25.4225 18.3527 24.7637 19.0117C22.463 19.0925 20.1622 19.0925 17.8614 19.0117C17.0618 18.3921 17.0618 17.7665 17.8614 17.1348Z" fill="#D24A43"/>
<path opacity="0.859" fill-rule="evenodd" clip-rule="evenodd" d="M3.69341 24.7637C4.33637 24.8415 4.69965 25.2048 4.78326 25.8535C4.54097 26.801 3.97588 27.0634 3.08794 26.6406C2.47997 25.7419 2.68179 25.1162 3.69341 24.7637Z" fill="#D24A43"/>
<path opacity="0.859" fill-rule="evenodd" clip-rule="evenodd" d="M58.0645 24.7637C59.1703 25.0578 59.4125 25.6834 58.791 26.6406C57.903 27.0634 57.338 26.801 57.0957 25.8535C57.1734 25.252 57.4963 24.8888 58.0645 24.7637Z" fill="#D24A43"/>
<path opacity="0.954" fill-rule="evenodd" clip-rule="evenodd" d="M34.8146 40.3848C36.6718 40.3646 38.5286 40.3848 40.3849 40.4453C41.0307 41.0508 41.0307 41.6563 40.3849 42.2617C38.5282 42.3425 36.6714 42.3425 34.8146 42.2617C34.0774 41.668 34.0774 41.0424 34.8146 40.3848Z" fill="#D24A43"/>
<path opacity="0.955" fill-rule="evenodd" clip-rule="evenodd" d="M47.0451 40.3848C48.9023 40.3646 50.759 40.3848 52.6154 40.4453C53.2612 41.0508 53.2612 41.6563 52.6154 42.2617C50.7587 42.3425 48.9018 42.3425 47.0451 42.2617C46.3079 41.668 46.3079 41.0424 47.0451 40.3848Z" fill="#D24A43"/>
<path opacity="0.908" fill-rule="evenodd" clip-rule="evenodd" d="M35.0568 43.5332C36.7526 43.513 38.4479 43.5332 40.1427 43.5938C40.7974 43.8335 41.0193 44.2978 40.8088 44.9863C40.6955 45.3014 40.4736 45.4831 40.1427 45.5313C38.4474 45.612 36.7521 45.612 35.0568 45.5313C34.3341 45.2417 34.112 44.7371 34.3908 44.0176C34.5724 43.7792 34.7944 43.6177 35.0568 43.5332Z" fill="#D24A43"/>
<path opacity="0.908" fill-rule="evenodd" clip-rule="evenodd" d="M47.2873 43.5332C48.9831 43.513 50.6784 43.5332 52.3732 43.5938C53.0278 43.8335 53.2498 44.2978 53.0392 44.9863C52.926 45.3014 52.704 45.4831 52.3732 45.5313C50.6779 45.612 48.9826 45.612 47.2873 45.5313C46.5646 45.2417 46.3425 44.7371 46.6213 44.0176C46.8029 43.7792 47.0249 43.6177 47.2873 43.5332Z" fill="#D24A43"/>
<path opacity="0.863" fill-rule="evenodd" clip-rule="evenodd" d="M3.33023 49.8301C4.63801 49.8432 5.00129 50.4284 4.42007 51.5859C3.2663 52.0454 2.72138 51.6619 2.78531 50.4355C2.90943 50.1707 3.09107 49.9689 3.33023 49.8301Z" fill="#D24A43"/>
<path opacity="0.863" fill-rule="evenodd" clip-rule="evenodd" d="M57.701 49.8301C58.7498 49.6883 59.214 50.1323 59.0936 51.1621C58.7987 51.7341 58.3345 51.9158 57.701 51.707C56.9076 51.0894 56.9076 50.4637 57.701 49.8301Z" fill="#D24A43"/>
</g>
<defs>
<clipPath id="clip0_1008_1373">
<rect width="62" height="62" fill="white"/>
</clipPath>
</defs>
</svg>
