<svg width="26" height="26" viewBox="0 0 26 26" fill="none" xmlns="http://www.w3.org/2000/svg">
<rect width="26" height="26" fill="#D24A43"/>
<path fill-rule="evenodd" clip-rule="evenodd" d="M13.4997 17.9167C10.5097 17.9167 8.08301 15.4955 8.08301 12.5C8.08301 9.51004 10.5097 7.08337 13.4997 7.08337C16.4951 7.08337 18.9163 9.51004 18.9163 12.5C18.9163 15.4955 16.4951 17.9167 13.4997 17.9167ZM15.228 14.5096C15.293 14.5475 15.3635 14.5692 15.4393 14.5692C15.5747 14.5692 15.7101 14.4988 15.786 14.3688C15.8997 14.1792 15.8401 13.93 15.6451 13.8109L13.7168 12.6625V10.16C13.7168 9.93253 13.5326 9.75378 13.3105 9.75378C13.0885 9.75378 12.9043 9.93253 12.9043 10.16V12.8955C12.9043 13.0363 12.9801 13.1663 13.1047 13.2421L15.228 14.5096Z" fill="white"/>
</svg>
