<svg width="26" height="26" viewBox="0 0 26 26" fill="none" xmlns="http://www.w3.org/2000/svg">
<rect width="26" height="26" fill="#D24A43"/>
<path fill-rule="evenodd" clip-rule="evenodd" d="M15.6755 8.125C16.4018 8.125 17.1006 8.41208 17.6146 8.92721C18.1292 9.44125 18.4168 10.1346 18.4168 10.8604V15.1396C18.4168 16.6508 17.1872 17.875 15.6755 17.875H10.3243C8.81254 17.875 7.5835 16.6508 7.5835 15.1396V10.8604C7.5835 9.34917 8.80712 8.125 10.3243 8.125H15.6755ZM16.5372 11.6675L16.5806 11.6242C16.71 11.4671 16.71 11.2396 16.5746 11.0825C16.4993 11.0018 16.3959 10.9525 16.2881 10.9417C16.1743 10.9357 16.066 10.9742 15.9842 11.05L13.5418 13C13.2277 13.2605 12.7775 13.2605 12.4585 13L10.021 11.05C9.85254 10.9254 9.61962 10.9417 9.47933 11.0879C9.33308 11.2342 9.31683 11.4671 9.44087 11.6296L9.51183 11.7L11.9764 13.6229C12.2797 13.8613 12.6475 13.9913 13.0327 13.9913C13.4167 13.9913 13.791 13.8613 14.0938 13.6229L16.5372 11.6675Z" fill="white"/>
</svg>
