<svg width="26" height="26" viewBox="0 0 26 26" fill="none" xmlns="http://www.w3.org/2000/svg">
<rect width="26" height="26" fill="#D24A43"/>
<path fill-rule="evenodd" clip-rule="evenodd" d="M8.39575 12.4951C8.39575 10.0035 10.4779 7.98962 12.9964 7.98962C15.522 7.98962 17.6041 10.0035 17.6041 12.4951C17.6041 13.7506 17.1475 14.9163 16.3959 15.9042C15.5668 16.994 14.5448 17.9435 13.3945 18.6889C13.1313 18.8611 12.8937 18.8741 12.6047 18.6889C11.4479 17.9435 10.426 16.994 9.60394 15.9042C8.85183 14.9163 8.39575 13.7506 8.39575 12.4951ZM11.4801 12.6354C11.4801 13.47 12.1612 14.1265 12.9964 14.1265C13.832 14.1265 14.5197 13.47 14.5197 12.6354C14.5197 11.8072 13.832 11.1187 12.9964 11.1187C12.1612 11.1187 11.4801 11.8072 11.4801 12.6354Z" fill="white"/>
</svg>
