<svg width="40" height="40" viewBox="0 0 40 40" fill="none" xmlns="http://www.w3.org/2000/svg">
<g id="goal-9084569 1" clip-path="url(#clip0_242_910)">
<g id="Group">
<path id="Vector" opacity="0.942" fill-rule="evenodd" clip-rule="evenodd" d="M20.9766 -0.0390625C21.3672 -0.0390625 21.7578 -0.0390625 22.1484 -0.0390625C22.8441 0.253121 23.3128 0.760934 23.5547 1.48438C25.6901 1.51041 27.8255 1.53646 29.9609 1.5625C30.5469 1.73177 30.9245 2.10938 31.0938 2.69531C31.1328 3.52824 31.1459 4.36157 31.1328 5.19531C31.9926 5.1823 32.852 5.19533 33.7109 5.23438C34.7404 5.54529 35.1831 6.24841 35.0391 7.34375C35.026 7.61719 35.013 7.89062 35 8.16406C34.6383 8.75656 34.2477 8.78266 33.8281 8.24219C33.8021 7.72135 33.776 7.20052 33.75 6.67969C33.6849 6.61459 33.6198 6.54948 33.5547 6.48438C32.7478 6.44533 31.9405 6.4323 31.1328 6.44531C31.1459 7.30508 31.1328 8.16445 31.0938 9.02344C30.9581 9.54977 30.6326 9.90133 30.1172 10.0781C29.2322 10.1172 28.3467 10.1302 27.4609 10.1172C27.448 10.8989 27.4609 11.6802 27.5 12.4609C27.5586 12.5098 27.6238 12.5489 27.6953 12.5781C29.6224 12.6302 31.5495 12.6302 33.4766 12.5781C33.5884 12.5418 33.6795 12.4766 33.75 12.3828C33.7543 11.6718 33.8064 10.9687 33.9062 10.2734C34.2649 10.0495 34.6034 10.0755 34.9219 10.3516C35.0456 11.0748 35.0716 11.804 35 12.5391C34.8215 13.2645 34.3658 13.6941 33.6328 13.8281C31.6276 13.8802 29.6224 13.8802 27.6172 13.8281C26.938 13.7683 26.4823 13.4167 26.25 12.7734C26.2109 11.8884 26.1979 11.003 26.2109 10.1172C25.3255 10.1172 24.4401 10.1172 23.5547 10.1172C23.5416 12.6955 23.5547 15.2736 23.5938 17.8516C23.75 18.0078 23.9062 18.1641 24.0625 18.3203C27.2205 22.7352 30.3975 27.1362 33.5938 31.5234C34.0327 32.1039 33.9155 32.5205 33.2422 32.7734C33.1096 32.7423 32.9795 32.7032 32.8516 32.6562C32.1745 31.7448 31.4974 30.8334 30.8203 29.9219C29.6224 29.8959 28.4245 29.8698 27.2266 29.8438C26.7372 29.7749 26.3335 29.5535 26.0156 29.1797C25.1994 28.0248 24.353 26.892 23.4766 25.7812C22.6738 25.6849 21.8666 25.6328 21.0547 25.625C20.7725 25.536 20.512 25.4058 20.2734 25.2344C19.475 24.2016 18.7068 23.1469 17.9688 22.0703C16.253 24.4476 14.5473 26.8304 12.8516 29.2188C15.0857 32.4167 17.3513 35.5938 19.6484 38.75C25.5078 38.8021 31.3672 38.8021 37.2266 38.75C36.25 37.4088 35.2734 36.0677 34.2969 34.7266C34.0893 34.1781 34.2716 33.8396 34.8438 33.7109C35.0721 33.734 35.2545 33.8382 35.3906 34.0234C36.5104 35.5859 37.6302 37.1484 38.75 38.7109C39.0687 38.7734 39.3943 38.8125 39.7266 38.8281C39.7948 38.9098 39.8729 38.9748 39.9609 39.0234C39.9609 39.2578 39.9609 39.4922 39.9609 39.7266C39.8568 39.7787 39.7787 39.8568 39.7266 39.9609C26.5495 39.9609 13.3724 39.9609 0.195312 39.9609C0.143229 39.8568 0.0651041 39.7787 -0.0390625 39.7266C-0.0390625 39.4922 -0.0390625 39.2578 -0.0390625 39.0234C0.0489501 38.9748 0.127075 38.9098 0.195312 38.8281C0.527604 38.8125 0.853125 38.7734 1.17188 38.7109C3.8068 34.9822 6.50212 31.2973 9.25781 27.6562C10.3281 27.0619 11.2526 27.2311 12.0312 28.1641C14.4708 24.6828 16.9708 21.2453 19.5312 17.8516C19.5573 12.4349 19.5834 7.01823 19.6094 1.60156C19.7718 0.801828 20.2275 0.254955 20.9766 -0.0390625ZM21.2891 1.21094C21.7494 1.09948 22.0749 1.25573 22.2656 1.67969C22.3047 4.07538 22.3177 6.47121 22.3047 8.86719C21.8099 8.86719 21.3151 8.86719 20.8203 8.86719C20.8073 6.49725 20.8203 4.12746 20.8594 1.75781C20.9349 1.51402 21.0781 1.33172 21.2891 1.21094ZM23.5547 2.77344C25.6121 2.76042 27.6695 2.77344 29.7266 2.8125C29.7656 2.85156 29.8047 2.89062 29.8438 2.92969C29.9081 4.88614 29.8951 6.83927 29.8047 8.78906C27.722 8.86719 25.6387 8.8932 23.5547 8.86719C23.5547 6.83594 23.5547 4.80469 23.5547 2.77344ZM20.8203 10.1172C21.3151 10.1172 21.8099 10.1172 22.3047 10.1172C22.3177 12.4871 22.3047 14.8569 22.2656 17.2266C21.7969 17.1224 21.3281 17.1224 20.8594 17.2266C20.8203 14.8569 20.8073 12.4871 20.8203 10.1172ZM21.1328 18.3984C21.8995 18.294 22.5376 18.5284 23.0469 19.1016C25.3255 22.2656 27.6041 25.4297 29.8828 28.5938C29.0495 28.6459 28.2162 28.6459 27.3828 28.5938C27.2198 28.5319 27.0765 28.4407 26.9531 28.3203C26.1615 27.1668 25.3412 26.034 24.4922 24.9219C24.2536 24.7505 23.9931 24.6202 23.7109 24.5312C22.907 24.4397 22.0997 24.3876 21.2891 24.375C20.3801 23.3126 19.5467 22.1928 18.7891 21.0156C19.2347 20.3461 19.6904 19.682 20.1562 19.0234C20.443 18.744 20.7686 18.5356 21.1328 18.3984ZM10.1953 28.5547C10.5841 28.5342 10.8835 28.6905 11.0938 29.0234C13.4149 32.2725 15.7456 35.5147 18.0859 38.75C12.9557 38.8021 7.82555 38.8021 2.69531 38.75C4.97396 35.5859 7.2526 32.4219 9.53125 29.2578C9.71578 28.9823 9.93719 28.7479 10.1953 28.5547Z" fill="#1387F1"/>
</g>
</g>
<defs>
<clipPath id="clip0_242_910">
<rect width="40" height="40" fill="white"/>
</clipPath>
</defs>
</svg>
