<svg width="40" height="40" viewBox="0 0 40 40" fill="none" xmlns="http://www.w3.org/2000/svg">
<g id="result 1" clip-path="url(#clip0_242_952)">
<g id="Group">
<path id="Vector" opacity="0.971" fill-rule="evenodd" clip-rule="evenodd" d="M6.36719 -0.0390625C11.7578 -0.0390625 17.1484 -0.0390625 22.5391 -0.0390625C24.9301 2.31287 27.3129 4.68266 29.6875 7.07031C29.7396 7.17448 29.7916 7.27865 29.8438 7.38281C29.8568 10.378 29.8959 13.3727 29.9609 16.3672C30.6794 16.6561 31.1351 17.1769 31.3281 17.9297C31.3672 19.0231 31.3802 20.1169 31.3672 21.2109C34.7279 21.5687 37.2409 23.2093 38.9062 26.1328C39.4251 27.1552 39.7766 28.223 39.9609 29.3359C39.9609 30.1693 39.9609 31.0026 39.9609 31.8359C39.0398 36.3768 36.3055 39.0852 31.7578 39.9609C30.9505 39.9609 30.1432 39.9609 29.3359 39.9609C27.7304 39.7077 26.2721 39.0957 24.9609 38.125C17.2005 38.099 9.44008 38.0729 1.67969 38.0469C0.80607 37.7852 0.233154 37.2252 -0.0390625 36.3672C-0.0390625 29.1797 -0.0390625 21.9922 -0.0390625 14.8047C0.207547 14.0239 0.715359 13.477 1.48438 13.1641C1.48584 10.2948 1.53793 7.43021 1.64062 4.57031C1.88802 3.90625 2.34375 3.45052 3.00781 3.20312C3.54775 3.09497 4.09462 3.05591 4.64844 3.08594C4.41355 1.57496 4.98648 0.533295 6.36719 -0.0390625ZM6.99219 1.52344C11.7838 1.52344 16.5755 1.52344 21.3672 1.52344C21.3541 3.26842 21.3672 5.01322 21.4062 6.75781C21.6797 7.55209 22.2135 8.08594 23.0078 8.35938C24.7524 8.39844 26.4972 8.41148 28.2422 8.39844C28.2422 11.0026 28.2422 13.6068 28.2422 16.2109C27.6863 16.1777 27.1395 16.2168 26.6016 16.3281C26.3123 16.5934 26.2212 16.919 26.3281 17.3047C26.4193 17.5 26.5625 17.6432 26.7578 17.7344C27.513 17.7604 28.2682 17.7865 29.0234 17.8125C29.4791 17.8516 29.7266 18.099 29.7656 18.5547C29.8047 19.4397 29.8177 20.3252 29.8047 21.2109C26.2353 21.608 23.6442 23.4049 22.0312 26.6016C20.9375 29.2578 20.9375 31.9141 22.0312 34.5703C22.347 35.2677 22.7507 35.9058 23.2422 36.4844C16.1555 36.5617 9.07211 36.5357 1.99219 36.4062C1.72245 36.2713 1.57923 36.0498 1.5625 35.7422C1.51041 28.9713 1.51041 22.2005 1.5625 15.4297C1.60156 14.974 1.84896 14.7266 2.30469 14.6875C5.01671 14.6115 7.72505 14.6375 10.4297 14.7656C10.599 14.8307 10.7162 14.9479 10.7812 15.1172C10.877 15.8677 10.9291 16.623 10.9375 17.3828C11.0287 17.526 11.1459 17.6432 11.2891 17.7344C14.3359 17.7865 17.3828 17.7865 20.4297 17.7344C20.9269 17.3953 21.018 16.9656 20.7031 16.4453C20.6326 16.3515 20.5415 16.2863 20.4297 16.25C17.7736 16.2109 15.1173 16.1979 12.4609 16.2109C12.4838 15.7115 12.4578 15.2166 12.3828 14.7266C16.2367 14.6615 20.0909 14.6224 23.9453 14.6094C24.4994 14.2007 24.5515 13.732 24.1016 13.2031C23.9776 13.1358 23.8473 13.0837 23.7109 13.0469C17.9034 13.0087 12.0961 13.0087 6.28906 13.0469C6.29812 9.50328 6.28509 5.92252 6.25 2.30469C6.30305 1.8482 6.55045 1.58778 6.99219 1.52344ZM23.0078 2.77344C24.3463 4.07278 25.6744 5.38788 26.9922 6.71875C25.7682 6.77084 24.5443 6.77084 23.3203 6.71875C23.2291 6.6276 23.138 6.53646 23.0469 6.44531C23.0078 5.22163 22.9948 3.99767 23.0078 2.77344ZM3.86719 4.64844C4.1276 4.64844 4.38802 4.64844 4.64844 4.64844C4.64844 7.46094 4.64844 10.2734 4.64844 13.0859C4.13361 13.1102 3.6258 13.0842 3.125 13.0078C3.07291 10.4818 3.07291 7.9557 3.125 5.42969C3.17805 4.9732 3.42545 4.71278 3.86719 4.64844ZM30.5078 22.7734C33.8649 22.943 36.2738 24.5315 37.7344 27.5391C39.063 31.3277 38.1645 34.4656 35.0391 36.9531C32.0703 38.8802 29.1016 38.8802 26.1328 36.9531C23.1447 34.6027 22.1941 31.5949 23.2812 27.9297C24.6395 24.7352 27.0483 23.0164 30.5078 22.7734ZM33.3203 27.9297C34.1482 28.0136 34.3956 28.4302 34.0625 29.1797C32.7734 30.4688 31.4844 31.7578 30.1953 33.0469C29.8101 33.3188 29.4455 33.2928 29.1016 32.9688C28.328 32.2476 27.612 31.4794 26.9531 30.6641C26.9142 30.1551 27.1486 29.8426 27.6562 29.7266C27.8376 29.7585 28.0068 29.8237 28.1641 29.9219C28.5026 30.2604 28.8412 30.599 29.1797 30.9375C29.4556 31.1347 29.742 31.1607 30.0391 31.0156C31.1247 29.9688 32.2184 28.9402 33.3203 27.9297Z" fill="#1387F1"/>
</g>
<g id="Group_2">
<path id="Vector_2" opacity="0.946" fill-rule="evenodd" clip-rule="evenodd" d="M8.3988 3.63281C11.7322 3.61979 15.0656 3.63281 18.3988 3.67188C19.0024 3.87649 19.1977 4.28013 18.9847 4.88281C18.8936 5.02604 18.7764 5.14323 18.6332 5.23438C15.1697 5.28646 11.7061 5.28646 8.24255 5.23438C7.90646 5.0832 7.75022 4.82278 7.7738 4.45313C7.76521 4.00684 7.97357 3.7334 8.3988 3.63281Z" fill="#1387F1"/>
</g>
<g id="Group_3">
<path id="Vector_3" opacity="0.946" fill-rule="evenodd" clip-rule="evenodd" d="M8.3988 6.75781C11.7322 6.74479 15.0656 6.75781 18.3988 6.79688C19.0024 7.00149 19.1977 7.40513 18.9847 8.00781C18.8936 8.15102 18.7764 8.2682 18.6332 8.35938C15.1697 8.41149 11.7061 8.41149 8.24255 8.35938C7.90646 8.2082 7.75022 7.94781 7.7738 7.57813C7.76521 7.13184 7.97357 6.8584 8.3988 6.75781Z" fill="#1387F1"/>
</g>
<g id="Group_4">
<path id="Vector_4" opacity="0.948" fill-rule="evenodd" clip-rule="evenodd" d="M8.3988 9.88282C13.503 9.86978 18.6072 9.88282 23.7113 9.92189C24.3948 10.1826 24.564 10.6384 24.2191 11.2891C24.1211 11.3446 24.03 11.4097 23.9457 11.4844C18.7113 11.5365 13.4769 11.5365 8.24255 11.4844C7.90646 11.3332 7.75022 11.0728 7.7738 10.7031C7.76521 10.2568 7.97357 9.98337 8.3988 9.88282Z" fill="#1387F1"/>
</g>
<g id="Group_5">
<path id="Vector_5" opacity="0.897" fill-rule="evenodd" clip-rule="evenodd" d="M23.2423 16.2109C23.9161 16.0651 24.3068 16.3255 24.4142 16.9921C24.3068 17.6714 23.9161 17.9188 23.2423 17.7343C22.8107 17.5063 22.6675 17.1547 22.8126 16.6796C22.9189 16.4825 23.0621 16.3263 23.2423 16.2109Z" fill="#1387F1"/>
</g>
<g id="Group_6">
<path id="Vector_6" opacity="0.978" fill-rule="evenodd" clip-rule="evenodd" d="M3.47627 33.3984C5.16917 33.3854 6.86188 33.3984 8.55439 33.4375C8.92744 33.7231 9.04463 34.1006 8.90595 34.5703C8.81478 34.7135 8.6976 34.8307 8.55439 34.9219C6.86168 34.974 5.16898 34.974 3.47627 34.9219C3.10326 34.6363 2.98607 34.2588 3.1247 33.7891C3.2314 33.6436 3.34859 33.5134 3.47627 33.3984Z" fill="#1387F1"/>
</g>
<g id="Group_7">
<path id="Vector_7" opacity="0.908" fill-rule="evenodd" clip-rule="evenodd" d="M11.2888 33.3984C12.2125 33.2675 12.5902 33.6581 12.4216 34.5703C12.1361 34.9434 11.7585 35.0605 11.2888 34.9219C10.9157 34.6363 10.7986 34.2587 10.9372 33.7891C11.0439 33.6436 11.1611 33.5134 11.2888 33.3984Z" fill="#1387F1"/>
</g>
</g>
<defs>
<clipPath id="clip0_242_952">
<rect width="40" height="40" fill="white"/>
</clipPath>
</defs>
</svg>
