<svg width="40" height="40" viewBox="0 0 40 40" fill="none" xmlns="http://www.w3.org/2000/svg">
<g id="solution 1" clip-path="url(#clip0_242_920)">
<g id="Group">
<path id="Vector" opacity="0.935" fill-rule="evenodd" clip-rule="evenodd" d="M19.2578 -0.0390625C19.7266 -0.0390625 20.1953 -0.0390625 20.6641 -0.0390625C22.236 0.440509 23.0954 1.50822 23.2422 3.16406C23.1423 4.85052 22.2829 5.91823 20.6641 6.36719C20.6641 6.8099 20.6641 7.2526 20.6641 7.69531C21.0807 7.69531 21.4974 7.69531 21.9141 7.69531C21.9011 8.03484 21.9141 8.37336 21.9531 8.71094C22.0942 9.04813 22.3416 9.19141 22.6953 9.14062C22.9791 8.93516 23.2395 8.70078 23.4766 8.4375C23.5547 8.38539 23.6328 8.38539 23.7109 8.4375C24.5834 9.30992 25.4557 10.1823 26.3281 11.0547C26.2182 11.3238 26.0359 11.5582 25.7812 11.7578C25.4723 12.2052 25.5634 12.5437 26.0547 12.7734C26.9865 11.9591 27.8849 11.0997 28.75 10.1953C28.6805 9.7768 28.5763 9.36016 28.4375 8.94531C28.0002 6.03107 29.0549 3.85659 31.6016 2.42188C34.4841 1.2903 36.9191 1.90228 38.9062 4.25781C39.4345 5.02354 39.786 5.85687 39.9609 6.75781C39.9609 7.40885 39.9609 8.05992 39.9609 8.71094C39.2028 11.7079 37.2757 13.3224 34.1797 13.5547C32.331 13.5286 30.8205 12.8124 29.6484 11.4062C29.5963 11.3541 29.5443 11.3541 29.4922 11.4062C28.6979 12.2005 27.9037 12.9948 27.1094 13.7891C27.0703 14.7783 27.0573 15.7679 27.0703 16.7578C26.7308 16.7448 26.3923 16.7579 26.0547 16.7969C25.6952 16.9561 25.5519 17.2295 25.625 17.6172C25.8594 17.8516 26.0938 18.0859 26.3281 18.3203C26.3802 18.3984 26.3802 18.4766 26.3281 18.5547C25.4557 19.4271 24.5834 20.2995 23.7109 21.1719C23.6588 21.224 23.6068 21.224 23.5547 21.1719C23.3176 20.9086 23.0572 20.6742 22.7734 20.4688C22.4791 20.3743 22.2447 20.4524 22.0703 20.7031C22.6012 20.9955 22.9788 21.4252 23.2031 21.9922C24.5207 21.6748 25.3801 22.1696 25.7812 23.4766C25.8073 23.9453 25.8334 24.4141 25.8594 24.8828C26.25 25.2734 26.6406 25.6641 27.0312 26.0547C27.7137 23.0284 29.5756 21.2186 32.6172 20.625C35.4505 20.3556 37.625 21.4103 39.1406 23.7891C39.5331 24.5116 39.8066 25.2669 39.9609 26.0547C39.9609 26.7318 39.9609 27.4088 39.9609 28.0859C39.7679 28.9635 39.4423 29.7968 38.9844 30.5859C38.0469 31.8359 37.1094 33.0859 36.1719 34.3359C36.1459 35.0651 36.1198 35.7943 36.0938 36.5234C35.5939 38.2387 34.4611 38.9287 32.6953 38.5938C31.7494 38.2468 31.1634 37.5827 30.9375 36.6016C30.9115 35.8463 30.8854 35.0912 30.8594 34.3359C29.8397 33.0298 28.8501 31.7017 27.8906 30.3516C27.4957 29.6093 27.2092 28.828 27.0312 28.0078C26.6406 27.6172 26.25 27.2266 25.8594 26.8359C25.9936 28.665 25.6291 30.3838 24.7656 31.9922C24.4959 32.3923 24.1964 32.7698 23.8672 33.125C24.1347 35.3966 24.3691 37.6753 24.5703 39.9609C21.4974 39.9609 18.4245 39.9609 15.3516 39.9609C15.5528 37.6753 15.7872 35.3966 16.0547 33.125C14.9183 31.9062 14.2802 30.4609 14.1406 28.7891C14.1146 28.138 14.0885 27.487 14.0625 26.8359C13.099 27.7995 12.1354 28.763 11.1719 29.7266C11.2414 30.1451 11.3455 30.5617 11.4844 30.9766C11.9216 33.8908 10.867 36.0653 8.32031 37.5C5.43771 38.6316 3.00281 38.0196 1.01562 35.6641C0.487451 34.8984 0.135888 34.065 -0.0390625 33.1641C-0.0390625 32.513 -0.0390625 31.862 -0.0390625 31.2109C0.718433 28.2148 2.64552 26.6002 5.74219 26.3672C7.59088 26.3933 9.10133 27.1095 10.2734 28.5156C10.3255 28.5677 10.3776 28.5677 10.4297 28.5156C11.6406 27.3047 12.8516 26.0938 14.0625 24.8828C14.0885 24.2318 14.1146 23.5807 14.1406 22.9297C14.3211 22.255 14.7638 21.8905 15.4688 21.8359C15.8676 21.8662 16.2452 21.9703 16.6016 22.1484C16.6924 21.7342 16.7054 21.3175 16.6406 20.8984C16.5295 21.0655 16.3863 21.1566 16.2109 21.1719C15.3385 20.2995 14.4662 19.4271 13.5938 18.5547C13.5416 18.4766 13.5416 18.3984 13.5938 18.3203C13.8281 18.0859 14.0625 17.8516 14.2969 17.6172C14.37 17.2295 14.2267 16.9561 13.8672 16.7969C13.5296 16.7579 13.1911 16.7448 12.8516 16.7578C12.8646 15.7679 12.8516 14.7783 12.8125 13.7891C12.2905 13.2541 11.7567 12.7332 11.2109 12.2266C10.4523 13.1288 9.73617 14.0663 9.0625 15.0391C9.03648 15.7682 9.01039 16.4974 8.98438 17.2266C8.53312 18.8266 7.47843 19.5166 5.82031 19.2969C4.88258 19.0362 4.24455 18.4502 3.90625 17.5391C3.81149 16.6835 3.75941 15.8241 3.75 14.9609C2.73033 13.6548 1.74074 12.3267 0.78125 10.9766C0.388912 10.2545 0.115474 9.49938 -0.0390625 8.71094C-0.0390625 8.03383 -0.0390625 7.35677 -0.0390625 6.67969C0.503234 4.11823 2.01365 2.38646 4.49219 1.48438C7.70095 0.713748 10.214 1.69031 12.0312 4.41406C13.2385 6.62362 13.2255 8.82414 11.9922 11.0156C12.5651 11.5885 13.138 12.1615 13.7109 12.7344C14.0807 12.7562 14.289 12.5739 14.3359 12.1875C14.1828 11.7987 13.9354 11.4732 13.5938 11.2109C13.5416 11.1588 13.5416 11.1068 13.5938 11.0547C14.4662 10.1823 15.3385 9.30992 16.2109 8.4375C16.2891 8.38539 16.3672 8.38539 16.4453 8.4375C16.6824 8.70078 16.9428 8.93516 17.2266 9.14062C17.5802 9.19141 17.8277 9.04813 17.9688 8.71094C18.0077 8.37336 18.0208 8.03484 18.0078 7.69531C18.4245 7.69531 18.8412 7.69531 19.2578 7.69531C19.2578 7.2526 19.2578 6.8099 19.2578 6.36719C17.639 5.91823 16.7796 4.85052 16.6797 3.16406C16.824 1.51037 17.6834 0.442659 19.2578 -0.0390625ZM19.5703 1.28906C21.1321 1.3012 21.8743 2.08245 21.7969 3.63281C21.3767 4.74767 20.5824 5.2034 19.4141 5C18.2103 4.45403 17.8327 3.55559 18.2812 2.30469C18.589 1.80061 19.0187 1.46207 19.5703 1.28906ZM5.58594 2.61719C8.57758 2.41996 10.5177 3.74809 11.4062 6.60156C11.6849 7.99461 11.4505 9.29672 10.7031 10.5078C9.83313 11.7137 8.93469 12.8987 8.00781 14.0625C6.9401 14.1146 5.8724 14.1146 4.80469 14.0625C3.88021 12.8255 2.95573 11.5885 2.03125 10.3516C0.766808 7.81977 1.17045 5.59324 3.24219 3.67188C3.96129 3.16885 4.74254 2.81729 5.58594 2.61719ZM33.4766 3.24219C35.4606 3.09491 36.9841 3.85012 38.0469 5.50781C39.1209 7.83195 38.6652 9.79805 36.6797 11.4062C34.5759 12.5827 32.6358 12.3614 30.8594 10.7422C29.4792 9.02391 29.323 7.20102 30.3906 5.27344C31.1623 4.19192 32.1909 3.51484 33.4766 3.24219ZM19.3359 9.02344C19.7534 9.01047 20.1701 9.02352 20.5859 9.0625C21.0212 10.218 21.8545 10.6868 23.0859 10.4688C23.2691 10.3884 23.4513 10.3364 23.6328 10.3125C23.9335 10.6002 24.22 10.8996 24.4922 11.2109C23.9987 12.272 24.207 13.1705 25.1172 13.9062C25.3054 14.0396 25.5137 14.1047 25.7422 14.1016C25.7552 14.545 25.7421 14.9877 25.7031 15.4297C24.7853 15.7523 24.2775 16.4034 24.1797 17.3828C24.2301 17.768 24.3212 18.1326 24.4531 18.4766C24.1655 18.7773 23.866 19.0637 23.5547 19.3359C22.3121 18.766 21.3616 19.0785 20.7031 20.2734C20.651 19.5182 20.651 18.763 20.7031 18.0078C22.8688 17.2181 23.6241 15.7077 22.9688 13.4766C21.9922 11.7357 20.5469 11.1758 18.6328 11.7969C16.861 12.8014 16.3141 14.2727 16.9922 16.2109C16.8777 16.4894 16.7866 16.7758 16.7188 17.0703C16.6927 17.7734 16.6666 18.4766 16.6406 19.1797C16.5559 19.2416 16.4647 19.2938 16.3672 19.3359C16.0287 19.0495 15.7162 18.737 15.4297 18.3984C15.9964 17.0126 15.5927 16.023 14.2188 15.4297C14.1798 14.9877 14.1667 14.545 14.1797 14.1016C14.695 14.0162 15.0987 13.7558 15.3906 13.3203C15.8329 12.6216 15.8459 11.9185 15.4297 11.2109C15.7019 10.8996 15.9884 10.6002 16.2891 10.3125C16.632 10.4472 16.9966 10.5123 17.3828 10.5078C18.395 10.4839 19.046 9.98914 19.3359 9.02344ZM19.4922 12.9297C21.1441 12.8498 21.9124 13.6311 21.7969 15.2734C21.5673 15.8936 21.1506 16.3363 20.5469 16.6016C20.0209 15.6811 19.2266 15.2905 18.1641 15.4297C17.9125 14.2135 18.3552 13.3802 19.4922 12.9297ZM5.19531 15.5078C6.02865 15.5078 6.86198 15.5078 7.69531 15.5078C7.70829 15.9513 7.69527 16.394 7.65625 16.8359C7.51833 17.5206 7.10166 17.9112 6.40625 18.0078C5.8449 17.949 5.45427 17.6625 5.23438 17.1484C5.19534 16.6022 5.18232 16.0553 5.19531 15.5078ZM18.5547 16.7578C18.8448 16.7789 19.0661 16.9091 19.2188 17.1484C19.2578 20.0389 19.2709 22.9295 19.2578 25.8203C19.7266 25.8203 20.1953 25.8203 20.6641 25.8203C20.651 24.6481 20.6641 23.4762 20.7031 22.3047C21.0677 21.7838 21.4323 21.7838 21.7969 22.3047C21.8359 23.4762 21.849 24.6481 21.8359 25.8203C22.3047 25.8203 22.7734 25.8203 23.2422 25.8203C23.2292 25.0907 23.2422 24.3615 23.2812 23.6328C23.6071 23.1462 23.9716 23.1202 24.375 23.5547C24.4271 25.3776 24.4271 27.2005 24.375 29.0234C24.1763 30.1889 23.6945 31.2176 22.9297 32.1094C20.9505 32.1615 18.9713 32.1615 16.9922 32.1094C16.2114 31.2277 15.7297 30.199 15.5469 29.0234C15.5078 27.0966 15.4948 25.1695 15.5078 23.2422C16.0512 23.3031 16.4288 23.5896 16.6406 24.1016C16.6797 24.6739 16.6927 25.2468 16.6797 25.8203C17.1484 25.8203 17.6172 25.8203 18.0859 25.8203C18.0729 22.9295 18.0859 20.0389 18.125 17.1484C18.2115 16.9443 18.3547 16.8141 18.5547 16.7578ZM33.0859 21.9141C35.9022 21.9344 37.712 23.2886 38.5156 25.9766C38.7845 27.4102 38.5241 28.7383 37.7344 29.9609C36.8335 31.0988 35.9611 32.2577 35.1172 33.4375C34.0495 33.4896 32.9818 33.4896 31.9141 33.4375C30.9896 32.2005 30.0651 30.9635 29.1406 29.7266C27.9113 27.3588 28.2109 25.2104 30.0391 23.2812C30.9267 22.5246 31.9423 22.0689 33.0859 21.9141ZM5.03906 27.7734C7.70952 27.6164 9.41523 28.8144 10.1562 31.3672C10.4265 33.3919 9.71031 34.9673 8.00781 36.0938C6.18937 36.9979 4.47062 36.8416 2.85156 35.625C1.06963 33.8245 0.822242 31.8323 2.10938 29.6484C2.85795 28.6563 3.83452 28.0313 5.03906 27.7734ZM17.3828 33.5547C19.1023 33.5287 20.8211 33.5547 22.5391 33.6328C22.7316 35.2977 22.9139 36.9644 23.0859 38.6328C21.0026 38.6328 18.9193 38.6328 16.8359 38.6328C17.0131 36.9388 17.1955 35.246 17.3828 33.5547ZM32.2266 34.8047C33.0599 34.8047 33.8932 34.8047 34.7266 34.8047C34.7579 35.4363 34.7188 36.0613 34.6094 36.6797C34.255 37.2534 33.7472 37.4487 33.0859 37.2656C32.6081 37.0741 32.3347 36.7226 32.2656 36.2109C32.2266 35.7429 32.2136 35.2741 32.2266 34.8047Z" fill="#1387F1"/>
</g>
<g id="Group_2">
<path id="Vector_2" opacity="0.892" fill-rule="evenodd" clip-rule="evenodd" d="M19.2578 2.53906C19.7266 2.53906 20.1953 2.53906 20.6641 2.53906C20.6641 2.98177 20.6641 3.42448 20.6641 3.86719C20.1953 3.86719 19.7266 3.86719 19.2578 3.86719C19.2578 3.42448 19.2578 2.98177 19.2578 2.53906Z" fill="#1387F1"/>
</g>
<g id="Group_3">
<path id="Vector_3" opacity="0.923" fill-rule="evenodd" clip-rule="evenodd" d="M5.82031 3.7891C6.82629 3.63331 7.69868 3.89372 8.4375 4.57035C9.1557 5.5481 9.20773 6.56373 8.59375 7.61722C7.93117 8.20871 7.25408 8.7816 6.5625 9.33597C6.45567 9.6641 6.41661 10.0026 6.44531 10.3516C6.0026 10.3516 5.5599 10.3516 5.11719 10.3516C4.955 9.49652 5.16333 8.75433 5.74219 8.12503C6.35048 7.69915 6.93641 7.24342 7.5 6.75785C7.7709 6.18764 7.65371 5.70588 7.14844 5.31253C6.71463 5.18989 6.27192 5.16385 5.82031 5.23441C5.31233 5.48213 5.10399 5.88578 5.19531 6.44535C4.72656 6.44535 4.25781 6.44535 3.78906 6.44535C3.79895 5.03129 4.47603 4.14588 5.82031 3.7891Z" fill="#1387F1"/>
</g>
<g id="Group_4">
<path id="Vector_4" opacity="0.892" fill-rule="evenodd" clip-rule="evenodd" d="M30.8984 6.99219C31.3412 6.99219 31.7838 6.99219 32.2266 6.99219C32.2266 7.46094 32.2266 7.92969 32.2266 8.39844C31.7838 8.39844 31.3412 8.39844 30.8984 8.39844C30.8984 7.92969 30.8984 7.46094 30.8984 6.99219Z" fill="#1387F1"/>
</g>
<g id="Group_5">
<path id="Vector_5" opacity="0.892" fill-rule="evenodd" clip-rule="evenodd" d="M33.4766 6.99219C33.9193 6.99219 34.362 6.99219 34.8047 6.99219C34.8047 7.46094 34.8047 7.92969 34.8047 8.39844C34.362 8.39844 33.9193 8.39844 33.4766 8.39844C33.4766 7.92969 33.4766 7.46094 33.4766 6.99219Z" fill="#1387F1"/>
</g>
<g id="Group_6">
<path id="Vector_6" opacity="0.892" fill-rule="evenodd" clip-rule="evenodd" d="M36.0547 6.99219C36.4974 6.99219 36.9401 6.99219 37.3828 6.99219C37.3828 7.46094 37.3828 7.92969 37.3828 8.39844C36.9401 8.39844 36.4974 8.39844 36.0547 8.39844C36.0547 7.92969 36.0547 7.46094 36.0547 6.99219Z" fill="#1387F1"/>
</g>
<g id="Group_7">
<path id="Vector_7" opacity="0.892" fill-rule="evenodd" clip-rule="evenodd" d="M5.11719 11.5234C5.5599 11.5234 6.0026 11.5234 6.44531 11.5234C6.44531 11.9922 6.44531 12.4609 6.44531 12.9297C6.0026 12.9297 5.5599 12.9297 5.11719 12.9297C5.11719 12.4609 5.11719 11.9922 5.11719 11.5234Z" fill="#1387F1"/>
</g>
<g id="Group_8">
<path id="Vector_8" opacity="0.925" fill-rule="evenodd" clip-rule="evenodd" d="M32.7732 23.164C34.0147 22.9163 35.0174 23.281 35.781 24.2577C36.3885 25.4861 36.1932 26.5668 35.1951 27.4999C34.6653 27.8474 34.1575 28.225 33.6717 28.6327C33.5649 28.9609 33.5258 29.2994 33.5545 29.6484C33.0857 29.6484 32.617 29.6484 32.1482 29.6484C32.0276 28.7205 32.3141 27.9522 33.0076 27.3437C33.5364 26.9946 34.0442 26.617 34.531 26.2109C34.949 25.1958 34.6105 24.6228 33.5154 24.4921C32.6503 24.5109 32.2207 24.9535 32.2264 25.8202C31.7836 25.8202 31.341 25.8202 30.8982 25.8202C30.8723 24.4634 31.4973 23.5779 32.7732 23.164Z" fill="#1387F1"/>
</g>
<g id="Group_9">
<path id="Vector_9" opacity="0.892" fill-rule="evenodd" clip-rule="evenodd" d="M32.1484 30.8984C32.6172 30.8984 33.0859 30.8984 33.5547 30.8984C33.5547 31.3412 33.5547 31.7838 33.5547 32.2266C33.0859 32.2266 32.6172 32.2266 32.1484 32.2266C32.1484 31.7838 32.1484 31.3412 32.1484 30.8984Z" fill="#1387F1"/>
</g>
<g id="Group_10">
<path id="Vector_10" opacity="0.892" fill-rule="evenodd" clip-rule="evenodd" d="M2.53906 31.5234C2.98177 31.5234 3.42448 31.5234 3.86719 31.5234C3.86719 31.9922 3.86719 32.4609 3.86719 32.9297C3.42448 32.9297 2.98177 32.9297 2.53906 32.9297C2.53906 32.4609 2.53906 31.9922 2.53906 31.5234Z" fill="#1387F1"/>
</g>
<g id="Group_11">
<path id="Vector_11" opacity="0.892" fill-rule="evenodd" clip-rule="evenodd" d="M5.11719 31.5234C5.5599 31.5234 6.0026 31.5234 6.44531 31.5234C6.44531 31.9922 6.44531 32.4609 6.44531 32.9297C6.0026 32.9297 5.5599 32.9297 5.11719 32.9297C5.11719 32.4609 5.11719 31.9922 5.11719 31.5234Z" fill="#1387F1"/>
</g>
<g id="Group_12">
<path id="Vector_12" opacity="0.892" fill-rule="evenodd" clip-rule="evenodd" d="M7.69531 31.5234C8.13805 31.5234 8.5807 31.5234 9.02344 31.5234C9.02344 31.9922 9.02344 32.4609 9.02344 32.9297C8.5807 32.9297 8.13805 32.9297 7.69531 32.9297C7.69531 32.4609 7.69531 31.9922 7.69531 31.5234Z" fill="#1387F1"/>
</g>
</g>
<defs>
<clipPath id="clip0_242_920">
<rect width="40" height="40" fill="white"/>
</clipPath>
</defs>
</svg>
