<svg width="24" height="24" viewBox="0 0 24 24" fill="none" xmlns="http://www.w3.org/2000/svg">
<g clip-path="url(#clip0_229_690)">
<path d="M17 14C17 14.2652 16.8946 14.5196 16.7071 14.7071C16.5196 14.8947 16.2652 15 16 15H8C7.73478 15 7.48043 14.8947 7.29289 14.7071C7.10536 14.5196 7 14.2652 7 14C7 13.7348 7.10536 13.4805 7.29289 13.2929C7.48043 13.1054 7.73478 13 8 13H16C16.2652 13 16.5196 13.1054 16.7071 13.2929C16.8946 13.4805 17 13.7348 17 14ZM13 17H8C7.73478 17 7.48043 17.1054 7.29289 17.2929C7.10536 17.4805 7 17.7348 7 18C7 18.2652 7.10536 18.5196 7.29289 18.7071C7.48043 18.8947 7.73478 19 8 19H13C13.2652 19 13.5196 18.8947 13.7071 18.7071C13.8946 18.5196 14 18.2652 14 18C14 17.7348 13.8946 17.4805 13.7071 17.2929C13.5196 17.1054 13.2652 17 13 17ZM22 10.485V19C21.9984 20.3256 21.4711 21.5965 20.5338 22.5338C19.5964 23.4711 18.3256 23.9984 17 24H7C5.67441 23.9984 4.40356 23.4711 3.46622 22.5338C2.52888 21.5965 2.00159 20.3256 2 19V5.00002C2.00159 3.67443 2.52888 2.40358 3.46622 1.46624C4.40356 0.528905 5.67441 0.00161091 7 2.30487e-05H11.515C12.4346 -0.00234388 13.3456 0.177611 14.1952 0.529482C15.0449 0.881354 15.8163 1.39816 16.465 2.05002L19.949 5.53602C20.6012 6.18426 21.1184 6.95548 21.4704 7.805C21.8225 8.65451 22.0025 9.56545 22 10.485ZM15.051 3.46402C14.7363 3.15918 14.3829 2.89695 14 2.68402V7.00002C14 7.26524 14.1054 7.51959 14.2929 7.70713C14.4804 7.89467 14.7348 8.00002 15 8.00002H19.316C19.103 7.61721 18.8404 7.26417 18.535 6.95002L15.051 3.46402ZM20 10.485C20 10.32 19.968 10.162 19.953 10H15C14.2044 10 13.4413 9.68395 12.8787 9.12134C12.3161 8.55873 12 7.79567 12 7.00002V2.04702C11.838 2.03202 11.679 2.00002 11.515 2.00002H7C6.20435 2.00002 5.44129 2.31609 4.87868 2.8787C4.31607 3.44131 4 4.20437 4 5.00002V19C4 19.7957 4.31607 20.5587 4.87868 21.1213C5.44129 21.684 6.20435 22 7 22H17C17.7956 22 18.5587 21.684 19.1213 21.1213C19.6839 20.5587 20 19.7957 20 19V10.485Z" fill="#1387F1"/>
</g>
<defs>
<clipPath id="clip0_229_690">
<rect width="24" height="24" fill="white"/>
</clipPath>
</defs>
</svg>
