<svg width="42" height="42" viewBox="0 0 42 42" fill="none" xmlns="http://www.w3.org/2000/svg">
<g clip-path="url(#clip0_155_63)">
<path opacity="0.962" fill-rule="evenodd" clip-rule="evenodd" d="M10.459 0.615234C17.459 0.615234 24.459 0.615234 31.459 0.615234C31.4323 1.9751 31.4596 3.32861 31.541 4.67578C34.8475 5.38902 38.1561 6.08628 41.4668 6.76758C39.9948 13.8174 38.4909 20.8584 36.9551 27.8906C38.1151 32.7511 36.6932 36.6612 32.6895 39.6211C29.5323 41.5222 26.2237 41.823 22.7637 40.5234C19.3971 38.9753 17.319 36.3913 16.5293 32.7715C15.5996 32.7715 14.6699 32.7715 13.7402 32.7715C13.7402 33.209 13.7402 33.6465 13.7402 34.084C10.2128 34.0977 6.68544 34.084 3.1582 34.043C1.83203 33.7011 0.99805 32.8672 0.65625 31.541C0.375608 29.8742 0.963498 28.6301 2.41992 27.8086C3.18853 27.547 3.9815 27.4513 4.79883 27.5215C3.3627 20.6012 1.91349 13.6831 0.451172 6.76758C3.7619 6.08628 7.07049 5.38902 10.377 4.67578C10.4583 3.32861 10.4856 1.9751 10.459 0.615234ZM11.7715 1.92773C17.8965 1.92773 24.0215 1.92773 30.1465 1.92773C30.1602 8.21682 30.1465 14.5059 30.1055 20.7949C29.6977 20.6286 29.2738 20.5191 28.834 20.4668C28.834 19.0996 28.834 17.7324 28.834 16.3652C23.584 16.3652 18.334 16.3652 13.084 16.3652C13.084 19.6465 13.084 22.9277 13.084 26.209C14.5069 26.1817 15.9287 26.209 17.3496 26.291C16.9442 27.097 16.6708 27.9446 16.5293 28.834C15.5996 28.834 14.6699 28.834 13.7402 28.834C13.7402 28.3965 13.7402 27.959 13.7402 27.5215C13.084 27.5215 12.4277 27.5215 11.7715 27.5215C11.7715 18.9902 11.7715 10.459 11.7715 1.92773ZM10.2129 6.11133C10.2949 6.11133 10.377 6.11133 10.459 6.11133C10.4726 6.68619 10.459 7.26041 10.418 7.83398C8.63453 7.37216 7.29469 7.94638 6.39844 9.55664C5.75603 11.3064 6.17987 12.7283 7.66992 13.8223C5.96238 15.2573 5.33348 17.0757 5.7832 19.2773C5.83626 19.695 5.94564 20.0915 6.11133 20.4668C7.54996 20.1135 8.99916 19.8127 10.459 19.5645C10.459 19.9746 10.459 20.3848 10.459 20.7949C9.06413 21.0684 7.6696 21.3418 6.27539 21.6152C6.70654 23.5796 7.11669 25.5483 7.50586 27.5215C7.0957 27.5215 6.68555 27.5215 6.27539 27.5215C4.8939 20.9838 3.49937 14.4487 2.0918 7.91602C4.80844 7.31274 7.51547 6.71118 10.2129 6.11133ZM31.459 6.11133C34.2547 6.68141 37.0438 7.28297 39.8262 7.91602C38.5674 13.7986 37.2959 19.6776 36.0117 25.5527C34.9305 23.7195 33.4403 22.325 31.541 21.3691C31.459 16.2835 31.4317 11.1976 31.459 6.11133ZM8.98242 9.06445C9.28446 9.05092 9.58519 9.06454 9.88477 9.10547C10.0926 9.1478 10.2703 9.24353 10.418 9.39258C10.4863 10.4601 10.4726 11.5265 10.377 12.5918C9.28143 13.1296 8.39278 12.8835 7.71094 11.8535C7.27061 10.5199 7.69444 9.59011 8.98242 9.06445ZM10.2949 14.1504C10.4578 15.4327 10.5124 16.7452 10.459 18.0879C9.34164 18.2976 8.23421 18.5437 7.13672 18.8262C6.88336 16.3785 7.93609 14.8199 10.2949 14.1504ZM14.3965 17.6777C18.7715 17.6777 23.1465 17.6777 27.5215 17.6777C27.5215 18.5528 27.5215 19.4277 27.5215 20.3027C23.5892 20.1772 20.472 21.6948 18.1699 24.8555C16.9124 24.8965 15.6546 24.9102 14.3965 24.8965C14.3965 22.4903 14.3965 20.084 14.3965 17.6777ZM26.7832 21.6152C30.7129 21.822 33.543 23.6814 35.2734 27.1934C36.6083 30.7291 36.0888 33.9556 33.7148 36.873C30.7292 39.8856 27.2428 40.6649 23.2559 39.2109C19.1062 37.1059 17.3152 33.729 17.8828 29.0801C18.8262 25.1836 21.2461 22.7637 25.1426 21.8203C25.701 21.7479 26.2479 21.6795 26.7832 21.6152ZM10.2949 22.1895C10.4581 23.9374 10.5128 25.7147 10.459 27.5215C9.94563 27.5469 9.43983 27.5195 8.94141 27.4395C8.60032 25.857 8.28589 24.2711 7.99805 22.6816C8.78407 22.5684 9.54967 22.4043 10.2949 22.1895ZM3.89648 28.834C6.74024 28.834 9.58396 28.834 12.4277 28.834C12.4277 30.1465 12.4277 31.459 12.4277 32.7715C9.58387 32.7852 6.74011 32.7715 3.89648 32.7305C2.50453 32.5145 1.88929 31.7079 2.05078 30.3105C2.36913 29.4303 2.98436 28.9381 3.89648 28.834ZM13.7402 30.1465C14.6153 30.1465 15.4902 30.1465 16.3652 30.1465C16.3652 30.584 16.3652 31.0215 16.3652 31.459C15.4902 31.459 14.6153 31.459 13.7402 31.459C13.7402 31.0215 13.7402 30.584 13.7402 30.1465Z" fill="#1387F1"/>
<path opacity="0.948" fill-rule="evenodd" clip-rule="evenodd" d="M17.5957 3.24034C19.1798 3.00061 20.3965 3.54749 21.246 4.88097C21.9074 6.37576 21.7023 7.72927 20.6308 8.94151C22.2239 9.76978 23.1946 11.0686 23.5429 12.838C23.5839 13.5758 23.5976 14.3141 23.5839 15.0528C20.0839 15.0528 16.584 15.0528 13.0839 15.0528C12.7233 12.7558 13.4343 10.8828 15.2167 9.4337C15.4902 9.26964 15.7637 9.10558 16.0371 8.94151C15.0332 7.86347 14.7735 6.61933 15.2578 5.20909C15.7305 4.175 16.5098 3.51875 17.5957 3.24034ZM17.7597 4.63487C16.7342 5.09976 16.3103 5.89273 16.4882 7.01378C16.8897 8.11022 17.669 8.56138 18.8261 8.3673C19.9226 7.96581 20.3737 7.18651 20.1796 6.0294C19.7542 4.92074 18.9476 4.4559 17.7597 4.63487ZM17.5957 9.88487C15.6513 10.435 14.6123 11.7201 14.4785 13.7403C17.0488 13.7403 19.6191 13.7403 22.1894 13.7403C22.2029 13.4928 22.1892 13.2467 22.1484 13.0021C21.4686 10.7514 19.951 9.71228 17.5957 9.88487Z" fill="#1387F1"/>
<path fill-rule="evenodd" clip-rule="evenodd" d="M24.8965 3.24023C26.209 3.24023 27.5215 3.24023 28.834 3.24023C28.834 3.67773 28.834 4.11524 28.834 4.55273C27.5215 4.55273 26.209 4.55273 24.8965 4.55273C24.8965 4.11524 24.8965 3.67773 24.8965 3.24023Z" fill="#1387F1"/>
<path fill-rule="evenodd" clip-rule="evenodd" d="M24.8965 5.86523C26.209 5.86523 27.5215 5.86523 28.834 5.86523C28.834 6.30273 28.834 6.74024 28.834 7.17773C27.5215 7.17773 26.209 7.17773 24.8965 7.17773C24.8965 6.74024 24.8965 6.30273 24.8965 5.86523Z" fill="#1387F1"/>
<path opacity="0.914" fill-rule="evenodd" clip-rule="evenodd" d="M34.4121 7.99805C35.6699 8.25234 36.9277 8.51214 38.1855 8.77734C38.2617 8.80917 38.3164 8.86389 38.3496 8.94141C38.2661 9.37305 38.1567 9.79691 38.0215 10.2129C36.7451 9.89748 35.4599 9.62399 34.166 9.39258C34.2349 8.92557 34.317 8.4607 34.4121 7.99805Z" fill="#1387F1"/>
<path fill-rule="evenodd" clip-rule="evenodd" d="M24.8965 8.49023C26.209 8.49023 27.5215 8.49023 28.834 8.49023C28.834 8.92771 28.834 9.36526 28.834 9.80273C27.5215 9.80273 26.209 9.80273 24.8965 9.80273C24.8965 9.36526 24.8965 8.92771 24.8965 8.49023Z" fill="#1387F1"/>
<path opacity="0.914" fill-rule="evenodd" clip-rule="evenodd" d="M33.8379 10.541C35.1478 10.8248 36.4603 11.0983 37.7754 11.3613C37.7337 11.775 37.6653 12.1852 37.5703 12.5918C37.5385 12.6679 37.4838 12.7226 37.4062 12.7559C36.1395 12.456 34.868 12.1826 33.5918 11.9355C33.7055 11.4766 33.7875 11.0117 33.8379 10.541Z" fill="#1387F1"/>
<path fill-rule="evenodd" clip-rule="evenodd" d="M24.8965 11.1152C26.209 11.1152 27.5215 11.1152 28.834 11.1152C28.834 11.5527 28.834 11.9903 28.834 12.4277C27.5215 12.4277 26.209 12.4277 24.8965 12.4277C24.8965 11.9903 24.8965 11.5527 24.8965 11.1152Z" fill="#1387F1"/>
<path opacity="0.914" fill-rule="evenodd" clip-rule="evenodd" d="M33.3457 13.166C34.6799 13.3754 35.9924 13.6625 37.2832 14.0273C37.1542 14.44 37.0721 14.8638 37.0371 15.2988C35.6868 15.0589 34.347 14.7718 33.0176 14.4375C33.1335 14.0149 33.2428 13.5911 33.3457 13.166Z" fill="#1387F1"/>
<path fill-rule="evenodd" clip-rule="evenodd" d="M24.8965 13.7402C26.209 13.7402 27.5215 13.7402 28.834 13.7402C28.834 14.1777 28.834 14.6153 28.834 15.0527C27.5215 15.0527 26.209 15.0527 24.8965 15.0527C24.8965 14.6153 24.8965 14.1777 24.8965 13.7402Z" fill="#1387F1"/>
<path opacity="0.915" fill-rule="evenodd" clip-rule="evenodd" d="M32.7715 15.709C34.0647 15.9434 35.3499 16.2168 36.627 16.5293C36.6543 16.5703 36.6817 16.6113 36.709 16.6523C36.611 17.0464 36.529 17.4429 36.4629 17.8418C35.1465 17.6168 33.834 17.3707 32.5254 17.1035C32.5943 16.6365 32.6763 16.1716 32.7715 15.709Z" fill="#1387F1"/>
<path opacity="0.913" fill-rule="evenodd" clip-rule="evenodd" d="M32.1973 18.252C33.5121 18.5149 34.8246 18.7884 36.1348 19.0723C36.1082 19.5616 35.9988 20.0264 35.8066 20.4668C34.5296 20.1543 33.2444 19.8809 31.9512 19.6465C32.0463 19.1838 32.1284 18.719 32.1973 18.252Z" fill="#1387F1"/>
<path opacity="0.929" fill-rule="evenodd" clip-rule="evenodd" d="M25.7167 22.9277C29.7773 22.6322 32.6348 24.3275 34.289 28.0136C35.481 32.0673 34.3463 35.2802 30.8847 37.6523C29.0535 38.6684 27.1121 38.9555 25.0605 38.5136C21.6968 37.5698 19.687 35.3823 19.0312 31.9511C18.6959 27.8885 20.3775 25.0311 24.0761 23.3788C24.6264 23.2005 25.1733 23.0501 25.7167 22.9277ZM26.7831 24.2402C23.8121 24.4751 21.775 25.979 20.6718 28.7519C19.8846 31.6619 20.6365 34.0819 22.9277 36.0117C25.5527 37.8163 28.1777 37.8163 30.8027 36.0117C33.2193 33.9337 33.9166 31.377 32.8945 28.3417C31.6861 25.7605 29.649 24.3933 26.7831 24.2402Z" fill="#1387F1"/>
</g>
<defs>
<clipPath id="clip0_155_63">
<rect width="42" height="42" fill="white"/>
</clipPath>
</defs>
</svg>
