<svg width="42" height="42" viewBox="0 0 42 42" fill="none" xmlns="http://www.w3.org/2000/svg">
<path opacity="0.943" fill-rule="evenodd" clip-rule="evenodd" d="M20.5488 1.27141C20.8236 1.25787 21.097 1.27155 21.3691 1.31242C26.7559 3.03508 32.1426 4.75774 37.5293 6.48039C37.7391 6.53661 37.8895 6.65965 37.9805 6.84953C38.0352 11.416 38.0352 15.9823 37.9805 20.5487C37.4966 24.6745 35.7604 28.1608 32.7715 31.0077C28.998 34.1796 25.2246 37.3515 21.4512 40.5234C21.123 40.6874 20.7949 40.6874 20.4668 40.5234C16.6934 37.3515 12.9199 34.1796 9.14648 31.0077C6.15763 28.1608 4.42129 24.6745 3.9375 20.5487C3.85616 15.9209 3.88351 11.2998 4.01953 6.68547C9.52785 4.85389 15.0376 3.0492 20.5488 1.27141ZM20.877 2.66594C26.1493 4.35047 31.4266 6.01843 36.709 7.66985C36.7424 11.9092 36.7014 16.1475 36.5859 20.3847C36.1423 24.3484 34.4334 27.6433 31.459 30.2695C27.9741 33.2011 24.4741 36.1132 20.959 39.0058C17.4709 36.0783 13.971 33.1661 10.459 30.2695C7.48462 27.6433 5.77563 24.3484 5.33203 20.3847C5.21663 16.1475 5.17561 11.9092 5.20898 7.66985C10.4546 6.04882 15.6772 4.38085 20.877 2.66594Z" fill="#1387F1"/>
<path opacity="0.953" fill-rule="evenodd" clip-rule="evenodd" d="M20.7129 3.97852C25.4897 5.39296 30.2475 6.8832 34.9863 8.44922C35.1328 8.51361 35.2559 8.60926 35.3555 8.73633C35.4102 12.6191 35.4102 16.502 35.3555 20.3848C34.9762 23.6723 33.6226 26.475 31.2949 28.793C28.0015 31.6016 24.693 34.3906 21.3691 37.1602C21.0957 37.3242 20.8222 37.3242 20.5488 37.1602C17.5137 34.6172 14.4785 32.0742 11.4434 29.5312C8.62485 27.1353 6.99789 24.0864 6.5625 20.3848C6.50781 16.502 6.50781 12.6191 6.5625 8.73633C6.66209 8.60926 6.78513 8.51361 6.93164 8.44922C11.5424 6.9806 16.1361 5.49036 20.7129 3.97852ZM20.7129 5.45508C16.4432 6.85547 12.1639 8.24996 7.875 9.63867C7.82031 12.7285 7.82031 15.8183 7.875 18.9082C7.8854 20.1673 8.07681 21.3978 8.44922 22.5996C8.67472 21.0618 9.53605 20.0911 11.0332 19.6875C12.4004 19.6328 13.7676 19.6328 15.1348 19.6875C16.982 20.2755 17.8434 21.547 17.7188 23.502C18.0776 23.2454 18.4741 23.0677 18.9082 22.9688C20.2754 22.914 21.6426 22.914 23.0098 22.9688C23.4439 23.0677 23.8403 23.2454 24.1992 23.502C24.0746 21.547 24.9359 20.2755 26.7832 19.6875C28.1504 19.6328 29.5176 19.6328 30.8848 19.6875C32.3819 20.0911 33.2432 21.0618 33.4688 22.5996C33.8479 21.3709 34.0394 20.1131 34.043 18.8262C34.0977 15.7637 34.0977 12.7011 34.043 9.63867C29.6259 8.15259 25.1825 6.75806 20.7129 5.45508ZM12.5098 11.8535C11.4729 12.3674 11.0081 13.215 11.1152 14.3965C11.0353 16.1465 11.8556 16.9804 13.5762 16.8984C14.6859 16.4444 15.1781 15.6104 15.0527 14.3965C15.1251 12.6094 14.2775 11.7618 12.5098 11.8535ZM28.2598 11.8535C27.2229 12.3674 26.7581 13.215 26.8652 14.3965C26.7853 16.1465 27.6056 16.9804 29.3262 16.8984C30.4359 16.4444 30.9281 15.6104 30.8027 14.3965C30.8751 12.6094 30.0275 11.7618 28.2598 11.8535ZM20.3848 15.1348C19.3479 15.6486 18.8831 16.4962 18.9902 17.6777C18.9103 19.4277 19.7306 20.2616 21.4512 20.1797C22.5609 19.7256 23.0531 18.8916 22.9277 17.6777C23.0001 15.8907 22.1525 15.0431 20.3848 15.1348ZM11.7715 20.959C10.6513 21.1358 10.0088 21.7921 9.84375 22.9277C9.78904 23.8028 9.78904 24.6777 9.84375 25.5527C10.1949 26.0954 10.5777 26.6149 10.9922 27.1113C12.6952 28.7191 14.4589 30.2504 16.2832 31.7051C16.3789 28.7797 16.3926 25.8539 16.3242 22.9277C16.2452 22.0012 15.7667 21.386 14.8887 21.082C13.8534 20.9693 12.8143 20.9283 11.7715 20.959ZM27.5215 20.959C26.6081 21.0645 25.9929 21.5567 25.6758 22.4355C25.5832 24.0596 25.5422 25.6865 25.5527 27.3164C25.5801 28.7793 25.6075 30.2422 25.6348 31.7051C27.0687 30.531 28.4905 29.3416 29.9004 28.1367C30.7175 27.3475 31.4422 26.4862 32.0742 25.5527C32.1289 24.6777 32.1289 23.8028 32.0742 22.9277C31.9952 22.0012 31.5167 21.386 30.6387 21.082C29.6034 20.9693 28.5643 20.9283 27.5215 20.959ZM19.6465 24.2402C18.7331 24.3457 18.1179 24.8379 17.8008 25.7168C17.6681 28.1202 17.6407 30.5265 17.7188 32.9355C18.7653 33.8598 19.8454 34.7348 20.959 35.5605C22.0726 34.7348 23.1527 33.8598 24.1992 32.9355C24.2539 30.6934 24.2539 28.4511 24.1992 26.209C24.0489 25.0742 23.4062 24.4316 22.2715 24.2812C21.397 24.2402 20.5219 24.2265 19.6465 24.2402Z" fill="#1387F1"/>
</svg>
