<svg width="42" height="42" viewBox="0 0 42 42" fill="none" xmlns="http://www.w3.org/2000/svg">
<g clip-path="url(#clip0_155_101)">
<path opacity="0.96" fill-rule="evenodd" clip-rule="evenodd" d="M20.3027 -0.0410156C20.7402 -0.0410156 21.1778 -0.0410156 21.6152 -0.0410156C23.1012 0.505705 23.7165 1.57211 23.4609 3.1582C23.334 3.57422 23.1699 3.95703 22.9688 4.30664C25.3166 7.34808 27.6545 10.3969 29.9824 13.4531C33.373 13.4804 36.7637 13.5078 40.1543 13.5352C41.0359 13.8018 41.6375 14.3623 41.959 15.2168C41.959 19.1543 41.959 23.0918 41.959 27.0293C41.5622 27.4614 41.1657 27.4614 40.7695 27.0293C40.7422 23.3106 40.7148 19.5918 40.6875 15.873C40.6468 15.3672 40.3871 15.0254 39.9082 14.8477C36.9551 14.7929 34.002 14.7929 31.0488 14.8477C31.4043 15.3125 31.7598 15.7773 32.1152 16.2422C33.3156 16.0036 34.2316 16.4001 34.8633 17.4316C35.3108 18.8464 34.8597 19.8444 33.5098 20.4258C32.034 20.6935 31.118 20.1056 30.7617 18.6621C30.6975 18.1076 30.8205 17.6018 31.1309 17.1445C30.5409 16.4043 29.9667 15.6523 29.4082 14.8887C27.0298 14.8203 24.6509 14.7793 22.2715 14.7656C21.8074 14.6156 21.6569 14.3011 21.8203 13.8223C21.8613 13.6719 21.9571 13.5762 22.1074 13.5352C24.1855 13.5078 26.2637 13.4804 28.3418 13.4531C26.1854 10.6577 24.0388 7.85504 21.9023 5.04492C21.3348 5.06404 20.7606 5.03669 20.1797 4.96289C17.9534 7.76464 15.7522 10.5947 13.5762 13.4531C15.6543 13.4804 17.7324 13.5078 19.8105 13.5352C19.9609 13.5762 20.0566 13.6719 20.0977 13.8223C20.2611 14.3011 20.1106 14.6156 19.6465 14.7656C17.2671 14.7793 14.8882 14.8203 12.5098 14.8887C11.9513 15.6523 11.3771 16.4043 10.7871 17.1445C11.4329 18.3086 11.2415 19.3203 10.2129 20.1797C8.76619 20.8369 7.68611 20.4678 6.97266 19.0723C6.64493 17.6354 7.17814 16.692 8.57227 16.2422C8.98529 16.2079 9.39545 16.2079 9.80273 16.2422C10.1582 15.7773 10.5137 15.3125 10.8691 14.8477C7.91602 14.7929 4.96289 14.7929 2.00977 14.8477C1.53091 15.0254 1.27114 15.3672 1.23047 15.873C1.17578 23.7754 1.17578 31.6778 1.23047 39.5801C1.32617 40.2226 1.69532 40.5918 2.33789 40.6875C14.8915 40.769 27.4422 40.7416 39.9902 40.6055C40.4192 40.3956 40.6516 40.0538 40.6875 39.5801C40.7148 36.1348 40.7422 32.6895 40.7695 29.2441C41.1658 28.8105 41.5624 28.8105 41.959 29.2441C41.959 32.9082 41.959 36.5722 41.959 40.2363C41.6309 41.0566 41.0566 41.6309 40.2363 41.959C27.3847 41.959 14.5332 41.959 1.68164 41.959C0.861328 41.6309 0.287109 41.0566 -0.0410156 40.2363C-0.0410156 31.8965 -0.0410156 23.5567 -0.0410156 15.2168C0.280501 14.3623 0.882066 13.8018 1.76367 13.5352C5.15429 13.5078 8.54495 13.4804 11.9355 13.4531C14.2734 10.4043 16.6113 7.35547 18.9492 4.30664C18.7481 3.95703 18.584 3.57422 18.457 3.1582C18.2015 1.57211 18.8167 0.505705 20.3027 -0.0410156ZM20.5488 1.27148C21.9651 1.25153 22.4436 1.90778 21.9844 3.24023C21.4716 3.77432 20.8837 3.87001 20.2207 3.52734C19.6866 3.01455 19.591 2.42666 19.9336 1.76367C20.107 1.54868 20.3121 1.38462 20.5488 1.27148ZM8.81836 17.5137C9.65065 17.5402 9.96516 17.9503 9.76172 18.7441C9.26568 19.2903 8.77349 19.2903 8.28516 18.7441C8.10294 18.1788 8.28064 17.7686 8.81836 17.5137ZM32.6895 17.5137C33.5222 17.5413 33.8367 17.9515 33.6328 18.7441C33.1445 19.2903 32.6523 19.2903 32.1562 18.7441C31.9757 18.1783 32.1535 17.7681 32.6895 17.5137Z" fill="#1387F1"/>
<path opacity="0.931" fill-rule="evenodd" clip-rule="evenodd" d="M4.30664 22.5997C4.66834 22.5274 4.95545 22.6368 5.16797 22.9278C5.42698 23.9365 5.67308 24.9483 5.90625 25.963C6.19241 25.0644 6.46585 24.1621 6.72656 23.256C6.92633 22.8685 7.24078 22.7454 7.66992 22.8868C7.73828 22.9552 7.80664 23.0236 7.875 23.0919C8.20862 24.0381 8.50935 24.995 8.77734 25.963C9.03632 24.9543 9.28241 23.9426 9.51562 22.9278C9.86836 22.5221 10.2512 22.4948 10.6641 22.8458C10.7807 23.0534 10.808 23.2721 10.7461 23.5021C10.3359 25.1974 9.92578 26.8927 9.51562 28.588C9.45468 28.9908 9.22228 29.2096 8.81836 29.2443C8.59573 29.2082 8.41805 29.0987 8.28516 28.9161C7.97856 27.928 7.6641 26.9436 7.3418 25.963C7.02735 26.9474 6.71289 27.9318 6.39844 28.9161C6.07005 29.3197 5.71458 29.347 5.33203 28.9982C4.80166 27.0849 4.32314 25.1572 3.89648 23.215C3.92364 22.9295 4.06037 22.7244 4.30664 22.5997Z" fill="#1387F1"/>
<path opacity="0.927" fill-rule="evenodd" clip-rule="evenodd" d="M13.5761 22.5997C15.9186 22.498 17.2311 23.6055 17.5136 25.9219C17.2817 27.9038 16.1743 29.0112 14.1913 29.2442C11.8031 28.9614 10.7093 27.6215 10.9101 25.2247C11.3033 23.8333 12.192 22.9583 13.5761 22.5997ZM13.7402 23.9122C15.1574 23.8273 15.9777 24.4836 16.2011 25.8809C15.9044 27.5328 14.9473 28.148 13.33 27.7266C12.2483 27.0792 11.9338 26.1632 12.3866 24.9786C12.7117 24.4469 13.1628 24.0915 13.7402 23.9122Z" fill="#1387F1"/>
<path opacity="0.93" fill-rule="evenodd" clip-rule="evenodd" d="M18.3341 22.5998C19.1001 22.5862 19.8658 22.5998 20.6309 22.6408C21.9482 23.1288 22.3994 24.0449 21.9845 25.3889C21.7126 25.9343 21.2887 26.3035 20.713 26.4963C21.1741 27.1042 21.6253 27.7195 22.0665 28.342C22.149 28.8322 21.9439 29.1329 21.4512 29.2444C21.2782 29.1989 21.1141 29.1305 20.9591 29.0393C20.3985 28.3147 19.8379 27.59 19.2774 26.8655C19.2727 27.5847 19.2179 28.2957 19.1134 28.9983C18.7579 29.3264 18.4024 29.3264 18.047 28.9983C17.9118 27.0093 17.8845 25.0133 17.9649 23.01C18.049 22.8306 18.172 22.6938 18.3341 22.5998ZM19.2364 23.9123C19.2364 24.3498 19.2364 24.7874 19.2364 25.2248C19.6202 25.2384 20.003 25.2247 20.3848 25.1838C20.5313 25.1194 20.6544 25.0238 20.754 24.8967C20.8954 24.4676 20.7724 24.1531 20.3848 23.9533C20.003 23.9124 19.6202 23.8987 19.2364 23.9123Z" fill="#1387F1"/>
<path opacity="0.921" fill-rule="evenodd" clip-rule="evenodd" d="M23.0098 22.5997C23.2032 22.5863 23.3946 22.5999 23.5841 22.6407C23.7344 22.6817 23.8301 22.7775 23.8712 22.9278C23.8985 23.4747 23.9259 24.0215 23.9532 24.5684C24.5684 23.9532 25.1837 23.338 25.7989 22.7227C26.2019 22.5105 26.5437 22.5789 26.8243 22.9278C26.8891 23.1849 26.8618 23.431 26.7423 23.6661C26.0028 24.3919 25.2782 25.1302 24.5684 25.8809C25.3353 26.6615 26.0873 27.4545 26.8243 28.2598C26.9027 29.1544 26.5336 29.4141 25.7169 29.0391C25.1589 28.3991 24.571 27.7838 23.9532 27.1934C23.9259 27.7677 23.8985 28.3419 23.8712 28.9161C23.4883 29.3536 23.1056 29.3536 22.7227 28.9161C22.5894 27.0062 22.562 25.092 22.6407 23.1739C22.6842 22.9208 22.8072 22.7295 23.0098 22.5997Z" fill="#1387F1"/>
<path opacity="0.924" fill-rule="evenodd" clip-rule="evenodd" d="M30.9668 22.5997C31.3285 22.5274 31.6156 22.6368 31.8281 22.9278C31.8829 24.8966 31.8829 26.8653 31.8281 28.8341C31.3876 29.4016 30.9775 29.3742 30.5977 28.7521C30.543 26.8653 30.543 24.9786 30.5977 23.0919C30.6468 22.866 30.7699 22.7019 30.9668 22.5997Z" fill="#1387F1"/>
<path opacity="0.928" fill-rule="evenodd" clip-rule="evenodd" d="M33.5918 22.5997C33.9535 22.5274 34.2406 22.6368 34.4531 22.9278C35.1914 24.049 35.9297 25.17 36.668 26.2911C36.6953 25.17 36.7227 24.049 36.75 22.9278C37.1028 22.5221 37.4856 22.4948 37.8985 22.8458C38.0335 24.8073 38.0609 26.7761 37.9805 28.7521C37.6941 29.2886 37.3113 29.3706 36.832 28.9982C36.046 27.8364 35.2803 26.6606 34.5352 25.4708C34.5079 26.5919 34.4805 27.713 34.4531 28.8341C34.1067 29.3306 33.724 29.3579 33.3047 28.9161C33.1697 26.9819 33.1424 25.0406 33.2227 23.0919C33.2718 22.866 33.3949 22.7019 33.5918 22.5997Z" fill="#1387F1"/>
<path opacity="0.929" fill-rule="evenodd" clip-rule="evenodd" d="M4.47071 31.7052C5.15863 31.6816 5.84223 31.7226 6.52149 31.8282C7.59589 32.3982 7.91035 33.2595 7.46485 34.4122C6.9059 35.163 6.15395 35.4638 5.20899 35.3145C5.24469 35.9799 5.20367 36.6362 5.08594 37.2833C4.73047 37.6114 4.375 37.6114 4.01953 37.2833C3.99219 37.2013 3.96484 37.1192 3.9375 37.0372C3.88281 35.4239 3.88281 33.8107 3.9375 32.1974C4.05531 31.956 4.23304 31.792 4.47071 31.7052ZM5.20899 33.0177C5.20899 33.3458 5.20899 33.6739 5.20899 34.002C5.48378 34.0156 5.75722 34.0019 6.0293 33.961C6.38277 33.75 6.43745 33.4766 6.19336 33.1407C5.87384 33.0369 5.54572 32.9958 5.20899 33.0177Z" fill="#1387F1"/>
<path opacity="0.932" fill-rule="evenodd" clip-rule="evenodd" d="M8.49024 31.7052C9.24099 31.6604 9.97927 31.7288 10.7051 31.9103C11.7976 32.6709 11.9753 33.6142 11.2383 34.7403C11.028 34.923 10.7956 35.0735 10.541 35.1915C10.8828 35.6427 11.2246 36.0939 11.5664 36.545C11.689 37.3251 11.3745 37.6122 10.623 37.4064C10.162 36.8533 9.71086 36.2928 9.26953 35.7247C9.26272 36.2532 9.20809 36.7727 9.10547 37.2833C8.65914 37.6464 8.2763 37.5917 7.95703 37.1192C7.90234 35.4786 7.90234 33.838 7.95703 32.1974C8.07484 31.956 8.25259 31.792 8.49024 31.7052ZM9.22852 33.0177C9.22852 33.3458 9.22852 33.6739 9.22852 34.0021C9.56526 34.0239 9.89338 33.9829 10.2129 33.879C10.3799 33.6904 10.4072 33.4853 10.2949 33.2638C9.97648 33.0455 9.62096 32.9635 9.22852 33.0177Z" fill="#1387F1"/>
<path opacity="0.926" fill-rule="evenodd" clip-rule="evenodd" d="M14.5605 31.7051C16.3809 31.8574 17.3926 32.8418 17.5957 34.6582C17.2492 36.8228 15.9914 37.7389 13.8223 37.4062C12.5324 36.9466 11.8488 36.0307 11.7715 34.6582C11.8915 32.8978 12.8212 31.9134 14.5605 31.7051ZM14.5605 33.0176C14.1548 33.0976 13.7994 33.289 13.4941 33.5918C12.8143 34.6282 13.0058 35.4622 14.0684 36.0938C15.3053 36.3619 16.0436 35.8697 16.2832 34.6172C16.1164 33.6437 15.5422 33.1105 14.5605 33.0176Z" fill="#1387F1"/>
<path opacity="0.919" fill-rule="evenodd" clip-rule="evenodd" d="M19.5645 31.7051C20.6299 31.7459 21.2861 32.2791 21.5332 33.3047C21.429 33.9449 21.0736 34.1362 20.4668 33.8789C20.3175 33.6217 20.1535 33.3756 19.9746 33.1406C19.692 32.9858 19.4323 33.0268 19.1953 33.2637C19.0625 34.1306 19.0352 35.0056 19.1133 35.8887C19.59 36.3544 19.9864 36.2861 20.3028 35.6836C19.5807 35.62 19.3482 35.2509 19.6055 34.5762C19.6796 34.4777 19.7752 34.4092 19.8926 34.3711C20.3996 34.2873 20.8917 34.3283 21.3692 34.4941C21.5671 34.7293 21.6491 35.0028 21.6153 35.3145C21.6366 36.2704 21.2264 36.9676 20.3848 37.4062C19.1381 37.748 18.2767 37.3241 17.8008 36.1348C17.7461 35.1231 17.7461 34.1113 17.8008 33.0996C18.1087 32.2701 18.6967 31.8053 19.5645 31.7051Z" fill="#1387F1"/>
<path opacity="0.931" fill-rule="evenodd" clip-rule="evenodd" d="M22.6817 31.7052C23.4324 31.6604 24.1707 31.7288 24.8965 31.9103C25.9545 32.6227 26.1596 33.5387 25.5117 34.6583C25.2745 34.8681 25.0147 35.0458 24.7324 35.1915C25.1816 35.6948 25.5644 36.2416 25.8809 36.8321C25.7456 37.4329 25.3902 37.6244 24.8145 37.4064C24.3535 36.8533 23.9023 36.2928 23.461 35.7247C23.4541 36.2532 23.3995 36.7727 23.2969 37.2833C22.8506 37.6464 22.4677 37.5917 22.1485 37.1192C22.0937 35.4786 22.0937 33.838 22.1485 32.1974C22.2663 31.956 22.444 31.792 22.6817 31.7052ZM23.4199 33.0177C23.4199 33.3458 23.4199 33.6739 23.4199 34.0021C23.7567 34.0239 24.0848 33.9829 24.4043 33.879C24.5713 33.6904 24.5986 33.4853 24.4863 33.2638C24.1679 33.0455 23.8124 32.9635 23.4199 33.0177Z" fill="#1387F1"/>
<path opacity="0.92" fill-rule="evenodd" clip-rule="evenodd" d="M26.8653 31.7053C27.5221 31.6917 28.1783 31.7053 28.834 31.7463C29.4838 32.042 29.5658 32.4522 29.0801 32.9768C28.5886 33.0177 28.0965 33.0314 27.6035 33.0178C27.6035 33.3459 27.6035 33.674 27.6035 34.0022C28.0419 33.9886 28.4794 34.0023 28.916 34.0432C29.2625 34.2889 29.3581 34.6034 29.2031 34.9865C29.1036 35.1136 28.9805 35.2093 28.834 35.2737C28.4248 35.3146 28.0146 35.3283 27.6035 35.3147C27.6035 35.6155 27.6035 35.9162 27.6035 36.217C28.0691 36.2034 28.534 36.2171 28.9981 36.258C29.5436 36.6646 29.5436 37.0747 28.9981 37.4885C28.2325 37.5432 27.4668 37.5432 26.7012 37.4885C26.5186 37.3878 26.3955 37.2374 26.3321 37.0373C26.2773 35.4514 26.2773 33.8654 26.3321 32.2795C26.4156 31.9912 26.5933 31.7998 26.8653 31.7053Z" fill="#1387F1"/>
<path opacity="0.922" fill-rule="evenodd" clip-rule="evenodd" d="M31.213 31.7872C32.0876 31.674 32.8395 31.9201 33.4688 32.5255C33.7691 33.3606 33.482 33.7023 32.6075 33.5509C32.2498 33.1094 31.8122 33.0001 31.295 33.2228C31.2403 33.3048 31.1857 33.3869 31.131 33.4689C31.3221 33.6467 31.5409 33.7834 31.7872 33.879C32.4527 34.0134 33.0132 34.3278 33.4688 34.8224C33.9605 36.4383 33.359 37.3406 31.6642 37.5294C31.2129 37.4976 30.7891 37.3746 30.3927 37.1603C29.9019 36.6065 29.9976 36.1826 30.6798 35.8888C31.0001 36.0217 31.3282 36.131 31.6642 36.2169C32.1143 36.2045 32.333 35.9857 32.3204 35.5607C31.6551 35.2933 31.0124 34.9788 30.3927 34.6173C29.6249 33.7767 29.6523 32.9564 30.4747 32.1564C30.7283 32.0296 30.9744 31.9065 31.213 31.7872Z" fill="#1387F1"/>
<path opacity="0.918" fill-rule="evenodd" clip-rule="evenodd" d="M35.5605 31.7872C36.4566 31.6802 37.2085 31.9536 37.8164 32.6076C38.0222 33.359 37.7351 33.6735 36.9551 33.5509C36.6983 33.3132 36.3975 33.1627 36.0527 33.0997C35.383 33.2185 35.3283 33.451 35.8887 33.797C36.3993 33.9399 36.8915 34.1313 37.3652 34.3712C38.2402 35.2736 38.2402 36.1759 37.3652 37.0783C36.3657 37.7023 35.3951 37.6613 34.4531 36.9552C34.2629 36.161 34.5774 35.8465 35.3965 36.0118C35.9153 36.3193 36.3528 36.2373 36.709 35.7658C36.6759 35.6449 36.6212 35.5356 36.5449 35.4376C35.6935 35.265 34.9688 34.8685 34.3711 34.2482C33.9539 33.0317 34.3505 32.2113 35.5605 31.7872Z" fill="#1387F1"/>
</g>
<defs>
<clipPath id="clip0_155_101">
<rect width="42" height="42" fill="white"/>
</clipPath>
</defs>
</svg>
