<svg width="42" height="42" viewBox="0 0 42 42" fill="none" xmlns="http://www.w3.org/2000/svg">
<g clip-path="url(#clip0_155_28)">
<path opacity="0.947" fill-rule="evenodd" clip-rule="evenodd" d="M1.51758 -0.0410156C11.2246 -0.0410156 20.9317 -0.0410156 30.6387 -0.0410156C31.4747 0.234924 31.9806 0.809142 32.1562 1.68164C32.211 6.24805 32.211 10.8144 32.1562 15.3809C31.9424 15.899 31.5733 16.0494 31.0488 15.832C30.9218 15.7324 30.8261 15.6094 30.7617 15.4629C30.7344 10.9512 30.707 6.43945 30.6797 1.92773C30.6235 1.71796 30.5005 1.56757 30.3105 1.47656C20.7949 1.42187 11.2793 1.42187 1.76367 1.47656C1.66797 1.57227 1.57227 1.66797 1.47656 1.76367C1.42187 14.5605 1.42187 27.3574 1.47656 40.1543C1.57227 40.25 1.66797 40.3457 1.76367 40.4414C11.2793 40.4961 20.7949 40.4961 30.3105 40.4414C30.5005 40.3504 30.6235 40.2 30.6797 39.9902C30.707 37.5293 30.7344 35.0684 30.7617 32.6074C31.0091 32.1257 31.3783 32.0027 31.8691 32.2383C32.0321 32.3465 32.1279 32.4968 32.1562 32.6895C32.211 35.2051 32.211 37.7207 32.1562 40.2363C31.9806 41.1088 31.4747 41.683 30.6387 41.959C20.9317 41.959 11.2246 41.959 1.51758 41.959C0.751953 41.6856 0.232422 41.166 -0.0410156 40.4004C-0.0410156 27.4395 -0.0410156 14.4785 -0.0410156 1.51758C0.229591 0.754781 0.749122 0.23525 1.51758 -0.0410156Z" fill="#066DCA"/>
<path opacity="0.945" fill-rule="evenodd" clip-rule="evenodd" d="M6.68555 4.14258C12.9473 4.1289 19.209 4.14258 25.4707 4.18359C25.89 4.46342 25.9857 4.83256 25.7578 5.29102C25.6496 5.45405 25.4993 5.54975 25.3066 5.57813C19.4278 5.61914 13.5489 5.63282 7.66992 5.61914C7.66992 6.05664 7.66992 6.49414 7.66992 6.93164C13.5763 6.91797 19.4825 6.93164 25.3887 6.97266C25.8474 7.16973 25.9978 7.51153 25.8398 7.99805C25.7392 8.18066 25.5887 8.3037 25.3887 8.36719C19.1816 8.4219 12.9746 8.4219 6.76758 8.36719C6.44808 8.29065 6.27034 8.08556 6.23438 7.75195C6.17969 6.74024 6.17969 5.72851 6.23438 4.7168C6.31135 4.46271 6.46173 4.27129 6.68555 4.14258Z" fill="#066DCA"/>
<path opacity="0.939" fill-rule="evenodd" clip-rule="evenodd" d="M41.959 9.88467C41.959 10.2675 41.959 10.6503 41.959 11.0331C41.7817 11.4011 41.5903 11.7702 41.3848 12.1405C41.6747 12.3626 41.7705 12.6497 41.6719 13.0019C41.084 14.0273 40.4961 15.0526 39.9082 16.078C40.883 16.5195 41.4299 17.2714 41.5488 18.3339C41.5131 18.5537 41.472 18.7723 41.4258 18.9901C40.4248 20.8421 39.3721 22.6604 38.2676 24.4452C37.5641 24.7225 37.1539 24.4901 37.0371 23.748C37.987 22.0392 38.9578 20.344 39.9492 18.662C40.101 18.4129 40.101 18.1668 39.9492 17.9237C39.7299 17.7185 39.4839 17.5544 39.2109 17.4315C37.2017 20.7929 35.233 24.1836 33.3047 27.6034C32.4334 28.7211 31.531 29.8148 30.5977 30.8847C30.2119 31.625 29.7335 32.295 29.1621 32.8944C28.5837 33.1683 27.9822 33.2914 27.3574 33.2636C26.744 34.0275 26.1151 34.7795 25.4707 35.5194C24.7582 35.8601 24.1155 35.7644 23.543 35.2323C23.3164 34.8065 23.1113 34.369 22.9277 33.9198C22.1616 35.0722 21.2729 35.1816 20.2617 34.248C20.1187 33.9644 20.0367 33.6636 20.0156 33.3456C19.9697 32.5751 19.8877 31.8094 19.7695 31.0487C19.2116 32.7501 18.6373 34.4455 18.0469 36.1347C17.3732 36.5758 16.9221 36.4117 16.6934 35.6425C17.3001 33.781 17.9154 31.9216 18.5391 30.0644C19.1024 29.2294 19.827 29.0517 20.7129 29.5312C20.8941 29.6848 21.0445 29.8626 21.1641 30.0644C21.3055 31.0822 21.4422 32.0939 21.5742 33.0995C21.9906 32.3789 22.6058 32.1191 23.4199 32.3202C23.699 32.4351 23.9315 32.6128 24.1172 32.8534C24.3246 33.2842 24.5159 33.7216 24.6914 34.1659C25.1973 33.5507 25.7031 32.9355 26.209 32.3202C25.8016 31.7283 25.706 31.0857 25.9219 30.3925C26.8309 28.6232 27.5965 26.7911 28.2188 24.8964C30.1848 21.4405 32.1672 17.9952 34.166 14.5605C33.8188 14.3806 33.5317 14.1345 33.3047 13.8222C33.1932 13.0718 33.5076 12.7574 34.248 12.8788C34.4844 12.9902 34.7168 13.1133 34.9453 13.248C35.5399 12.1953 36.1551 11.1563 36.791 10.1308C37.031 9.89681 37.3044 9.84218 37.6113 9.9667C37.9235 9.28543 38.4156 8.77955 39.0879 8.44913C40.4745 8.10333 41.4315 8.58185 41.959 9.88467ZM39.6621 9.80264C40.2911 9.78886 40.5509 10.0897 40.4414 10.705C40.3625 10.9475 40.2258 11.1389 40.0312 11.2792C39.6673 11.1057 39.3255 10.9006 39.0059 10.664C39.1373 10.303 39.3561 10.0159 39.6621 9.80264ZM37.5293 11.6894C38.3699 12.0551 39.1629 12.5062 39.9082 13.0429C39.4886 13.817 39.0374 14.5689 38.5547 15.2987C37.7677 14.8988 37.0158 14.4476 36.2988 13.9452C36.7288 13.2017 37.1389 12.4497 37.5293 11.6894ZM35.4785 15.2987C36.2792 15.7289 37.0722 16.1801 37.8574 16.6523C36.0084 19.8445 34.149 23.0301 32.2793 26.2089C31.4816 25.8068 30.716 25.3556 29.9824 24.8554C31.8465 21.6877 33.6786 18.5021 35.4785 15.2987ZM29.3262 26.2909C30.0459 26.6647 30.7568 27.0611 31.459 27.4804C30.8703 28.1918 30.2688 28.8891 29.6543 29.5722C29.1957 29.3576 28.7856 29.0842 28.4238 28.7519C28.7252 27.9297 29.0259 27.1093 29.3262 26.2909ZM27.7676 30.2284C28.1512 30.42 28.5066 30.6525 28.834 30.9257C28.7127 31.3614 28.4392 31.6485 28.0137 31.787C27.6392 31.6997 27.4205 31.4673 27.3574 31.0898C27.4401 30.7741 27.5769 30.487 27.7676 30.2284Z" fill="#066DCA"/>
<path opacity="0.942" fill-rule="evenodd" clip-rule="evenodd" d="M8.81845 9.72071C13.6311 9.70702 18.4435 9.72071 23.2559 9.76173C23.7926 10.0318 23.9156 10.4282 23.6251 10.9512C23.551 11.0497 23.4554 11.1181 23.338 11.1563C18.4981 11.211 13.6583 11.211 8.81845 11.1563C8.16566 10.682 8.16566 10.2036 8.81845 9.72071Z" fill="#066DCA"/>
<path opacity="0.943" fill-rule="evenodd" clip-rule="evenodd" d="M11.5255 14.6426C16.8849 14.6289 22.2444 14.6426 27.6036 14.6836C28.1626 15.2213 28.1079 15.6862 27.4396 16.0781C22.1896 16.1329 16.9396 16.1329 11.6896 16.0781C11.1382 15.8323 11.0014 15.4358 11.2794 14.8887C11.3836 14.824 11.4656 14.742 11.5255 14.6426Z" fill="#066DCA"/>
<path opacity="0.941" fill-rule="evenodd" clip-rule="evenodd" d="M5.29093 18.8262C10.1309 18.8125 14.9707 18.8262 19.8105 18.8672C20.4667 19.3321 20.4667 19.7969 19.8105 20.2617C14.9706 20.3164 10.1308 20.3164 5.29093 20.2617C4.64131 19.7837 4.64131 19.3052 5.29093 18.8262Z" fill="#066DCA"/>
<path opacity="0.931" fill-rule="evenodd" clip-rule="evenodd" d="M22.1075 18.8262C23.9124 18.8125 25.7171 18.8262 27.5215 18.8672C28.1778 19.3321 28.1778 19.7969 27.5215 20.2617C25.7168 20.3164 23.9121 20.3164 22.1075 20.2617C21.4557 19.7835 21.4557 19.3049 22.1075 18.8262Z" fill="#066DCA"/>
<path opacity="0.939" fill-rule="evenodd" clip-rule="evenodd" d="M5.20898 22.3535C7.77944 22.3398 10.3497 22.3535 12.9199 22.3945C13.2672 22.6772 13.363 23.019 13.207 23.4199C13.0727 23.6094 12.895 23.7325 12.6738 23.7891C10.2676 23.8438 7.86133 23.8438 5.45508 23.7891C5.04847 23.7163 4.82972 23.4702 4.79883 23.0508C4.85213 22.766 4.98885 22.5336 5.20898 22.3535Z" fill="#066DCA"/>
<path opacity="0.936" fill-rule="evenodd" clip-rule="evenodd" d="M15.0527 22.3535C16.885 22.3398 18.717 22.3535 20.5488 22.3945C20.6953 22.4589 20.8184 22.5546 20.918 22.6817C21.1047 23.2388 20.927 23.6079 20.3848 23.7891C18.6894 23.8438 16.9942 23.8438 15.2988 23.7891C14.7213 23.6755 14.5162 23.3337 14.6836 22.7637C14.7677 22.5843 14.8907 22.4475 15.0527 22.3535Z" fill="#066DCA"/>
<path opacity="0.933" fill-rule="evenodd" clip-rule="evenodd" d="M8.3262 27.1933C9.77356 27.1584 11.0861 27.5549 12.2637 28.3827C12.7012 28.7929 12.7012 29.203 12.2637 29.6132C11.702 29.7721 11.2098 29.6353 10.7871 29.203C8.68541 28.2895 6.83969 28.6586 5.25003 30.3105C4.07676 31.902 3.9127 33.5972 4.75784 35.3964C6.04313 37.3574 7.83415 38.0546 10.1309 37.4882C12.1681 36.6302 13.2208 35.0852 13.2891 32.8534C13.6253 32.4221 14.0217 32.3538 14.4785 32.6484C14.6089 32.8478 14.6909 33.0665 14.7246 33.3046C14.4564 36.4983 12.7611 38.4397 9.6387 39.1288C6.58089 39.3985 4.40707 38.1544 3.11722 35.3964C2.2789 32.8301 2.8121 30.6015 4.71682 28.7109C5.77449 27.8438 6.97761 27.3379 8.3262 27.1933Z" fill="#066DCA"/>
<path opacity="0.922" fill-rule="evenodd" clip-rule="evenodd" d="M11.1973 31.1309C12.1207 31.1666 12.3804 31.6042 11.9766 32.4434C11.0828 33.3921 10.1394 34.2808 9.14651 35.1094C8.66958 35.2873 8.20471 35.2599 7.75198 35.0273C7.08206 34.4668 6.46682 33.8516 5.90628 33.1816C5.70108 32.5648 5.91983 32.182 6.56253 32.0332C6.67727 32.0928 6.80032 32.1339 6.93167 32.1563C7.46487 32.6895 7.99807 33.2227 8.53128 33.7559C9.41131 32.862 10.3 31.987 11.1973 31.1309Z" fill="#066DCA"/>
</g>
<defs>
<clipPath id="clip0_155_28">
<rect width="42" height="42" fill="white"/>
</clipPath>
</defs>
</svg>
