<svg width="56" height="56" viewBox="0 0 56 56" fill="none" xmlns="http://www.w3.org/2000/svg">
<g clip-path="url(#clip0_972_295)">
<path opacity="0.927" fill-rule="evenodd" clip-rule="evenodd" d="M48.7267 3.88281C51.3012 3.63448 52.9966 4.72823 53.8126 7.16406C54.1724 9.75334 53.1334 11.4851 50.6954 12.3594C48.7897 12.7451 47.2402 12.1801 46.047 10.6641C45.0996 8.99241 45.0996 7.31533 46.047 5.63281C46.7604 4.75193 47.6537 4.16859 48.7267 3.88281ZM48.9454 5.63281C50.4869 5.42773 51.526 6.04752 52.0626 7.49219C52.2363 9.83421 51.1608 10.8733 48.836 10.6094C47.0995 9.7776 46.6438 8.48332 47.4689 6.72656C47.8603 6.20492 48.3525 5.84034 48.9454 5.63281Z" fill="#193A6D"/>
<path opacity="0.946" fill-rule="evenodd" clip-rule="evenodd" d="M-0.0546875 30.0234C-0.0546875 28.6016 -0.0546875 27.1797 -0.0546875 25.7578C1.30914 16.8285 6.26747 10.9041 14.8203 7.98437C16.2538 7.58748 17.7121 7.33227 19.1953 7.21875C23.4609 7.14583 27.7266 7.14583 31.9922 7.21875C32.1198 7.34636 32.2474 7.47395 32.375 7.60156C32.448 11.5391 32.448 15.4766 32.375 19.4141C32.2422 19.5835 32.0782 19.711 31.8828 19.7969C27.8359 19.8333 23.7891 19.8698 19.7422 19.9062C19.026 20.0033 18.3332 20.1856 17.6641 20.4531C16.5886 20.6901 16.1692 20.2708 16.4062 19.1953C17.382 18.5724 18.4576 18.226 19.6328 18.1562C21.1272 18.1016 22.6219 18.0833 24.1172 18.1016C24.1172 15.0391 24.1172 11.9766 24.1172 8.91406C17.3576 8.19548 11.579 10.2007 6.78125 14.9297C3.64686 18.357 1.95155 22.4038 1.69531 27.0703C4.75781 27.0703 7.82031 27.0703 10.8828 27.0703C11.1003 24.7583 12.0117 22.7713 13.6172 21.1094C14.5107 20.9103 14.9299 21.2567 14.875 22.1484C12.3025 25.2576 11.9378 28.6118 13.7812 32.2109C15.2009 34.3588 17.1878 35.6167 19.7422 35.9844C23.8255 36.0208 27.9089 36.0573 31.9922 36.0938C32.1198 36.2214 32.2474 36.3489 32.375 36.4766C32.448 40.4141 32.448 44.3516 32.375 48.2891C32.2422 48.4585 32.0782 48.586 31.8828 48.6719C27.7266 48.7448 23.5703 48.7448 19.4141 48.6719C16.1246 48.4503 13.0803 47.4841 10.2812 45.7734C10.0443 44.698 10.4635 44.2786 11.5391 44.5156C13.9847 45.8897 16.6097 46.6919 19.4141 46.9219C20.9813 46.9766 22.5491 46.9948 24.1172 46.9766C24.1172 43.9141 24.1172 40.8516 24.1172 37.7891C22.3629 37.8312 20.6129 37.7765 18.8672 37.625C15.1038 36.7787 12.5699 34.5365 11.2656 30.8984C11.0604 30.2188 10.9328 29.526 10.8828 28.8203C7.82031 28.8203 4.75781 28.8203 1.69531 28.8203C2.06679 34.4123 4.3819 39.0061 8.64062 42.6016C8.90248 43.6156 8.51967 44.0349 7.49219 43.8594C3.16361 40.2527 0.647982 35.6408 -0.0546875 30.0234ZM25.7578 8.91406C27.4349 8.91406 29.112 8.91406 30.7891 8.91406C30.7891 11.9766 30.7891 15.0391 30.7891 18.1016C29.112 18.1016 27.4349 18.1016 25.7578 18.1016C25.7578 15.0391 25.7578 11.9766 25.7578 8.91406ZM25.7578 37.7891C27.4349 37.7891 29.112 37.7891 30.7891 37.7891C30.7891 40.8516 30.7891 43.9141 30.7891 46.9766C29.112 46.9766 27.4349 46.9766 25.7578 46.9766C25.7578 43.9141 25.7578 40.8516 25.7578 37.7891Z" fill="#193A6D"/>
<path opacity="0.927" fill-rule="evenodd" clip-rule="evenodd" d="M34.3984 7.16406C36.6226 7.14584 38.8465 7.16406 41.0703 7.21875C41.4834 7.54192 41.6109 7.96119 41.4531 8.47656C41.3203 8.64596 41.1562 8.77357 40.9609 8.85938C38.8098 8.9323 36.6588 8.9323 34.5078 8.85938C33.9911 8.59301 33.827 8.17375 34.0156 7.60156C34.1361 7.44308 34.2637 7.29725 34.3984 7.16406Z" fill="#D24A43"/>
<path opacity="0.907" fill-rule="evenodd" clip-rule="evenodd" d="M35.0546 12.6328C36.0032 12.6147 36.9512 12.6328 37.8984 12.6875C38.3754 12.931 38.5394 13.3138 38.3906 13.8359C38.2995 14.073 38.1354 14.237 37.8984 14.3281C36.987 14.4011 36.0754 14.4011 35.164 14.3281C34.6473 14.0618 34.4833 13.6425 34.6718 13.0703C34.7923 12.9118 34.92 12.766 35.0546 12.6328Z" fill="#D24A43"/>
<path opacity="0.911" fill-rule="evenodd" clip-rule="evenodd" d="M40.7422 12.6328C41.7637 12.6147 42.7846 12.6328 43.8047 12.6875C44.2178 13.0107 44.3453 13.4299 44.1875 13.9453C44.0547 14.1147 43.8907 14.2423 43.6953 14.3281C42.7109 14.4011 41.7266 14.4011 40.7422 14.3281C40.1915 13.9986 40.0639 13.5428 40.3594 12.9609C40.4846 12.8367 40.6123 12.7273 40.7422 12.6328Z" fill="#D24A43"/>
<path opacity="0.93" fill-rule="evenodd" clip-rule="evenodd" d="M55.9453 18.6484C55.9453 19.4505 55.9453 20.2526 55.9453 21.0547C55.5899 22.1208 54.8607 22.7952 53.7578 23.0781C50.9505 23.1511 48.1433 23.1511 45.336 23.0781C43.8816 22.5525 43.1889 21.5134 43.2578 19.9609C43.4069 16.4026 45.2299 14.2698 48.7266 13.5625C52.4873 13.3713 54.8936 15.0666 55.9453 18.6484ZM48.9453 15.2578C52.1581 15.2442 53.9446 16.8302 54.3047 20.0156C54.3095 20.5394 54.0908 20.9404 53.6485 21.2187C50.9966 21.3989 48.3351 21.4353 45.6641 21.3281C45.4688 21.2423 45.3047 21.1147 45.1719 20.9453C44.7464 17.9265 46.0043 16.0307 48.9453 15.2578Z" fill="#193A6D"/>
<path opacity="0.925" fill-rule="evenodd" clip-rule="evenodd" d="M34.6171 18.1016C36.404 18.0833 38.1904 18.1016 39.9765 18.1563C40.3896 18.4795 40.5171 18.8987 40.3593 19.4141C40.2265 19.5835 40.0625 19.711 39.8671 19.7969C38.1535 19.8698 36.4401 19.8698 34.7265 19.7969C34.2098 19.5305 34.0458 19.1112 34.2343 18.5391C34.3548 18.3806 34.4825 18.2348 34.6171 18.1016Z" fill="#D24A43"/>
<path opacity="0.927" fill-rule="evenodd" clip-rule="evenodd" d="M48.7267 32.7578C51.3012 32.5094 52.9966 33.6032 53.8126 36.0391C54.1724 38.6283 53.1334 40.3601 50.6954 41.2344C48.7897 41.6201 47.2402 41.0551 46.047 39.5391C45.0996 37.8674 45.0996 36.1903 46.047 34.5078C46.7604 33.6269 47.6537 33.0436 48.7267 32.7578ZM48.9454 34.5078C50.4869 34.3027 51.526 34.9226 52.0626 36.3672C52.2363 38.7092 51.1608 39.7483 48.836 39.4844C47.0995 38.6526 46.6438 37.3583 47.4689 35.6016C47.8603 35.08 48.3525 34.7153 48.9454 34.5078Z" fill="#193A6D"/>
<path opacity="0.925" fill-rule="evenodd" clip-rule="evenodd" d="M34.6171 36.0391C36.404 36.0208 38.1904 36.0391 39.9765 36.0938C40.3896 36.417 40.5171 36.8362 40.3593 37.3516C40.2265 37.521 40.0625 37.6485 39.8671 37.7344C38.1535 37.8073 36.4401 37.8073 34.7265 37.7344C34.2098 37.468 34.0458 37.0487 34.2343 36.4766C34.3548 36.3181 34.4825 36.1723 34.6171 36.0391Z" fill="#D24A43"/>
<path opacity="0.894" fill-rule="evenodd" clip-rule="evenodd" d="M35.0546 41.5078C35.7241 41.463 36.3803 41.5177 37.0233 41.6719C37.5074 42.267 37.4345 42.7774 36.8046 43.2031C36.1723 43.3019 35.5526 43.2655 34.9452 43.0938C34.6287 42.7756 34.5376 42.3928 34.6718 41.9453C34.7923 41.7868 34.9199 41.641 35.0546 41.5078Z" fill="#D24A43"/>
<path opacity="0.917" fill-rule="evenodd" clip-rule="evenodd" d="M39.6485 41.5078C41.0343 41.4895 42.4198 41.5078 43.8047 41.5625C44.2178 41.8857 44.3453 42.3049 44.1875 42.8203C44.0547 42.9897 43.8907 43.1173 43.6953 43.2031C42.3464 43.2761 40.9974 43.2761 39.6485 43.2031C39.0977 42.8736 38.9701 42.4178 39.2656 41.8359C39.3909 41.7117 39.5185 41.6023 39.6485 41.5078Z" fill="#D24A43"/>
<path opacity="0.93" fill-rule="evenodd" clip-rule="evenodd" d="M55.9453 47.5234C55.9453 48.3255 55.9453 49.1276 55.9453 49.9297C55.5899 50.9958 54.8607 51.6702 53.7578 51.9531C50.9505 52.0261 48.1433 52.0261 45.336 51.9531C43.8816 51.4275 43.1889 50.3884 43.2578 48.8359C43.4069 45.2776 45.2299 43.1448 48.7266 42.4375C52.4873 42.2463 54.8936 43.9416 55.9453 47.5234ZM48.9453 44.1328C52.1581 44.1192 53.9446 45.7052 54.3047 48.8906C54.3095 49.4144 54.0908 49.8154 53.6485 50.0937C50.9966 50.2739 48.3351 50.3103 45.6641 50.2031C45.4688 50.1173 45.3047 49.9897 45.1719 49.8203C44.7464 46.8015 46.0043 44.9057 48.9453 44.1328Z" fill="#193A6D"/>
<path opacity="0.927" fill-rule="evenodd" clip-rule="evenodd" d="M34.3984 46.9766C36.6226 46.9583 38.8465 46.9766 41.0703 47.0313C41.4834 47.3545 41.6109 47.7737 41.4531 48.2891C41.3203 48.4585 41.1562 48.586 40.9609 48.6719C38.8098 48.7448 36.6588 48.7448 34.5078 48.6719C33.9911 48.4055 33.827 47.9862 34.0156 47.4141C34.1361 47.2556 34.2637 47.1098 34.3984 46.9766Z" fill="#D24A43"/>
</g>
<defs>
<clipPath id="clip0_972_295">
<rect width="56" height="56" fill="white"/>
</clipPath>
</defs>
</svg>
