<svg width="56" height="56" viewBox="0 0 56 56" fill="none" xmlns="http://www.w3.org/2000/svg">
<path opacity="0.937" fill-rule="evenodd" clip-rule="evenodd" d="M42.4922 3.66407C44.2058 3.4721 45.3907 4.16482 46.0469 5.74219C48.7477 19.7016 51.4274 33.6652 54.086 47.6328C54.0051 48.9328 53.3854 49.8625 52.2266 50.4219C53.0372 50.4337 53.8393 50.5066 54.6328 50.6406C55.0049 51.0474 55.0596 51.5032 54.7969 52.0078C54.6417 52.1128 54.4776 52.2039 54.3047 52.2813C36.7683 52.3542 19.2318 52.3542 1.69534 52.2813C1.39656 52.2377 1.19604 52.0737 1.09378 51.7891C0.882879 51.1351 1.0834 50.6794 1.69534 50.4219C2.31406 50.3673 2.93386 50.349 3.55471 50.3672C3.51774 50.1097 3.46306 49.8546 3.39065 49.6016C3.31773 35.4558 3.31773 21.3099 3.39065 7.16407C3.54567 5.84267 4.25661 4.9859 5.52346 4.59376C9.09638 4.52084 12.6693 4.52084 16.2422 4.59376C16.7286 4.74574 17.1661 4.98272 17.5547 5.30469C17.9433 4.98272 18.3808 4.74574 18.8672 4.59376C22.4402 4.52084 26.013 4.52084 29.586 4.59376C30.632 5.02006 31.343 5.76746 31.7188 6.83594C32.1203 6.17941 32.6854 5.72369 33.4141 5.46876C36.4585 4.88537 39.4846 4.28381 42.4922 3.66407ZM42.4922 5.52344C43.5347 5.30542 44.1728 5.70646 44.4063 6.72657C47.013 20.3438 49.6199 33.9609 52.2266 47.5781C52.2004 48.1789 51.9087 48.58 51.3516 48.7813C48.3379 49.4172 45.3119 49.9823 42.2735 50.4766C41.6197 50.5233 41.2005 50.2317 41.0157 49.6016C38.3855 35.8315 35.7424 22.0684 33.086 8.31251C33.215 7.81878 33.5066 7.4542 33.961 7.21876C36.8231 6.67183 39.6668 6.10673 42.4922 5.52344ZM5.96096 6.28907C9.24242 6.27085 12.5237 6.28907 15.8047 6.34376C16.1578 6.5147 16.3948 6.78814 16.5157 7.16407C16.5886 21.2734 16.5886 35.3828 16.5157 49.4922C16.3979 49.8655 16.1608 50.1389 15.8047 50.3125C12.5235 50.3855 9.24221 50.3855 5.96096 50.3125C5.62379 50.2265 5.38681 50.0261 5.25003 49.7109C5.17711 35.5286 5.17711 21.3464 5.25003 7.16407C5.39272 6.78548 5.6297 6.49382 5.96096 6.28907ZM19.3047 6.28907C22.5498 6.27085 25.7945 6.28907 29.0391 6.34376C29.5061 6.48271 29.7796 6.7926 29.8594 7.27344C29.9324 21.3464 29.9324 35.4192 29.8594 49.4922C29.7385 49.8681 29.5015 50.1416 29.1485 50.3125C25.8308 50.3855 22.513 50.3855 19.1953 50.3125C18.7555 50.1082 18.5186 49.7618 18.4844 49.2734C18.4114 35.3828 18.4114 21.4922 18.4844 7.60157C18.5174 7.00539 18.7909 6.56789 19.3047 6.28907ZM31.6641 10.9922C34.1779 24.104 36.6935 37.229 39.211 50.3672C36.6231 50.4947 34.0347 50.513 31.4453 50.4219C31.5209 50.3052 31.5756 50.1775 31.6094 50.0391C31.6641 37.0234 31.6824 24.0078 31.6641 10.9922Z" fill="#193A6D"/>
<path opacity="0.916" fill-rule="evenodd" clip-rule="evenodd" d="M41.7264 11.5391C42.5418 11.3618 43.0158 11.6716 43.1483 12.4688C43.1161 12.7885 42.9701 13.0437 42.7108 13.2344C40.9458 13.5947 39.1776 13.941 37.4061 14.2734C36.5451 14.0464 36.3081 13.5359 36.6952 12.7422C36.8226 12.6236 36.9684 12.5325 37.1327 12.4688C38.6854 12.191 40.2166 11.8812 41.7264 11.5391Z" fill="#D24A43"/>
<path opacity="0.937" fill-rule="evenodd" clip-rule="evenodd" d="M8.03912 12.1953C9.9353 12.177 11.8311 12.1953 13.7266 12.25C14.542 12.7489 14.5784 13.2957 13.836 13.8906C11.8308 13.9636 9.82557 13.9636 7.82037 13.8906C7.36144 13.5646 7.27029 13.1453 7.54693 12.6328C7.69971 12.4611 7.86377 12.3152 8.03912 12.1953Z" fill="#D24A43"/>
<path opacity="0.938" fill-rule="evenodd" clip-rule="evenodd" d="M21.3828 12.1953C23.2425 12.177 25.1018 12.1953 26.9609 12.25C27.4778 12.5112 27.6419 12.9305 27.4531 13.5078C27.3984 13.7083 27.2707 13.8359 27.0703 13.8906C25.1015 13.9636 23.1328 13.9636 21.164 13.8906C20.6736 13.5183 20.6006 13.0627 20.9453 12.5234C21.0985 12.4118 21.2444 12.3024 21.3828 12.1953Z" fill="#193A6D"/>
<path opacity="0.916" fill-rule="evenodd" clip-rule="evenodd" d="M42.7109 16.4609C43.7126 16.3506 44.1319 16.7881 43.9687 17.7734C43.8411 17.9011 43.7136 18.0286 43.5859 18.1563C41.8216 18.5203 40.0533 18.8665 38.2812 19.1953C37.4891 19.005 37.234 18.531 37.5156 17.7734C37.6484 17.604 37.8124 17.4765 38.0078 17.3906C39.5942 17.0988 41.1618 16.789 42.7109 16.4609Z" fill="#D24A43"/>
<path opacity="0.902" fill-rule="evenodd" clip-rule="evenodd" d="M8.03905 17.0078C9.93523 16.9895 11.8311 17.0078 13.7266 17.0625C14.3611 17.4682 14.4888 17.9968 14.1094 18.6484C13.9291 18.7815 13.7286 18.8727 13.5078 18.9219C11.7578 18.9948 10.0078 18.9948 8.2578 18.9219C7.5067 18.6775 7.26972 18.1853 7.54686 17.4453C7.69964 17.2736 7.8637 17.1277 8.03905 17.0078Z" fill="#D24A43"/>
<path opacity="0.903" fill-rule="evenodd" clip-rule="evenodd" d="M21.3829 17.0078C23.2426 16.9895 25.102 17.0078 26.961 17.0625C27.1564 17.1484 27.3204 17.2759 27.4532 17.4453C27.7259 18.2688 27.4524 18.761 26.6329 18.9219C24.9558 18.9948 23.2787 18.9948 21.6016 18.9219C20.739 18.6722 20.5203 18.1436 20.9454 17.3359C21.0986 17.2243 21.2445 17.1149 21.3829 17.0078Z" fill="#193A6D"/>
<path opacity="0.921" fill-rule="evenodd" clip-rule="evenodd" d="M43.5859 21.2734C44.5875 21.1631 45.0069 21.6006 44.8437 22.5859C44.7526 22.75 44.6249 22.8776 44.4609 22.9688C42.6965 23.3328 40.9283 23.679 39.1562 24.0078C38.4194 23.8113 38.1643 23.3372 38.3906 22.5859C38.5233 22.4165 38.6874 22.289 38.8827 22.2031C40.4743 21.9383 42.0419 21.6285 43.5859 21.2734Z" fill="#D24A43"/>
<path opacity="0.902" fill-rule="evenodd" clip-rule="evenodd" d="M8.03904 21.9297C9.93522 21.9114 11.8311 21.9297 13.7265 21.9844C14.3611 22.39 14.4888 22.9187 14.1093 23.5703C13.9291 23.7034 13.7286 23.7945 13.5078 23.8438C11.7578 23.9167 10.0078 23.9167 8.25779 23.8438C7.45073 23.6332 7.21376 23.141 7.54685 22.3672C7.69962 22.1955 7.86369 22.0496 8.03904 21.9297Z" fill="#D24A43"/>
<path opacity="0.902" fill-rule="evenodd" clip-rule="evenodd" d="M21.3828 21.9297C23.2061 21.9114 25.029 21.9297 26.8515 21.9844C27.1084 22.0222 27.3088 22.1499 27.4531 22.3672C27.5577 22.8126 27.503 23.2318 27.289 23.625C27.1155 23.7193 26.9331 23.7922 26.7422 23.8438C24.9922 23.9167 23.2422 23.9167 21.4922 23.8438C20.7187 23.5288 20.5363 23.0001 20.9453 22.2578C21.0985 22.1461 21.2444 22.0368 21.3828 21.9297Z" fill="#193A6D"/>
<path opacity="0.917" fill-rule="evenodd" clip-rule="evenodd" d="M44.461 26.0859C45.4684 25.9812 45.8878 26.4187 45.7188 27.3984C45.6277 27.5625 45.5 27.6901 45.336 27.7813C43.5892 28.1392 41.8392 28.4856 40.086 28.8203C39.3442 28.6871 39.0708 28.2496 39.2657 27.5078C39.3165 27.3513 39.4077 27.2238 39.5391 27.125C41.1935 26.777 42.8341 26.4306 44.461 26.0859Z" fill="#D24A43"/>
<path opacity="0.901" fill-rule="evenodd" clip-rule="evenodd" d="M8.14835 26.8516C9.97163 26.8333 11.7946 26.8516 13.6171 26.9063C14.0903 27.0332 14.3454 27.3432 14.3827 27.8359C14.3196 28.3106 14.0644 28.6205 13.6171 28.7656C11.7941 28.8386 9.97127 28.8386 8.14835 28.7656C7.41995 28.4933 7.21943 28.0011 7.54679 27.2891C7.71083 27.0737 7.91134 26.9279 8.14835 26.8516Z" fill="#D24A43"/>
<path opacity="0.903" fill-rule="evenodd" clip-rule="evenodd" d="M21.4921 26.8516C23.279 26.8333 25.0654 26.8516 26.8515 26.9063C27.1083 26.9441 27.3088 27.0717 27.453 27.2891C27.526 27.6172 27.526 27.9453 27.453 28.2734C27.3317 28.5266 27.1312 28.6907 26.8515 28.7656C25.0651 28.8386 23.2785 28.8386 21.4921 28.7656C20.7637 28.4933 20.5632 28.0011 20.8905 27.2891C21.0546 27.0737 21.2551 26.9279 21.4921 26.8516Z" fill="#193A6D"/>
<path opacity="0.924" fill-rule="evenodd" clip-rule="evenodd" d="M44.7891 38.3359C46.7226 38.2536 47.9804 39.1286 48.5625 40.9609C48.8301 43.4279 47.7364 44.8498 45.2812 45.2266C43.1793 45.0205 42.0308 43.8721 41.8359 41.7813C41.9856 39.901 42.9699 38.7526 44.7891 38.3359ZM44.7891 40.1953C43.4345 40.9976 43.2887 41.9638 44.3516 43.0938C45.4654 43.5851 46.2857 43.2752 46.8125 42.1641C46.8771 40.7521 46.2026 40.0959 44.7891 40.1953Z" fill="#193A6D"/>
<path opacity="0.927" fill-rule="evenodd" clip-rule="evenodd" d="M10.2266 39.1016C12.6901 38.9589 14.0756 40.1074 14.3828 42.5469C14.2281 44.2314 13.3531 45.3251 11.7578 45.8281C8.91328 46.0822 7.50962 44.788 7.54686 41.9453C7.90234 40.4782 8.79557 39.5302 10.2266 39.1016ZM10.6641 40.7422C9.63103 41.1041 9.21175 41.8332 9.40624 42.9297C10.2148 44.2433 11.1628 44.3527 12.25 43.2578C12.7807 41.7688 12.252 40.9302 10.6641 40.7422Z" fill="#193A6D"/>
<path opacity="0.932" fill-rule="evenodd" clip-rule="evenodd" d="M23.4609 39.1016C25.4608 38.9062 26.7916 39.7448 27.4531 41.6172C27.7073 44.6077 26.3401 46.0113 23.3515 45.8281C21.3958 45.2188 20.5391 43.888 20.7812 41.8359C21.1841 40.4306 22.0773 39.5192 23.4609 39.1016ZM23.8984 40.7422C22.6079 41.245 22.2615 42.12 22.8594 43.3672C23.7671 44.2615 24.6421 44.2251 25.4844 43.2578C26.0137 41.7659 25.4851 40.9275 23.8984 40.7422Z" fill="#D24A43"/>
</svg>
