<svg width="56" height="56" viewBox="0 0 56 56" fill="none" xmlns="http://www.w3.org/2000/svg">
<g clip-path="url(#clip0_972_241)">
<path opacity="0.943" fill-rule="evenodd" clip-rule="evenodd" d="M55.9453 38.2266C55.9453 41.9453 55.9453 45.6641 55.9453 49.3828C55.702 50.0445 55.228 50.4638 54.5234 50.6406C36.8047 50.7136 19.0859 50.7136 1.36719 50.6406C0.662576 50.4638 0.188618 50.0445 -0.0546875 49.3828C-0.0546875 45.6641 -0.0546875 41.9453 -0.0546875 38.2266C0.323999 37.3247 1.01671 36.8872 2.02344 36.9141C2.0052 32.5024 2.02344 28.091 2.07812 23.6797C2.28145 23.1847 2.6278 22.8384 3.11719 22.6406C4.61153 22.5859 6.10633 22.5677 7.60156 22.5859C7.58334 20.4711 7.60156 18.3564 7.65625 16.2422C7.76172 15.8082 7.99869 15.4618 8.36719 15.2031C11.4592 15.0418 14.5581 14.9871 17.6641 15.0391C17.6458 12.1221 17.6641 9.20551 17.7188 6.28907C17.8356 5.77114 18.1454 5.42479 18.6484 5.25C29.112 5.17708 39.5755 5.17708 50.0391 5.25C50.5974 5.43438 50.9437 5.81719 51.0781 6.39844C51.1511 7.60157 51.1511 8.80469 51.0781 10.0078C50.812 10.6584 50.3563 10.8224 49.7109 10.5C49.6198 10.4089 49.5286 10.3177 49.4375 10.2266C49.3828 9.13343 49.3647 8.03968 49.3828 6.94532C46.5755 6.94532 43.7683 6.94532 40.9609 6.94532C40.9609 8.95052 40.9609 10.9558 40.9609 12.9609C42.0188 12.9428 43.0761 12.9609 44.1328 13.0156C44.4652 13.1284 44.7386 13.329 44.9531 13.6172C45.1146 15.7581 45.1693 17.9092 45.1172 20.0703C45.8034 20.1123 46.2956 20.4404 46.5938 21.0547C46.6484 24.1534 46.6667 27.2524 46.6484 30.3516C47.5599 30.3516 48.4714 30.3516 49.3828 30.3516C49.3645 24.591 49.3828 18.8307 49.4375 13.0703C49.8213 12.6205 50.2771 12.5293 50.8047 12.7969C50.957 12.925 51.0483 13.089 51.0781 13.2891C51.1328 18.9765 51.1511 24.664 51.1328 30.3516C51.7992 30.3121 52.4555 30.3668 53.1016 30.5156C53.3432 30.7205 53.5437 30.9575 53.7031 31.2266C53.8626 33.1148 53.9173 35.0106 53.8672 36.9141C54.8739 36.8872 55.5667 37.3247 55.9453 38.2266ZM19.4141 6.94532C22.1849 6.94532 24.9558 6.94532 27.7266 6.94532C27.7083 9.75284 27.7266 12.5601 27.7812 15.3672C27.9255 15.9771 28.3083 16.3235 28.9297 16.4063C31.3721 16.4609 33.8148 16.4792 36.2578 16.4609C36.2578 17.6641 36.2578 18.8672 36.2578 20.0703C35.8914 20.0523 35.5269 20.0705 35.1641 20.125C34.6064 20.3104 34.4059 20.6932 34.5625 21.2734C34.6484 21.4688 34.7759 21.6328 34.9453 21.7656C38.2629 21.8203 41.5805 21.8386 44.8984 21.8203C44.8984 24.6641 44.8984 27.5078 44.8984 30.3516C43.8406 30.3334 42.7832 30.3516 41.7266 30.4063C41.2708 30.5703 40.9609 30.8802 40.7969 31.3359C40.7422 33.195 40.7239 35.0544 40.7422 36.9141C37.8255 36.9141 34.9089 36.9141 31.9922 36.9141C32.0105 33.669 31.9922 30.4243 31.9375 27.1797C31.6992 26.1019 31.0247 25.6644 29.9141 25.8672C29.9141 24.5183 29.9141 23.1692 29.9141 21.8203C30.6441 21.8385 31.3733 21.8203 32.1016 21.7656C32.5514 21.3818 32.6425 20.9261 32.375 20.3984C32.2469 20.2461 32.0829 20.1549 31.8828 20.125C31.0078 20.0521 30.1328 20.0521 29.2578 20.125C28.7399 20.2418 28.3935 20.5517 28.2188 21.0547C28.1641 22.6585 28.1458 24.2627 28.1641 25.8672C27.2161 25.8672 26.2683 25.8672 25.3203 25.8672C25.3386 22.5857 25.3203 19.3045 25.2656 16.0234C25.1016 15.5677 24.7917 15.2578 24.3359 15.0938C22.6957 15.0391 21.0551 15.0208 19.4141 15.0391C19.4141 12.3411 19.4141 9.64324 19.4141 6.94532ZM29.4766 6.94532C32.7214 6.94532 35.9661 6.94532 39.2109 6.94532C39.2109 8.95052 39.2109 10.9558 39.2109 12.9609C38.5537 12.9428 37.8975 12.961 37.2422 13.0156C36.5074 13.3358 36.1793 13.9009 36.2578 14.7109C33.9974 14.7109 31.737 14.7109 29.4766 14.7109C29.4766 12.1224 29.4766 9.53386 29.4766 6.94532ZM38.0078 14.7109C39.7942 14.7109 41.5808 14.7109 43.3672 14.7109C43.3672 16.4974 43.3672 18.2839 43.3672 20.0703C41.5808 20.0703 39.7942 20.0703 38.0078 20.0703C38.0078 18.2839 38.0078 16.4974 38.0078 14.7109ZM9.35156 16.7891C11.2109 16.7891 13.0703 16.7891 14.9297 16.7891C14.9115 17.6284 14.9297 18.467 14.9844 19.3047C15.1042 19.8253 15.4141 20.1717 15.9141 20.3438C17.4817 20.4167 19.0495 20.4167 20.6172 20.3438C21 20.1797 21.2734 19.9063 21.4375 19.5234C21.4922 18.6127 21.5103 17.7013 21.4922 16.7891C22.1849 16.7891 22.8776 16.7891 23.5703 16.7891C23.5703 19.8151 23.5703 22.8411 23.5703 25.8672C21.6741 25.8489 19.7783 25.8672 17.8828 25.9219C17.4464 26.1395 17.173 26.4859 17.0625 26.9609C17.0078 30.2785 16.9895 33.5962 17.0078 36.9141C15.7683 36.9141 14.5286 36.9141 13.2891 36.9141C13.3073 32.5024 13.2891 28.091 13.2344 23.6797C13.0703 23.1511 12.7239 22.8047 12.1953 22.6406C11.2481 22.5859 10.3002 22.5678 9.35156 22.5859C9.35156 20.6536 9.35156 18.7214 9.35156 16.7891ZM16.6797 16.7891C17.7005 16.7891 18.7214 16.7891 19.7422 16.7891C19.7422 17.4089 19.7422 18.0286 19.7422 18.6484C18.7214 18.6484 17.7005 18.6484 16.6797 18.6484C16.6797 18.0286 16.6797 17.4089 16.6797 16.7891ZM3.77344 24.3359C6.36198 24.3359 8.95052 24.3359 11.5391 24.3359C11.5391 28.5286 11.5391 32.7214 11.5391 36.9141C8.95052 36.9141 6.36198 36.9141 3.77344 36.9141C3.77344 32.7214 3.77344 28.5286 3.77344 24.3359ZM18.7578 27.5078C22.5859 27.5078 26.4141 27.5078 30.2422 27.5078C30.2422 28.2734 30.2422 29.0391 30.2422 29.8047C28.885 29.7567 27.536 29.8114 26.1953 29.9688C25.8404 30.1854 25.6035 30.4953 25.4844 30.8984C25.4114 31.9192 25.4114 32.9401 25.4844 33.9609C25.7075 34.5489 26.1267 34.8953 26.7422 35C27.9082 35.0547 29.0749 35.073 30.2422 35.0547C30.2422 35.6745 30.2422 36.2942 30.2422 36.9141C26.4141 36.9141 22.5859 36.9141 18.7578 36.9141C18.7578 33.7786 18.7578 30.6433 18.7578 27.5078ZM27.1797 31.5547C28.2005 31.5547 29.2214 31.5547 30.2422 31.5547C30.2422 32.138 30.2422 32.7214 30.2422 33.3047C29.2214 33.3047 28.2005 33.3047 27.1797 33.3047C27.1797 32.7214 27.1797 32.138 27.1797 31.5547ZM42.4922 32.1016C42.8933 32.1016 43.2942 32.1016 43.6953 32.1016C43.6772 32.6861 43.6954 33.2694 43.75 33.8516C43.8776 34.2708 44.1511 34.5442 44.5703 34.6719C45.4636 34.6901 46.3567 34.7083 47.25 34.7266C48.2604 34.7403 49.2629 34.6857 50.2578 34.5625C50.5428 34.3505 50.7433 34.0771 50.8594 33.7422C50.914 33.1965 50.9322 32.6496 50.9141 32.1016C51.3151 32.1016 51.7161 32.1016 52.1172 32.1016C52.1172 33.7058 52.1172 35.3099 52.1172 36.9141C48.9089 36.9141 45.7005 36.9141 42.4922 36.9141C42.4922 35.3099 42.4922 33.7058 42.4922 32.1016ZM45.4453 32.1016C46.6849 32.1016 47.9245 32.1016 49.1641 32.1016C49.1641 32.3933 49.1641 32.6849 49.1641 32.9766C47.9245 32.9766 46.6849 32.9766 45.4453 32.9766C45.4453 32.6849 45.4453 32.3933 45.4453 32.1016ZM1.69531 38.6641C19.1954 38.6276 36.6954 38.6641 54.1953 38.7734C54.299 39.3132 54.3354 39.8601 54.3047 40.4141C41.0703 40.3958 27.8359 40.4141 14.6016 40.4688C13.7293 40.8593 13.6199 41.4062 14.2734 42.1094C17.7004 42.1641 21.1274 42.1823 24.5547 42.1641C24.5547 43.2578 24.5547 44.3516 24.5547 45.4453C18.5755 45.4453 12.5964 45.4453 6.61719 45.4453C6.61719 44.3516 6.61719 43.2578 6.61719 42.1641C8.22177 42.1823 9.82593 42.1641 11.4297 42.1094C11.7432 41.957 11.889 41.7018 11.8672 41.3438C11.8772 41.036 11.7679 40.7808 11.5391 40.5781C8.22682 40.4175 4.9091 40.3628 1.58594 40.4141C1.5604 39.824 1.59685 39.2407 1.69531 38.6641ZM1.58594 42.1641C2.71614 42.1641 3.84636 42.1641 4.97656 42.1641C4.97656 43.2578 4.97656 44.3516 4.97656 45.4453C3.84636 45.4453 2.71614 45.4453 1.58594 45.4453C1.58594 44.3516 1.58594 43.2578 1.58594 42.1641ZM26.3047 42.1641C27.3984 42.1641 28.4922 42.1641 29.5859 42.1641C29.5859 43.2578 29.5859 44.3516 29.5859 45.4453C28.4922 45.4453 27.3984 45.4453 26.3047 45.4453C26.3047 44.3516 26.3047 43.2578 26.3047 42.1641ZM31.3359 42.1641C37.3151 42.1641 43.2942 42.1641 49.2734 42.1641C49.2734 43.2578 49.2734 44.3516 49.2734 45.4453C43.2942 45.4453 37.3151 45.4453 31.3359 45.4453C31.3359 44.3516 31.3359 43.2578 31.3359 42.1641ZM50.9141 42.1641C52.0442 42.1641 53.1745 42.1641 54.3047 42.1641C54.3047 43.2578 54.3047 44.3516 54.3047 45.4453C53.1745 45.4453 52.0442 45.4453 50.9141 45.4453C50.9141 44.3516 50.9141 43.2578 50.9141 42.1641ZM1.58594 47.1953C19.1589 47.1953 36.7317 47.1953 54.3047 47.1953C54.3354 47.7493 54.299 48.2962 54.1953 48.8359C36.6953 48.9817 19.1953 48.9817 1.69531 48.8359C1.59167 48.2962 1.5552 47.7493 1.58594 47.1953Z" fill="#193A6D"/>
<path opacity="0.886" fill-rule="evenodd" clip-rule="evenodd" d="M21.3828 8.69532C22.6616 8.50517 23.0627 8.99736 22.5859 10.1719C21.5564 10.6403 21.0277 10.3304 21 9.2422C21.109 9.04279 21.2367 8.86051 21.3828 8.69532Z" fill="#D24A43"/>
<path opacity="0.886" fill-rule="evenodd" clip-rule="evenodd" d="M21.3828 11.1016C22.6616 10.9114 23.0627 11.4037 22.5859 12.5781C21.5564 13.0466 21.0277 12.7366 21 11.6484C21.109 11.4491 21.2367 11.2667 21.3828 11.1016Z" fill="#D24A43"/>
<path opacity="0.954" fill-rule="evenodd" clip-rule="evenodd" d="M38.9921 23.6797C40.2322 23.6614 41.4718 23.6797 42.7108 23.7344C43.1168 24.0092 43.2444 24.3921 43.0937 24.8828C43.0025 25.0469 42.8749 25.1745 42.7108 25.2656C41.4713 25.3386 40.2316 25.3386 38.9921 25.2656C38.4203 24.7381 38.4203 24.2095 38.9921 23.6797Z" fill="#D24A43"/>
<path opacity="0.928" fill-rule="evenodd" clip-rule="evenodd" d="M7.27344 26.086C7.61788 26.0543 7.94601 26.109 8.25781 26.25C8.71517 26.7257 9.18913 27.1813 9.67969 27.6172C10.1222 28.394 9.92162 28.9044 9.07812 29.1485C8.94404 29.1326 8.81643 29.0962 8.69531 29.0391C8.60813 29.514 8.51698 29.988 8.42187 30.461C8.0068 30.8222 7.55106 30.8769 7.05469 30.625C6.98624 30.543 6.93155 30.4518 6.89062 30.3516C6.85417 29.8777 6.8177 29.4036 6.78125 28.9297C6.03115 29.3111 5.57541 29.0923 5.41406 28.2735C5.4323 28.1277 5.45052 27.9818 5.46875 27.836C6.05886 27.2274 6.66042 26.6441 7.27344 26.086Z" fill="#D24A43"/>
<path opacity="0.923" fill-rule="evenodd" clip-rule="evenodd" d="M35.0547 26.4141C37.5342 26.3958 40.0134 26.4141 42.4922 26.4688C43.0835 26.6853 43.284 27.1047 43.0938 27.7266C42.9662 27.8542 42.8386 27.9817 42.711 28.1094C40.1224 28.1823 37.5339 28.1823 34.9454 28.1094C34.2244 27.5123 34.2609 26.9473 35.0547 26.4141Z" fill="#D24A43"/>
<path opacity="0.866" fill-rule="evenodd" clip-rule="evenodd" d="M21.3828 28.9297C22.1345 28.7578 22.6085 29.0312 22.8046 29.75C22.5794 30.5667 22.0691 30.822 21.2734 30.5156C20.722 29.9519 20.7584 29.4233 21.3828 28.9297Z" fill="#D24A43"/>
<path opacity="0.866" fill-rule="evenodd" clip-rule="evenodd" d="M21.3829 31.2266C22.1611 31.0496 22.635 31.3413 22.8047 32.1016C22.5586 32.899 22.0482 33.136 21.2735 32.8125C20.7151 32.2531 20.7515 31.7244 21.3829 31.2266Z" fill="#D24A43"/>
</g>
<defs>
<clipPath id="clip0_972_241">
<rect width="56" height="56" fill="white"/>
</clipPath>
</defs>
</svg>
